<?xml version="1.0" encoding="UTF-8"?><svg id="b" xmlns="http://www.w3.org/2000/svg" width="238.066" height="187.477" viewBox="0 0 238.066 187.477"><defs><style>.d{fill:#3d8dcc;}.e{fill:#fff;}.f{fill:#211715;}.g{fill:#f2635f;}</style></defs><g id="c"><path class="e" d="M235.017,13.38c-45.253,0-179.071,0-232.016,0-.552,0-.99.444-.99.996,0,70.546,0,152.145,0,170.013,0,.552.439.991.991.991,39.186-.004,140.004-.004,232.003-.003.552,0,.997-.441.997-.993,0-12.078.007-130.9.007-170.008,0-.552-.442-.995-.994-.995Z"/><path class="e" d="M183.961,156.081v2.31H55.392v-94.33h128.569v92.02Z"/><path class="d" d="M209.681,64.061v94.33h-25.72v-94.33h25.72Z"/><path class="g" d="M55.391,156.081v2.31h-25.71v-94.33h25.71v92.02Z"/><path class="f" d="M235.017,11.38c-9.408,0-18.816,0-28.223,0-12.507,0-25.013,0-37.52,0-14.371,0-28.742,0-43.113,0-14.655,0-29.311,0-43.966,0-13.571,0-27.142,0-40.714,0-11.066,0-22.132,0-33.197,0-1.158,0-2.315,0-3.473,0-1.596,0-3.358-.155-4.338,1.397C-.112,13.705.011,14.843.011,15.889c0,1.229,0,2.459,0,3.688,0,2.329,0,4.657,0,6.986,0,9.554,0,19.109,0,28.663,0,18.362,0,36.723,0,55.085,0,15.162,0,30.324,0,45.486,0,9.222,0,18.444,0,27.665,0,1.465.223,2.851,1.667,3.593,1.104.568,2.715.323,3.935.323,2.415,0,4.831,0,7.246,0,5.735,0,11.471,0,17.206,0,14.757,0,29.513,0,44.27-.001,17.794,0,35.589,0,53.383,0,19.499,0,38.998,0,58.497,0,9.995,0,19.991,0,29.986,0,4.897,0,9.795,0,14.692,0,2.142,0,5.452.687,6.714-1.532.39-.685.394-1.436.394-2.194,0-5.904,0-11.808,0-17.712,0-10.497.001-20.994.002-31.49,0-12.855.001-25.71.002-38.565,0-13.026.001-26.053.002-39.079,0-10.821,0-21.642.001-32.463,0-2.072,0-4.144,0-6.216,0-2.301.642-6.177-2.462-6.674-1.065-.17-2.152.275-2.46,1.397-.262.952.324,2.289,1.397,2.46-1.378-.22-.329-1.144-.475-.603-.023.084,0,.241,0,.335,0,.227,0,.454,0,.681,0,.468,0,.937,0,1.405,0,.993,0,1.986,0,2.979,0,2.198,0,4.395,0,6.593,0,5.079,0,10.159,0,15.238,0,12.153,0,24.305-.001,36.458,0,12.936-.001,25.872-.002,38.808,0,11.696-.001,23.392-.002,35.088,0,8.273,0,16.545-.001,24.818,0,2.181,0,4.361,0,6.542,0,.13-.042.341,0,.463.007.021-.016.213,0,.218l.273-.478c.441-.45.38-.61-.183-.478-.264-.067-.64,0-.913,0-2.441,0-4.883,0-7.324,0-4.908,0-9.815,0-14.723,0-19.501,0-39.002,0-58.503,0-18.359,0-36.718,0-55.078,0-16.047,0-32.095,0-48.142,0-12.302,0-24.605,0-36.907.002-2.366,0-4.731,0-7.097,0-.54,0-1.079,0-1.619,0-.508,0-.786-.216-.184.45.659.728.345.418.407-.007.096-.66,0-1.408,0-2.076,0-3.968,0-7.936,0-11.904,0-12.793,0-25.585,0-38.378,0-16.97,0-33.939,0-50.909,0-18.654,0-37.308,0-55.961,0-2.324,0-4.647,0-6.971,0-.506,0-1.011,0-1.517,0-.158.065-.682,0-.865v-.432c-.271.191-.541.381-.812.572.153.17,1.468,0,1.715,0,2.269,0,4.538,0,6.807,0,5.273,0,10.546,0,15.819,0,12.506,0,25.011,0,37.517,0,14.159,0,28.319,0,42.478,0,14.412,0,28.825,0,43.237,0,13.261,0,26.521,0,39.782,0,10.861,0,21.722,0,32.583,0,3.96,0,7.92,0,11.88,0,2.574,0,2.578-4,0-4Z"/><path class="f" d="M31.344,89.641h69.37c23.123,0,46.247,0,69.37,0h38.927c2.574,0,2.578-4,0-4-23.123,0-46.247,0-69.37,0h-69.37c-12.976,0-25.951,0-38.927,0-2.574,0-2.578,4,0,4h0Z"/><path class="f" d="M31.344,113.224c23.123,0,46.247,0,69.37,0h69.37c12.976,0,25.951,0,38.927,0,2.574,0,2.578-4,0-4-23.123,0-46.247,0-69.37,0-23.123,0-46.247,0-69.37,0-12.976,0-25.951,0-38.927,0-2.574,0-2.578,4,0,4h0Z"/><path class="f" d="M31.344,136.807c23.123,0,46.247,0,69.37,0h69.37c12.976,0,25.951,0,38.927,0,2.574,0,2.578-4,0-4-23.123,0-46.247,0-69.37,0-23.123,0-46.247,0-69.37,0-12.976,0-25.951,0-38.927,0-2.574,0-2.578,4,0,4h0Z"/><path class="f" d="M27.678,64.057c0,15.209,0,30.417,0,45.626v40.651c0,2.686,0,5.371,0,8.057,0,1.081.916,2,2,2,23.417,0,46.833,0,70.25,0,23.417,0,46.833,0,70.25,0,13.167,0,26.333,0,39.5,0,1.081,0,2-.916,2-2,0-24.457,0-48.914,0-73.37v-20.963c0-1.081-.916-2-2-2h-12.617c-10.614,0-21.228,0-31.842,0h-43.077c-15.494,0-30.987,0-46.481,0H29.678c-2.574,0-2.578,4,0,4h40.544c15.388,0,30.776,0,46.164,0h43.917c11.256,0,22.513,0,33.769,0h10.438c1.619,0,3.315.145,4.929,0,.078-.007.16,0,.239,0l-2-2c0,24.457,0,48.914,0,73.37v20.963l2-2c-23.417,0-46.833,0-70.25,0-23.417,0-46.833,0-70.25,0-13.167,0-26.333,0-39.5,0l2,2v-23.065c0-15.655,0-31.309,0-46.964v-24.304c0-2.574-4-2.578-4,0Z"/><path class="f" d="M181.963,64.057v73.37c0,6.988,0,13.975,0,20.963,0,2.574,4,2.578,4,0v-73.37c0-6.988,0-13.975,0-20.963,0-2.574-4-2.578-4,0h0Z"/><path class="f" d="M156.249,64.057v73.37c0,6.988,0,13.975,0,20.963,0,2.574,4,2.578,4,0v-73.37c0-6.988,0-13.975,0-20.963,0-2.574-4-2.578-4,0h0Z"/><path class="f" d="M130.535,64.057v73.37c0,6.988,0,13.975,0,20.963,0,2.574,4,2.578,4,0v-73.37c0-6.988,0-13.975,0-20.963,0-2.574-4-2.578-4,0h0Z"/><path class="f" d="M104.82,64.057v73.37c0,6.988,0,13.975,0,20.963,0,2.574,4,2.578,4,0v-73.37c0-6.988,0-13.975,0-20.963,0-2.574-4-2.578-4,0h0Z"/><path class="f" d="M79.106,64.057v73.37c0,6.988,0,13.975,0,20.963,0,2.574,4,2.578,4,0v-73.37c0-6.988,0-13.975,0-20.963,0-2.574-4-2.578-4,0h0Z"/><path class="f" d="M53.392,64.057c0,24.457,0,48.914,0,73.37v20.963c0,2.574,4,2.578,4,0,0-24.457,0-48.914,0-73.37v-20.963c0-2.574-4-2.578-4,0h0Z"/><path class="f" d="M86.566,42.946h64.889c2.574,0,2.578-4,0-4h-64.889c-2.574,0-2.578,4,0,4h0Z"/><rect class="e" x="182.789" y="1.976" width="12.444" height="24.895" rx="6.222" ry="6.222"/><path class="f" d="M197.233,20.649c0-3.562,0-7.124,0-10.687,0-1.966-.029-3.822-.968-5.633-1.588-3.065-5.093-4.733-8.464-4.245-3.451.499-6.341,3.273-6.882,6.739-.238,1.521-.13,3.106-.13,4.64v6.76c0,1.691-.129,3.457.444,5.077,1.315,3.719,5.075,6.036,8.988,5.463,4.051-.593,6.904-4.083,7.013-8.114.069-2.575-3.931-2.573-4,0-.062,2.308-1.866,4.222-4.222,4.222-2.375,0-4.136-1.912-4.222-4.222-.11-2.942,0-5.909,0-8.853,0-1.18-.011-2.361,0-3.541.019-2.025,1.397-3.819,3.419-4.207,2.257-.433,4.518,1.08,4.953,3.347.192.999.072,2.12.072,3.13,0,3.375,0,6.75,0,10.124,0,2.574,4,2.578,4,0Z"/><rect class="e" x="42.789" y="1.976" width="12.444" height="24.895" rx="6.222" ry="6.222"/><path class="f" d="M57.233,20.649c0-3.562,0-7.124,0-10.687,0-1.966-.029-3.822-.968-5.633C54.677,1.264,51.172-.403,47.801.084c-3.451.499-6.341,3.273-6.882,6.739-.238,1.521-.13,3.106-.13,4.64v6.76c0,1.691-.129,3.457.444,5.077,1.315,3.719,5.075,6.036,8.988,5.463,4.051-.593,6.904-4.083,7.013-8.114.069-2.575-3.931-2.573-4,0-.062,2.308-1.866,4.222-4.222,4.222-2.375,0-4.136-1.912-4.222-4.222-.11-2.942,0-5.909,0-8.853,0-1.18-.011-2.361,0-3.541.019-2.025,1.397-3.819,3.419-4.207,2.257-.433,4.518,1.08,4.953,3.347.192.999.072,2.12.072,3.13,0,3.375,0,6.75,0,10.124,0,2.574,4,2.578,4,0Z"/></g></svg>