<?xml version="1.0" encoding="UTF-8"?><svg id="b" xmlns="http://www.w3.org/2000/svg" width="251.213" height="327.97" viewBox="0 0 251.213 327.97"><defs><style>.g{fill:#211715;}.h{fill:#fff;}.i{fill:#a0a0a0;}.j{fill:#79c6e0;}.k{fill:#645d5c;}</style></defs><g id="c"><g id="d"><path class="h" d="M82.962,325.57c1.037-14.158,3.565-37.361,3.581-44.373l-1.821,1.293c-5.62,3.99-14.708,10.862-21.9,13.465-7.798,2.823-16.853,2.597-25.527-2.615-10.132-6.088-13.56-17.593-15.097-29.314-2.212-16.869-2.218-35.078-2.527-51.37,10.255.722,27.905-1.938,38.63-4.186,1.541-5.215,3.27-10.721,5.9-17.571,1.26-3.28,3.22-6.1,5.63-8.67,2.3-2.44,5.62-4.29,8.59-5.73,9.27-4.48,20.45-7.62,29.65-12.33l9.538-3.664c1.368,8.206,3.977,19.747,6.85,27.57,2.18,5.94,9.33,26.18,14.2,37.75,4.168,9.889,8.114,17.639,12.384,25.405,12.029-27.389,26.656-55.89,30.105-90.412l12.521,5.007c7.61,4.4,18.69,9.4,27.23,13.52,3.1,1.5,6.65,3.92,9.34,6.07,2.68,2.15,5.83,6.52,7.44,11.89,5.6,18.67,8.16,69.3,11.13,128.26"/><path class="h" d="M23.733,195.433c.122,1.43.363,3.485.401,5.892,0,0,.006.533.007,1.316,4.753-.408,16.765-1.485,24.605-2.702l.169-1.401c.328-1.513.711-4.966.71-6.514,0,0,0-.626,0-1.525,2.885-2.313,5.401-4.631,6.97-8.139,1.95-4.36,2.8-8.673,3.9-13.313.859-3.623,1.466-6.661,1.614-9.329.061-1.091-.384-2.67-1.298-3.307-.664-.463-2.743-.407-3.476-.062-1.289.606-2.501,2.984-3.741,5.462-1.185,2.369-2.123,4.377-3.941,6.304-1.359,1.441-4.263,1.986-6.228.209-1.156-1.045-1.683-3.093-1.797-4.647-.156-2.116-.215-3.744.782-5.617.997-1.873,3.179-3.118,4.76-2.809,1.21.236,3.85,1.168,5.083,1.168,2.788,0,4.184-2.849,3.765-4.697-.318-1.402-3.541-2.735-5.296-3.684-1.98-1.07-3.887-2.402-6.121-2.32-2.676.098-5.338,1.732-7.143,3.7-1.676,1.827-2.751,2.809-4.22,5.17-3.555-7.671-10.583-21.796-12.394-24.701-.734-1.177-2.288-2.668-4.436-2.206-1.907.41-3.106,2.597-3.154,4.334-.025.899,1.053,4.259,1.959,6.458l.713,1.732c-.182-.268-.363-.536-.363-.536-1.46-2.154-2.258-3.898-4.345-4.288-.54-.101-1.734-.134-2.317.133-.769.351-1.422,1.061-1.735,1.877-.665,1.732.059,3.989.739,5.588.82,1.929,5.874,13.232,6.842,15.456l2.897,6.688.494,1.141c-2.596-3.864-5.197-7.483-7.653-11.495-.814-1.33-1.459-2.447-2.863-3.135-1.526-.748-3.248-.58-4.172.834-.924,1.414-1.364,2.832-.885,4.454.48,1.622,1.455,3.127,2.354,4.784,3.093,5.698,6.076,10.62,9.007,16.402,3.447,5.781,9.48,16.292,9.747,17.828"/><path class="k" d="M112.665,129.883c-3.418-4.44-5.705-9.184-7.261-13.647-.976,6.42-4.502,9.127-8.295,11.74-3.456,2.381-7.209,4.625-9.426,9.186-1.668,3.432-2.239,7.807-2.134,12.021s3.48,15.096,7.678,19.64l.931,1.257c5.243-1.992,9.278-3.433,13.913-5.914l10.188-3.312c4.58-2.84,8.83-5.93,9.68-8.03,1.12-2.78,1.07-6.44,1.05-9.685-5.586-2.391-10.698-6.469-15.242-11.908-.372-.446-.733-.895-1.081-1.348Z"/><path class="h" d="M209.872,88.396c-.124-1.331-.341-2.696-1.014-3.894-.951-1.709-2.844-2.962-4.923-3.273-2.079-.311-4.302.344-5.802,1.697,0,0,1.255-41.918-49.412-41.918s-47.903,41.918-47.903,41.918c-1.5-1.354-3.723-2.008-5.802-1.697-2.079.311-3.971,1.564-4.923,3.273-.672,1.198-.889,2.563-1.014,3.894-.455,5.248.579,10.595,2.958,15.377,1.158,2.33,2.668,4.56,4.768,6.257,2.068,1.65,4.732,2.753,7.488,2.67,1.637,5.856,4.442,12.534,9.452,18.53,4.545,5.439,9.658,9.519,15.241,11.915v.008c.02,3.23.07,6.89-1.05,9.67-.883,2.181-5.434,5.431-10.214,8.359,1.041,6.084,2.722,13.823,4.67,20.522,1.215.323,1.956.522,1.956.522,7.247,1.938,17.441,3.581,25.057,3.6,7.991.02,19.36-1.243,27.165-4.347,0,0,.457-.182,1.246-.495,1.462-6.385,2.595-12.967,3.294-19.784-4.365-2.935-8.561-6.192-9.445-8.376-1.15-2.83-1.08-6.6-1.06-9.88v-.006h.001c12.152-5.211,21.927-21.568,23.632-26.195.257-.781.781-2.252,1.248-3.997.62-.096.973-.151.973-.151,2.098-.322,4.072-1.276,5.685-2.562,2.099-1.698,3.609-3.928,4.768-6.257,2.379-4.782,3.413-10.129,2.958-15.377Z"/><path class="k" d="M90.534,74.193c.387,2.131,1.302,5.72,1.98,7.928.756-.453,1.612-.759,2.503-.892,1.597-.239,3.279.092,4.653.872,7.648-3.329,13.036-9.872,16.681-15.046,7.087-10.06,9.112-17.067,10.434-24.135,5.514,7.251,55.799,34.623,70.209,36.795l2.491,2.281c1.333-.706,2.931-.995,4.451-.767,1.37.205,2.659.819,3.646,1.71,1.095-6.447,1.556-17.819,1.245-22.272-1.049-15.052-6.967-31.913-16.445-41.255-12.295-12.118-22.407-16.963-45.415-16.963-18.957,0-33.154,9.027-40.641,16.35-12.421,12.148-17.867,29.16-16.976,44.762.183,3.202.472,6.898,1.176,10.443"/><path class="j" d="M145.996,185.722c-7.062-.391-15.436-1.835-21.647-3.496l-1.958-.524c.661,2.281,1.355,4.442,2.065,6.376,2.181,5.941,9.334,26.176,14.204,37.743,4.165,9.893,8.111,17.644,12.383,25.411,9.599-21.857,20.854-44.423,26.76-70.196l-1.231.443c-7.805,3.104-19.175,4.367-27.165,4.347-1.09-.003-2.232-.039-3.411-.104Z"/><path class="h" d="M99.182,263.007c-4.32-6.745-6.593-17.203-7.146-25.426-.569-8.459,1.296-25.803,6.411-38.535,1.364-7.73,2.888-14.463,4.03-20.986,1.703-9.723,6.096-17.022,14.559-21.3.192,1.419.443,3.027.745,4.763-5.386,8.114-8.38,30.804-7.938,38.426,5.223,15.347,16.886,29.811,18.762,46.905.551,5.019-1.077,9.799-3.822,14.037-2.547,3.932-6.462,6.046-10.632,7.991-1.822.85-3.991,1.709-5.741,2.7-1.319.747-2.506,1.807-3.984,2.143-3.242.739-5.713-2.408-6.116-5.3-.309-2.217.152-4.472,2.539-5.646,3.225-1.587,6.393-.561,9.828-2.375,3.218-1.7,5.802-2.434,7.401-8.13,2.116-7.543-2.875-16.831-5.785-23.661-1.532-3.595-7.036-16.33-8.287-18.554-1.362,5.554-3.876,20.309-2.919,27.153.787,5.622,2.919,16.452,6.671,22.706l1.925,3.679-8.593,2.963-1.909-3.554Z"/><path class="i" d="M121.845,272.555c.086-1.568-.926-3.603-2.377-4.17,0,0-1.018-.398-2.403-.939-.947.503-1.924.975-2.914,1.438-1.342.626-2.873,1.257-4.285,1.942.596,1.284,1.171,2.606,2.064,3.709.816,1.009,1.939,1.833,3.223,2.021.81.119,1.636-.018,2.428-.226,1.653-.434,3.343-1.299,4.053-2.853.125-.274.194-.588.212-.923Z"/><path class="i" d="M98.673,264.959c.397-.881,1.085-1.643,2.175-2.179,1.843-.907,3.668-.96,5.535-1.178,1.451,3.069,2.238,6.45,2.294,9.845-.094.039-.182.088-.269.137-1.319.747-2.506,1.807-3.984,2.143-3.242.739-5.713-2.408-6.116-5.3-.168-1.204-.109-2.42.363-3.467Z"/><path class="g" d="M123.711,184.54c7.005,1.857,14.267,3.062,21.499,3.535,6.906.451,13.909-.119,20.72-1.291,3.836-.66,7.65-1.568,11.279-2.991,1.206-.473,2.045-1.609,1.676-2.952-.316-1.15-1.739-2.152-2.952-1.676-6.251,2.449-13.049,3.512-19.716,4.006-6.596.488-13.146.151-19.679-.867-3.886-.606-7.749-1.384-11.552-2.392-2.989-.792-4.264,3.836-1.276,4.629h0Z"/><path class="g" d="M199.831,84.624c1.975-1.675,5.281-1.353,6.778.793.837,1.2.889,2.885.946,4.293.071,1.753-.004,3.532-.297,5.263-1.074,6.346-4.371,14.076-11.434,15.306-1.278.223-1.996,1.789-1.676,2.952.371,1.35,1.671,1.899,2.952,1.676,9.711-1.691,14.351-12.708,15.156-21.473.39-4.242.281-9.548-3.302-12.474-3.718-3.036-8.908-2.792-12.518.27-.989.839-.864,2.53,0,3.394.98.98,2.403.841,3.394,0h0Z"/><path class="g" d="M193.987,107.195c-.07,2.058-.544,4.056-1.127,6.024-.229.771-.481,1.535-.737,2.297-.078.232-.158.464-.238.696-.161.468-.096.234-.033.097-.935,2.052-2.038,4.015-3.237,5.924-3.462,5.513-7.692,10.766-12.836,14.799-2.825,2.215-5.976,3.98-9.466,4.785-3.009.694-1.735,5.323,1.276,4.629,7.306-1.685,13.426-6.942,18.242-12.459,3.892-4.459,7.558-9.497,10.014-14.913,1.665-3.671,2.804-7.852,2.942-11.878.106-3.09-4.694-3.085-4.8,0h0Z"/><path class="g" d="M102.516,81.23c-3.609-3.062-8.8-3.306-12.518-.27-3.583,2.926-3.692,8.232-3.302,12.474.805,8.765,5.446,19.782,15.156,21.473,1.276.222,2.586-.342,2.952-1.676.318-1.157-.392-2.729-1.676-2.952-7.063-1.23-10.361-8.961-11.434-15.306-.293-1.732-.366-3.51-.297-5.263.056-1.422.123-3.073.946-4.293,1.465-2.171,4.828-2.448,6.778-.793.988.838,2.425.969,3.394,0,.859-.859.993-2.552,0-3.394h0Z"/><path class="g" d="M100.961,109.152c3.071,14.516,11.639,28.664,25.318,35.38,3.693,1.813,7.572,2.914,11.661,3.341,1.291.135,2.4-1.199,2.4-2.4,0-1.41-1.105-2.265-2.4-2.4-13.461-1.404-24.471-13.04-29.313-25.052-1.323-3.281-2.305-6.686-3.037-10.145-.639-3.02-5.267-1.742-4.629,1.276h0Z"/><path class="g" d="M168.207,142.943c-.014,2.113-.042,4.235.21,6.337.231,1.924.561,4.036,1.69,5.667,2.372,3.425,6.197,5.888,9.589,8.189,1.073.728,2.66.205,3.284-.861.692-1.184.215-2.554-.861-3.284-1.614-1.095-3.218-2.213-4.728-3.45-.661-.541-1.308-1.101-1.921-1.696-.268-.26-.53-.526-.781-.802-.127-.14-.25-.283-.371-.428-.245-.293.265.433-.066-.09-.145-.23-.29-.45-.413-.694-.131-.259.131.388-.005-.038-.072-.225-.153-.448-.218-.676-.219-.762-.378-1.604-.449-2.294-.202-1.952-.171-3.92-.158-5.88.02-3.089-4.78-3.093-4.8,0h0Z"/><path class="g" d="M126.587,143.153c.012,1.918.038,3.846-.165,5.757-.07.659-.249,1.586-.482,2.362-.067.222-.142.44-.219.658.054-.152.135-.232.017-.045-.085.133-.548.819-.212.393-2.189,2.771-5.51,4.655-8.48,6.502-1.1.684-1.528,2.143-.861,3.284.642,1.098,2.179,1.548,3.284.861,1.939-1.206,3.852-2.459,5.668-3.846,1.571-1.2,3.099-2.442,4.277-4.045,1.095-1.49,1.457-3.417,1.696-5.211.296-2.215.292-4.44.277-6.67-.02-3.088-4.82-3.094-4.8,0h0Z"/><path class="g" d="M59.866,211.647c1.197-4.095,2.426-8.18,3.797-12.22,1.532-4.518,2.932-9.239,5.825-13.104,2.806-3.748,6.544-6.048,10.719-8.026,4.391-2.08,8.955-3.763,13.494-5.483,5.27-1.997,10.552-4.017,15.582-6.573,2.755-1.4.328-5.542-2.423-4.145-9.117,4.633-19.029,7.414-28.304,11.695-4.449,2.053-8.651,4.494-11.812,8.314-1.585,1.915-3.004,3.968-4.045,6.231-1.128,2.454-2.001,5.041-2.896,7.586-1.677,4.767-3.149,9.599-4.566,14.448-.868,2.971,3.762,4.24,4.629,1.276h0Z"/><path class="g" d="M192.458,167.897c5.768,3.321,11.796,6.182,17.804,9.037,6.156,2.925,12.378,5.596,17.803,9.8,6.868,5.322,8.426,14.47,9.771,22.538,1.524,9.146,2.433,18.487,3.254,27.939,1.1,12.68,1.916,25.385,2.66,38.09.981,16.75,1.816,33.507,2.661,50.264.155,3.074,4.956,3.093,4.8,0-1.43-28.39-2.703-56.811-5.048-85.145-.836-10.099-1.796-20.207-3.344-30.225-1.339-8.663-2.887-17.819-8.924-24.593-2.333-2.617-5.486-4.673-8.456-6.491-3.183-1.95-6.648-3.43-10.017-5.025-6.921-3.278-13.897-6.51-20.54-10.334-2.682-1.544-5.102,2.602-2.423,4.145h0Z"/><path class="g" d="M218.442,325.57c-.696-9.447-1.648-18.873-2.481-28.308-.566-6.411-1.47-12.987-.929-19.428,1.264-15.069,4.758-30.186,7.33-45.238,1.89-11.065,3.286-22.229,5.467-33.242.251-1.27-.362-2.591-1.676-2.952-1.18-.324-2.699.399-2.952,1.676-1.927,9.736-3.213,19.598-4.822,29.39-1.285,7.82-2.851,15.588-4.213,23.395-1.412,8.097-2.785,16.226-3.681,24.399-.684,6.245-.146,12.373.384,18.616.895,10.567,1.995,21.117,2.774,31.693.095,1.293,1.035,2.4,2.4,2.4,1.225,0,2.496-1.1,2.4-2.4h0Z"/><path class="g" d="M72.036,199.877c1.362,10.655,2.759,21.308,4.422,31.921,1.206,7.692,2.658,15.337,4.018,23.003,1.321,7.444,2.691,14.936,3.414,22.258.595,6.035-.149,12.132-.668,18.149-.874,10.121-1.914,20.23-2.66,30.362-.095,1.294,1.171,2.4,2.4,2.4,1.378,0,2.304-1.102,2.4-2.4.666-9.038,1.567-18.057,2.372-27.083.353-3.957.702-7.915.965-11.879.168-2.53.331-5.065.157-7.599-.508-7.395-1.887-14.768-3.151-22.063-1.231-7.099-2.606-14.174-3.788-21.282-1.977-11.887-3.553-23.836-5.081-35.787-.164-1.285-.985-2.4-2.4-2.4-1.169,0-2.565,1.105-2.4,2.4h0Z"/><path class="g" d="M125.246,44.826c2.269,2.687,5.548,4.695,8.443,6.625,4.71,3.14,9.59,6.028,14.511,8.821,11.111,6.306,22.525,12.206,34.31,17.155,4.424,1.858,9.069,3.864,13.845,4.604,1.279.198,2.581-.325,2.952-1.676.313-1.138-.388-2.753-1.676-2.952-4.025-.623-7.939-2.201-11.694-3.716-2.48-1.001-4.841-2.036-7.491-3.247-2.822-1.29-5.622-2.63-8.403-4.006-10.997-5.439-21.865-11.309-32.173-17.972-2.063-1.333-4.1-2.709-6.065-4.184-.088-.066-.175-.133-.263-.2-.354-.268.272.215.043.033-.178-.142-.358-.282-.535-.426-.322-.261-.641-.527-.952-.801-.514-.453-1.015-.925-1.458-1.45-.837-.991-2.532-.862-3.394,0-.981.981-.839,2.401,0,3.394h0Z"/><path class="g" d="M102.124,83.595c6.045-3.054,10.803-7.953,14.829-13.308,3.959-5.265,7.364-10.988,9.628-17.191,1.003-2.747,1.73-5.576,2.305-8.441.255-1.27-.364-2.592-1.676-2.952-1.183-.325-2.696.399-2.952,1.676-1.402,6.986-4.029,13.338-7.877,19.34-4.278,6.673-9.481,13.094-16.68,16.731-2.758,1.393-.331,5.536,2.423,4.145h0Z"/><path class="g" d="M102.771,117.222c-1.002,3.902-3.516,6.36-6.737,8.588-3.605,2.494-7.268,4.897-9.63,8.703-4.531,7.302-3.797,16.577-1.098,24.351,1.434,4.131,3.26,8.376,6.223,11.656,2.075,2.297,5.461-1.106,3.394-3.394-2.137-2.366-3.635-5.784-4.757-8.885-.616-1.703-1.152-3.437-1.58-5.198-.359-1.477-.576-2.527-.631-3.676-.208-4.326.388-9.08,2.808-12.767,2.114-3.221,5.586-5.12,8.639-7.31,3.864-2.772,6.79-6.091,7.997-10.793.769-2.994-3.86-4.271-4.629-1.276h0Z"/><path class="g" d="M175.094,244.182c-3.19,2.932-6.426,5.817-9.749,8.598-.967.809-.897,2.57,0,3.394,1.028.944,2.363.863,3.394,0,3.323-2.781,6.559-5.666,9.749-8.598.927-.852.928-2.543,0-3.394-.991-.91-2.406-.909-3.394,0h0Z"/><path class="g" d="M144.907,278.989c-2.212,1.993-3.054,5.251-1.987,8.052.444,1.167,1.049,2.244,2.043,3.034,1.328,1.056,2.818,1.589,4.502,1.741,2.914.263,6.044-1.286,7.229-4.041.667-1.55.816-3.203.322-4.835-.41-1.356-1.191-2.763-2.223-3.747-1.31-1.25-3.063-1.863-4.849-1.961-1.858-.102-3.64.557-5.039,1.758-.956.821-.906,2.563,0,3.394,1.018.935,2.374.875,3.394,0,.052-.046.104-.09.158-.132l-.486.375c.3-.231.621-.416.968-.565l-.573.242c.383-.154.777-.257,1.185-.317l-.638.086c.481-.061.959-.061,1.44-.004l-.638-.086c.505.069.991.198,1.462.395l-.573-.242c.356.157.688.348.998.583l-.486-.375c.275.22.507.469.725.745l-.375-.486c.375.486.692,1.008.938,1.571l-.242-.573c.194.465.334.942.405,1.442l-.086-.638c.048.396.051.788,0,1.184l.086-.638c-.051.336-.137.659-.261.975l.242-.573c-.157.372-.359.711-.603,1.032l.375-.486c-.267.333-.567.636-.903.9l.486-.375c-.288.215-.597.389-.927.531l.573-.242c-.439.179-.892.295-1.36.362l.638-.086c-.553.069-1.106.067-1.658-.005l.638.086c-.489-.072-.961-.196-1.42-.381l.573.242c-.389-.165-.753-.37-1.092-.623l.486.375c-.286-.223-.545-.473-.769-.76l.375.486c-.239-.318-.427-.666-.584-1.031l.242.573c-.194-.469-.327-.955-.398-1.457l.086.638c-.058-.461-.062-.92-.004-1.381l-.086.638c.062-.428.176-.839.343-1.238l-.242.573c.163-.367.366-.706.606-1.027l-.375.486c.226-.289.476-.552.749-.797.935-.843.921-2.548,0-3.394-.999-.917-2.396-.899-3.394,0Z"/><path class="g" d="M114.865,158.403c1.646,11.219,4.376,22.267,8.231,32.926,3.685,10.192,7.335,20.403,11.346,30.473,4.846,12.167,10.673,23.83,17.09,35.237,3.266,5.806,6.847,11.497,9.671,17.536,1.23,2.631,2.464,5.34,3.306,8.125.219.723.381,1.462.521,2.204.232,1.228.288,1.695.414,2.865.663,6.143.668,12.367.625,18.538-.044,6.421-.244,12.84-.43,19.258-.089,3.09,4.711,3.087,4.8,0,.333-11.504.873-23.09.083-34.586-.159-2.306-.385-4.617-.782-6.895-.377-2.169-1.099-4.18-1.918-6.22-2.512-6.255-5.776-12.023-9.1-17.87-6.645-11.685-13.058-23.472-18.208-35.908-4.259-10.284-8.006-20.784-11.785-31.251-1.844-5.108-3.654-10.192-5.039-15.451-1.756-6.664-3.196-13.438-4.196-20.258-.188-1.284-1.813-1.989-2.952-1.676-1.376.378-1.865,1.665-1.676,2.952h0Z"/><path class="h" d="M198.061,240.814c-2.253,1.816-5.224,2.725-8.795,2.048-1.273-.241-2.495-.733-3.587-1.514-4.693-3.354-5.11-10.106-3.875-15.307.459-1.935,2.644-6.93,7.871-8.076,2.951-18.787,1.054-43.08-6.733-55.809l-1.77-1.558c.145-1.458.269-2.927.373-4.407,7.855,3.303,13.046,9.197,14.619,14.979,4.003,14.721,5.109,29.692,1.37,47.821,4.731,2.471,6.128,8.541,5.148,13.671-.612,3.204-2.201,6.202-4.62,8.152Z"/><path class="g" d="M179.06,157.316c-2.025,25.842-11.133,50.108-21.56,73.605-2.761,6.223-5.587,12.417-8.33,18.647-.522,1.185-.347,2.577.861,3.284,1.02.596,2.759.331,3.284-.861,10.272-23.327,21.491-46.403,27.058-71.431,1.702-7.654,2.876-15.427,3.488-23.244.101-1.294-1.176-2.4-2.4-2.4-1.383,0-2.298,1.102-2.4,2.4h0Z"/><path class="g" d="M189.904,240.548c-5.177-1.088-6.573-6.301-6.242-10.975.072-1.009.224-2.018.482-2.997.053-.199.111-.397.176-.593.055-.166.431-1.048.146-.428.288-.627.603-1.234.978-1.814.081-.126.637-.882.364-.539.301-.378.63-.735.979-1.07,1.038-.995,2.542-1.792,4.132-1.968,2.142-.237,4.653.197,6.406,1.507,3.315,2.476,3.785,7.553,2.835,11.29-1.215,4.778-5.079,8.493-10.255,7.587-1.275-.223-2.586.342-2.952,1.676-.318,1.158.393,2.728,1.676,2.952,3.289.576,6.637.267,9.536-1.507,2.563-1.569,4.499-4.004,5.681-6.745,2.392-5.551,2.138-12.618-1.847-17.387-3.817-4.568-11.558-5.569-16.545-2.413-3.553,2.248-5.713,6.079-6.326,10.172-.518,3.459-.46,7.106.873,10.388,1.531,3.768,4.584,6.644,8.628,7.494,3.014.633,4.302-3.993,1.276-4.629Z"/><path class="g" d="M124.008,151.694c-7.348,1.841-14.013,5.582-18.438,11.849-4.588,6.499-5.436,14.398-6.952,21.987-.483,2.418-.972,4.835-1.441,7.256-.487,2.517-.844,4.997-1.728,7.403-1.51,4.11-2.633,8.36-3.516,12.646-1.579,7.668-2.653,15.682-2.36,23.528.175,4.675.905,9.391,2.008,13.933,1.175,4.839,2.859,9.693,5.528,13.923,1.644,2.606,5.799.2,4.145-2.423-4.333-6.868-6.14-15.479-6.765-23.483-.547-6.998.252-14.172,1.471-21.059.745-4.208,1.71-8.385,2.989-12.464.63-2.008,1.612-4.003,1.983-6.067.442-2.457.916-4.908,1.402-7.356.881-4.442,1.734-8.887,2.579-13.335.612-3.222,1.551-6.397,3.09-9.283,3.591-6.734,9.96-10.593,17.281-12.427,2.995-.75,1.726-5.381-1.276-4.629h0Z"/><path class="g" d="M109.83,258.708c-3.562-6.036-5.042-13.426-6.148-20.271-.229-1.421-.325-1.965-.383-3.497-.058-1.521-.012-3.046.075-4.565.196-3.415.608-6.818,1.132-10.197.493-3.177,1.054-6.354,1.814-9.479l-4.387.573c2.502,4.515,4.364,9.472,6.413,14.201,2.656,6.13,5.938,12.271,7.37,18.827.765,3.504.697,7.326-1.247,10.461-.313.504-.586.825-1.09,1.296-.295.276-.801.62-1.411.97-1.264.724-2.635,1.509-4.045,1.878-2.134.559-4.393.405-6.506,1.078-1.987.633-3.861,1.795-4.799,3.726-1.704,3.507-.584,8.224,2.346,10.747,1.612,1.389,3.644,2.029,5.755,1.649,2.186-.394,3.881-1.952,5.809-2.934,3.704-1.888,7.665-3.235,11.067-5.686,3.65-2.629,6.11-6.157,7.807-10.298,1.765-4.308,1.943-8.662,1.213-13.212-1.354-8.443-4.984-16.331-8.799-23.91-1.895-3.764-3.866-7.49-5.692-11.289-.86-1.79-1.699-3.593-2.45-5.431-.371-.909-.728-1.824-1.064-2.746-.276-.757-.387-.825-.404-1.595-.117-5.533.644-11.108,1.57-16.507.562-3.277,1.239-6.539,2.106-9.75.399-1.48.839-2.95,1.344-4.398.478-1.372.811-2.234,1.39-3.419.49-1.002,1.044-1.971,1.714-2.865.778-1.038.167-2.682-.861-3.284-1.227-.718-2.504-.179-3.284.861-3.265,4.355-4.665,10.303-5.841,15.515-1.392,6.169-2.333,12.487-2.773,18.797-.155,2.217-.601,5.05.148,7.186,1.339,3.818,3.012,7.517,4.789,11.149,3.591,7.341,7.702,14.47,10.549,22.151,1.388,3.744,2.511,7.633,3.05,11.597.576,4.235-.321,8.263-2.396,11.983-1.963,3.518-4.766,5.759-8.309,7.591-1.818.94-3.696,1.741-5.558,2.587-.895.407-1.792.824-2.646,1.314-.943.541-1.818,1.32-2.831,1.727-2.608,1.051-4.096-2.736-3.67-4.781.34-1.634,2.257-2.012,3.689-2.234,2.168-.336,4.304-.375,6.362-1.227,2.762-1.143,5.569-2.656,7.376-5.098,2.219-2.999,3.067-7.11,2.818-10.78-.507-7.474-4.254-14.309-7.156-21.068-2.172-5.06-4.34-10.13-6.678-15.116-.329-.701-.655-1.407-1.03-2.085-.986-1.78-3.901-1.425-4.387.573-1.557,6.405-2.54,13.052-3.029,19.621-.236,3.169-.263,6.292.202,9.44.512,3.466,1.202,6.911,2.085,10.302,1.105,4.246,2.497,8.549,4.737,12.345,1.569,2.659,5.72.246,4.145-2.423h0Z"/><path class="g" d="M92.628,240.389c2.721-.164,5.437-.4,8.146-.709.657-.075,1.212-.218,1.697-.703.416-.416.73-1.099.703-1.697-.028-.621-.232-1.264-.703-1.697-.438-.402-1.078-.773-1.697-.703-2.709.309-5.425.545-8.146.709-1.251.075-2.46,1.05-2.4,2.4.055,1.236,1.058,2.481,2.4,2.4h0Z"/><path class="g" d="M116.666,236.845c.113-.049.227-.097.34-.145l-.573.242c2.012-.843,4.09-1.514,6.215-2.007,1.224-.284,2.064-1.754,1.676-2.952-.414-1.279-1.641-1.98-2.952-1.676-2.455.569-4.815,1.398-7.128,2.394-.513.221-.962.922-1.103,1.434-.158.574-.087,1.339.242,1.849.33.512.822.964,1.434,1.103l.638.086c.433-.001.837-.111,1.211-.328h0Z"/><path class="g" d="M192.083,217.996c1.178-7.927,1.565-15.954,1.149-23.958-.4-7.68-1.441-15.457-3.74-22.815-1.114-3.564-2.541-7.078-4.477-10.278-1.597-2.639-5.75-.23-4.145,2.423,3.337,5.514,5.045,11.901,6.175,18.197,1.332,7.423,1.724,15.027,1.492,22.558-.13,4.213-.462,8.428-1.082,12.598-.19,1.28.32,2.58,1.676,2.952,1.132.311,2.761-.386,2.952-1.676h0Z"/><path class="g" d="M199.955,219.101c2.199-11.014,2.932-22.276,1.521-33.44-.645-5.099-1.605-10.178-2.998-15.129-1.126-4.002-3.518-7.582-6.52-10.427-4.023-3.812-9.075-6.383-14.414-7.782-2.991-.783-4.267,3.845-1.276,4.629,7.328,1.919,15.095,6.807,17.425,14.315,2.812,9.063,3.915,18.862,3.711,28.323-.132,6.135-.875,12.221-2.076,18.235-.254,1.27.363,2.592,1.676,2.952,1.182.325,2.697-.399,2.952-1.676h0Z"/><path class="g" d="M104.525,263.265c.795,1.927,1.339,3.942,1.625,6.006l-.086-.638c.083.624.143,1.249.18,1.877.074,1.251,1.051,2.46,2.4,2.4,1.237-.055,2.479-1.058,2.4-2.4-.173-2.923-.773-5.812-1.89-8.522-.249-.603-.517-1.091-1.103-1.434-.514-.301-1.273-.429-1.849-.242-.581.188-1.141.548-1.434,1.103-.28.531-.482,1.267-.242,1.849h0Z"/><path class="g" d="M118.459,270.112c.163.069.308.156.463.239.352.187-.237-.258.021.018.127.136.259.266.383.406-.329-.373-.046-.046.023.062.104.166.19.339.282.512.207.386-.087-.324.022.063.052.186.117.366.159.555.112.496.061.034.019.021.046.014.014.481.016.535.016.414.117-.388.007-.03-.17.557.227-.286-.022.129-.087.144-.168.291-.26.432.242-.374-.152.154-.23.229-.101.098-.389.326-.111.121-.35.26-.732.441-1.112.649-.131.059-.104.05.079-.029-.108.043-.216.084-.325.123-.19.068-.383.129-.577.185-.214.062-.429.118-.646.166-.134.03-.268.057-.403.08.16-.016.168-.018.024-.004-.239.023-.474.018-.713.02-.255-.021-.271-.02-.048.003-.087-.016-.172-.036-.257-.06-.095-.025-.649-.251-.263-.068-.186-.088-.366-.187-.54-.297-.075-.046-.149-.095-.221-.147.166.137.161.133-.017-.014-.156-.139-.309-.277-.455-.427-.144-.149-.284-.303-.413-.465.177.224-.187-.282-.226-.341-.541-.832-.958-1.736-1.372-2.635-.439-.953-1.889-1.264-2.736-.718-.983.634-1.187,1.717-.718,2.736.791,1.716,1.67,3.509,3.16,4.735.796.656,1.652,1.19,2.653,1.475,1.118.319,2.281.249,3.408.025,1.751-.348,3.602-1.138,4.834-2.467,1.316-1.42,1.746-3.152,1.323-5.029-.381-1.688-1.546-3.55-3.191-4.245-.961-.406-2.188-.321-2.736.718-.452.856-.312,2.302.718,2.736h0Z"/><path class="g" d="M180.362,52.096c9.001,6.957,15.189,17.419,16.505,28.773.149,1.287.996,2.4,2.4,2.4,1.181,0,2.55-1.104,2.4-2.4-1.459-12.583-7.847-24.388-17.911-32.167-1.024-.792-2.396-.999-3.394,0-.826.826-1.032,2.597,0,3.394h0Z"/><path class="g" d="M209.976,83.086c1.085-6.951,1.552-14.168,1.311-21.202-.271-7.89-2.027-15.908-4.717-23.313-2.674-7.361-6.407-14.57-11.889-20.248-4.284-4.437-9.176-8.558-14.581-11.56-5.471-3.038-11.498-4.835-17.674-5.72-8.277-1.187-16.893-1.501-25.17-.208-14.233,2.224-27.934,9.811-36.991,21.075-5.115,6.361-8.888,13.706-11.093,21.567s-2.668,15.931-1.94,24.028c.215,2.391.524,4.776.979,7.134.246,1.273,1.773,2,2.952,1.676,1.332-.366,1.923-1.675,1.676-2.952-2.927-15.159-.492-31.179,8.024-44.181,7.382-11.271,19.085-19.193,32.087-22.561,7.87-2.039,16.028-2.066,24.087-1.395,5.859.488,12.043,1.665,17.268,3.997,5.112,2.282,9.512,5.503,13.591,9.233,2.402,2.196,4.722,4.482,6.636,7.125,2.188,3.021,4.012,6.299,5.554,9.692,3.147,6.929,5.169,14.532,6.034,22.088.755,6.591.385,13.32-.231,19.908-.142,1.518-.308,3.034-.543,4.541-.2,1.279.326,2.581,1.676,2.952,1.139.313,2.751-.388,2.952-1.676h0Z"/><path class="g" d="M88.22,74.831c.472,2.573,1.14,5.125,1.889,7.63.359,1.202,1.7,2.081,2.952,1.676,1.215-.393,2.061-1.664,1.676-2.952-.749-2.505-1.417-5.057-1.889-7.63-.103-.562-.627-1.156-1.103-1.434-.514-.301-1.273-.429-1.849-.242-.581.188-1.141.548-1.434,1.103-.316.599-.364,1.183-.242,1.849h0Z"/><path class="g" d="M191.257,234.1c-.378-.072-.741-.218-1.066-.45-1.394-.996-1.518-3.002-1.151-4.547.18-.758,1.252-3.098,4.111-2.314,1.854.508,2.417,2.57,2.09,4.281-.351,1.838-1.785,3.447-3.985,3.03Z"/><path class="h" d="M23.401,202.704c-.479.041-.838.071-1.056.089.134.849.452,5.859.791,8.696l.096,1.287c9.021.029,21.537-1.717,30.944-3.488-.208-.902-.348-1.541-.348-1.541-.438-2.351-1.024-6.673-1.377-8.463-7.418,1.54-24.251,3.012-29.049,3.419Z"/><path class="g" d="M25.536,211.489c-.361-3.103-.436-6.242-.876-9.334l-2.314,3.038c4.353-.368,8.704-.762,13.05-1.211,5.904-.611,11.873-1.189,17.693-2.383l-2.952-1.676c.54,2.807.863,5.651,1.377,8.463.234,1.276,1.781,1.998,2.952,1.676,1.341-.369,1.91-1.673,1.676-2.952-.515-2.811-.837-5.656-1.377-8.463-.256-1.332-1.765-1.92-2.952-1.676-5.547,1.138-11.063,1.661-16.732,2.244-4.241.436-8.487.82-12.735,1.179-1.698.144-2.546,1.41-2.314,3.038-.134-.942-.023-.129-.007.071.025.309.055.618.081.928.059.711.115,1.422.173,2.132.134,1.644.268,3.288.459,4.927.15,1.287.996,2.4,2.4,2.4,1.181,0,2.551-1.104,2.4-2.4h0Z"/><path class="g" d="M64.731,252.786c-2.073-14.658-3.494-29.39-5.02-44.111-.167-1.615-1.393-2.648-3.038-2.314-6.187,1.256-12.429,2.281-18.699,3.017-6.048.71-12.212,1.287-18.304.879-1.278-.085-2.423,1.169-2.4,2.4.194,10.295.273,20.594.78,30.88.481,9.761,1.028,19.804,3.305,29.34,1.967,8.235,5.763,16.048,12.701,21.181,7.742,5.728,18.104,7.503,27.333,4.879,9.137-2.597,16.928-8.96,24.543-14.375,1.055-.75,1.557-2.094.861-3.284-.61-1.043-2.222-1.616-3.284-.861-6.455,4.59-12.93,9.792-20.308,12.835-8.126,3.351-17.191,2.544-24.695-1.985-6.627-3.999-10.223-10.939-12.156-18.214-2.337-8.795-2.87-18.116-3.375-27.164-.618-11.067-.695-22.154-.903-33.234l-2.4,2.4c6.223.416,12.525-.188,18.701-.926,6.563-.785,13.1-1.826,19.578-3.141l-3.038-2.314c1.569,15.15,3.057,30.303,5.191,45.387.182,1.285,1.817,1.988,2.952,1.676,1.381-.38,1.859-1.664,1.676-2.952h0Z"/><path class="g" d="M21.333,195.433c.169,1.963.367,3.92.401,5.892.011.622.26,1.255.703,1.697.416.416,1.099.73,1.697.703,1.282-.057,2.423-1.055,2.4-2.4-.033-1.972-.232-3.929-.401-5.892-.056-.647-.23-1.224-.703-1.697-.416-.416-1.099-.73-1.697-.703-.621.028-1.264.232-1.697.703-.409.446-.757,1.07-.703,1.697h0Z"/><path class="g" d="M47.225,192.023c-.004,1.53-.189,3.07-.392,4.585l.086-.638c-.088.646-.182,1.292-.319,1.929-.135.631-.091,1.281.242,1.849.291.498.862.973,1.434,1.103,1.207.275,2.671-.363,2.952-1.676.27-1.262.418-2.555.559-3.836.122-1.099.234-2.209.237-3.317.003-1.255-1.106-2.458-2.4-2.4-1.303.058-2.397,1.054-2.4,2.4h0Z"/><path class="g" d="M35.151,153.039c-2.92-6.268-5.977-12.478-9.14-18.626-1.005-1.953-1.948-4.017-3.171-5.849-2.433-3.645-7.509-4.688-10.404-.933-1.27,1.648-1.809,3.691-1.411,5.734.382,1.963,1.122,3.899,1.871,5.746.487,1.2,1.598,2.048,2.952,1.676,1.138-.313,2.166-1.744,1.676-2.952-.599-1.477-1.136-2.986-1.567-4.522-.08-.284-.157-.568-.223-.855-.075-.325-.025-.786-.08-.306.054-.466.098-.842.376-1.313,1.212-2.052,2.716.173,3.391,1.381,2.605,4.661,4.936,9.487,7.286,14.28,1.458,2.975,2.899,5.958,4.298,8.961.547,1.175,2.239,1.472,3.284.861,1.205-.705,1.41-2.104.861-3.284h0Z"/><path class="g" d="M26.235,157.439c-1.916-4.806-3.955-9.577-6.152-14.262-.75-1.6-1.495-3.23-2.45-4.72-1.785-2.783-3.595-5.475-7.234-5.549-4.101-.083-6.322,3.604-5.774,7.374.301,2.068,1.215,3.951,2.051,5.847,1.74,3.947,3.503,7.883,5.25,11.827,1.233,2.784,2.431,5.584,3.641,8.378.515,1.19,2.261,1.459,3.284.861,1.229-.719,1.378-2.089.861-3.284-2.389-5.517-4.815-11.016-7.255-16.511-.698-1.572-1.397-3.143-2.087-4.718-.093-.213-.188-.425-.279-.64-.029-.069-.164-.413-.012-.03-.092-.232-.183-.465-.266-.701-.294-.838-1.048-2.739-.126-3.472.449-.357,1.171-.181,1.668.148.902.596,1.559,1.999,2.132,2.893.852,1.328,1.526,2.768,2.201,4.191,2.124,4.476,4.083,9.042,5.917,13.644.48,1.203,1.604,2.047,2.952,1.676,1.144-.314,2.159-1.741,1.676-2.952h0Z"/><path class="g" d="M20.618,165.664c-1.734-2.594-3.526-5.148-5.258-7.743-.872-1.306-1.728-2.622-2.554-3.957-.689-1.113-1.351-2.29-2.304-3.205-1.963-1.886-5.187-2.691-7.572-1.105-2.451,1.63-3.435,5.16-2.682,7.905.799,2.915,2.749,5.667,4.21,8.286,1.499,2.687,3.033,5.356,4.517,8.052,1.32,2.398,2.543,4.844,3.932,7.202,1.15,1.952,2.287,3.912,3.408,5.881,1.174,2.062,2.337,4.131,3.447,6.228.41.774.815,1.551,1.192,2.341.078.165.153.331.231.496.207.436-.146-.459-.007-.025.06.186.138.36.178.553.629,3.022,5.257,1.743,4.629-1.276-.211-1.016-.798-2.012-1.261-2.934-.767-1.53-1.591-3.032-2.421-4.528-1.926-3.474-3.916-6.914-5.944-10.329-1.318-2.221-2.432-4.578-3.686-6.839-1.344-2.422-2.721-4.826-4.071-7.245-.657-1.178-1.297-2.365-1.954-3.543-.639-1.144-1.436-2.315-1.772-3.597-.312-1.187.21-3.194,1.699-2.487.947.45,1.437,1.539,1.96,2.387.825,1.338,1.679,2.658,2.55,3.966,1.773,2.661,3.61,5.279,5.388,7.937,1.709,2.555,5.868.155,4.145-2.423h0Z"/><path class="g" d="M49.364,193.739c3.543-2.778,7.134-5.643,9.13-9.795,2.201-4.576,3.217-9.584,4.37-14.494.538-2.292,1.034-4.593,1.353-6.927.308-2.251.569-4.583-.692-6.621-1.29-2.087-3.591-2.439-5.85-2.097-2.213.335-3.553,2.074-4.629,3.901-1.221,2.074-2.122,4.32-3.361,6.384-.783,1.304-1.73,3.028-3.412,2.952-1.561-.071-2.033-1.733-2.217-3.048-.245-1.75-.352-3.955.871-5.382s2.026-.961,3.628-.515c1.889.526,3.832,1.049,5.752.359,3.659-1.317,5.853-6.695,2.587-9.556-1.668-1.461-3.788-2.273-5.702-3.345-2.564-1.435-5.027-2.568-8.032-2.078-2.705.441-5.22,2.022-7.123,3.951-1.778,1.802-3.451,3.722-4.821,5.855-1.674,2.607,2.479,5.017,4.145,2.423,1.05-1.636,2.328-3.019,3.65-4.436,1.353-1.451,3.016-2.753,5.026-3.094,2.025-.344,3.785,1.028,5.472,1.935,1.295.696,2.899,1.294,3.991,2.184.553.451.131.34.202.066.126-.485-.086.601-.019.238-.085.461-.295.898-.569,1.118-.374.3-.93.31-1.142.283-.888-.114-1.777-.43-2.636-.669-1.885-.526-3.556-.707-5.39.14-1.896.875-3.29,2.496-4.075,4.404-1.417,3.447-1.046,8.944,1.531,11.803,2.968,3.293,8.017,2.547,10.656-.673,1.406-1.715,2.426-3.615,3.413-5.59.52-1.04,1.032-2.086,1.611-3.095.245-.427.495-.883.797-1.273.086-.111.763-.699.285-.457.405-.206,1.059-.051,1.356-.104.615-.109-.088.149-.17-.181.021.086.179.217.196.318.046.266.147.531.165.787.139,1.895-.442,4.011-.824,5.848-1.046,5.022-2.104,10.205-3.989,14.989-1.752,4.445-5.276,7.234-8.93,10.099-1.021.8-.839,2.555,0,3.394,1.008,1.008,2.371.802,3.394,0h0Z"/><g id="e"><path class="g" d="M146.371,88.272c.421-.104.845-.198,1.272-.276.183-.033.366-.061.549-.091.622-.1-.53.047.098-.01.801-.073,1.599-.125,2.404-.111.37.007.741.024,1.11.052.216.016.431.037.646.061.092.01.184.021.276.032-.331-.046-.36-.048-.087-.008.796.141,1.58.302,2.359.523,1.207.344,2.666-.42,2.952-1.676.291-1.278-.384-2.584-1.676-2.952-3.642-1.038-7.506-1.083-11.179-.172-1.219.302-2.068,1.741-1.676,2.952.409,1.263,1.646,2,2.952,1.676h0Z"/><path class="g" d="M190.507,84.496c.297-.055.594-.103.893-.144l-.638.086c1.116-.146,2.242-.181,3.365-.106.589.04,1.29-.296,1.697-.703.416-.416.73-1.099.703-1.697-.028-.621-.232-1.264-.703-1.697l-.486-.375c-.374-.217-.778-.326-1.211-.328-1.64-.11-3.282.034-4.897.335-.563.105-1.155.625-1.434,1.103-.301.514-.429,1.273-.242,1.849.188.581.548,1.141,1.103,1.434l.573.242c.425.114.851.114,1.276,0h0Z"/><path class="g" d="M113.29,79.868c-1.615-.301-3.256-.445-4.897-.335-.641.043-1.233.239-1.697.703-.416.416-.73,1.099-.703,1.697.028.621.232,1.264.703,1.697.451.414,1.064.745,1.697.703,1.123-.075,2.249-.04,3.365.106l-.638-.086c.299.041.597.088.893.144.645.12,1.266.099,1.849-.242.498-.291.973-.862,1.103-1.434.14-.614.11-1.304-.242-1.849-.322-.5-.827-.99-1.434-1.103h0Z"/><path class="g" d="M147.546,83.264c-.324-1.976-1.077-3.728-2.728-4.934-1.596-1.166-3.673-1.598-5.574-1.99-4.14-.855-8.419-1.09-12.634-.804-3.963.269-8.349.825-11.965,2.571-3.692,1.782-4.411,5.39-4.526,9.13-.101,3.295.027,6.743,1.434,9.781,1.608,3.474,5.282,5.017,8.814,5.819,3.874.88,7.868.879,11.816.723,3.62-.143,7.657-.097,10.745-2.283,5.579-3.949,5.553-11.95,4.617-18.014-.198-1.282-1.806-1.991-2.952-1.676-1.369.376-1.875,1.666-1.676,2.952.535,3.467.739,8.73-1.549,11.693-1.473,1.907-4.009,2.287-6.366,2.406-3.136.158-6.295.321-9.432.118-2.748-.178-6.296-.583-8.547-2.333-1.732-1.346-1.992-3.978-2.093-6.005-.061-1.224-.04-2.451.005-3.675.041-1.105-.023-2.479.657-3.422.763-1.058,2.297-1.385,3.465-1.707,1.63-.45,3.298-.805,4.975-1.029,3.641-.487,7.409-.501,11.057-.087,1.83.208,3.656.581,5.424,1.093.577.167,1.228.321,1.674.754.548.531.611,1.479.728,2.194.21,1.28,1.798,1.994,2.952,1.676,1.36-.374,1.887-1.668,1.676-2.952Z"/><path class="g" d="M158.953,84.54c.208-1.266.351-2.196,1.608-2.697,1.569-.626,3.36-.909,5.023-1.171,3.367-.531,6.853-.561,10.246-.295,2.984.234,6.389.648,9.142,1.886,2.477,1.114,2.176,3.86,2.196,6.188.019,2.279.034,5.057-1.275,7.035-1.418,2.143-4.912,2.715-7.252,3.06-3.07.453-6.222.331-9.311.203-2.516-.104-5.764.034-7.798-1.502-3.479-2.628-3.157-8.966-2.579-12.706.198-1.279-.325-2.581-1.676-2.952-1.138-.313-2.753.388-2.952,1.676-.851,5.5-.955,12.163,2.987,16.581,2.428,2.721,6.145,3.422,9.622,3.598,3.813.193,7.669.398,11.47-.062,3.636-.44,8.136-1.311,10.683-4.201,2.267-2.573,2.789-6.167,2.872-9.477.084-3.381.21-7.478-2.365-10.04-2.746-2.733-7.475-3.317-11.135-3.803-4.7-.624-9.469-.562-14.151.184-2.164.345-4.499.759-6.458,1.785-2.126,1.113-3.148,3.147-3.525,5.436-.21,1.277.334,2.583,1.676,2.952,1.147.315,2.741-.39,2.952-1.676Z"/></g><g id="f"><path class="g" d="M141.617,122.048c2.915,1.539,6.053,2.185,9.349,2.163,3.356-.022,6.741-.684,9.428-2.778,1.023-.797.837-2.557,0-3.394-1.01-1.01-2.368-.799-3.394,0,.726-.566.155-.128-.031-.008-.188.12-.382.232-.579.335-.163.086-.874.368-.22.126-.266.099-.528.203-.799.29-.728.234-1.479.399-2.235.51.351-.052-.086.006-.222.02-.219.022-.439.04-.659.054-.529.034-1.059.048-1.589.044-.475-.003-.949-.019-1.423-.051-.217-.015-.435-.032-.652-.054-.018-.002-.799-.11-.323-.035-.705-.111-1.404-.259-2.088-.464-.293-.087-.578-.192-.866-.291-.616-.211.344.179-.212-.083-.358-.169-.711-.345-1.061-.53-1.146-.605-2.61-.291-3.284.861-.634,1.084-.289,2.676.861,3.284h0Z"/><path class="g" d="M149.761,100.005c.408,1.557.8,3.138,1.034,4.732l-.086-.638c.028.218.04.434.018.653l.086-.638c-.015.102-.038.197-.072.294l.242-.573c-.03.069-.062.127-.104.189l.375-.486c-.049.059-.095.104-.155.152l.486-.375c-.12.077-.246.139-.375.198l.573-.242c-.206.086-.411.149-.632.184l.638-.086c-.199.024-.394.022-.593-.001l.638.086c-.224-.031-.443-.086-.667-.116-.319-.1-.638-.114-.957-.043-.319.014-.617.109-.892.285-.498.291-.973.862-1.103,1.434-.14.614-.11,1.304.242,1.849.312.484.835,1.022,1.434,1.103.507.068.998.197,1.513.22.789.035,1.523-.207,2.227-.529.87-.398,1.549-1.179,1.78-2.116.196-.793.112-1.488-.023-2.282-.258-1.525-.61-3.035-1.002-4.531-.318-1.214-1.729-2.072-2.952-1.676-1.25.404-2.018,1.651-1.676,2.952h0Z"/><path class="g" d="M124.916,86.713c-.759,2.465-.264,8.137,4.406,8.619,6.173-.037,6.502-6.894,4.424-10.117-1.701-2.64-6.704-3.737-8.83,1.498Z"/><path class="g" d="M176.005,86.713c.759,2.465.264,8.137-4.406,8.619-6.173-.037-6.502-6.894-4.424-10.118,1.701-2.639,6.704-3.737,8.83,1.499Z"/></g></g></g></svg>