<?xml version="1.0" encoding="UTF-8"?><svg id="b" xmlns="http://www.w3.org/2000/svg" width="338.847" height="202.275" viewBox="0 0 338.847 202.275"><defs><style>.d{fill:#fff;}.e{fill:none;}.f{fill:#7abee6;}.g{fill:#211715;}.h{fill:#c6c6c6;}.i{fill:#645d5c;}.j{fill:#febe69;}</style></defs><g id="c"><path class="d" d="M231.044,120.577c-3.384,13.098-17.309,55.691-21.861,65.382h-1.269c-4.56-9.691-18.511-52.282-21.901-65.381"/><path class="d" d="M137.419,200.177c-1.667,0-3.339,0-5.015,0v-16.781c1.066-21.736,4.441-38.827,18.045-49.727,7.683-6.156,18.653-9.499,31.922-11.325l3.964-.546c3.872,14.329,17.151,54.752,21.579,64.16h1.269c4.416-9.401,17.652-49.766,21.53-64.129,2.142.297,3.724.515,3.724.515,13.268,1.827,24.239,5.169,31.922,11.325,13.604,10.9,16.979,27.991,18.045,49.727,0,0,0,8.679,0,16.78-36.667,0-89.242,0-146.985,0Z"/><path class="d" d="M244.888,60.521c1.124-1.015,2.792-1.506,4.35-1.273s2.978,1.173,3.691,2.454c.504.898.667,1.922.76,2.92.341,3.935-.434,7.945-2.218,11.53-.869,1.747-2.001,3.419-3.575,4.692-1.209.964-2.689,1.68-4.262,1.921l-.73.112c-.35,1.31-.743,2.413-.936,2.998-.889,2.413-4.705,9.08-10.012,14.231-2.137,2.074-4.516,3.903-7.042,5.109.073,1.944.272,3.875.58,5.797-4.701,3.72-9.8,6.804-14.819,9.956-.313.196-.597.332-.745.7l-3.065.006c-.108-.353-.426-.517-.743-.707-4.414-2.643-9.064-5.752-13.507-8.997.376-2.139.627-3.859.72-6.171-4.302-1.781-8.236-4.887-11.724-9.062-3.718-4.45-5.817-9.401-7.049-13.76-.695-.108-1.39-.214-1.39-.214-1.573-.242-3.053-.957-4.262-1.921-1.574-1.273-2.706-2.945-3.575-4.692-1.784-3.586-2.559-7.595-2.218-11.53.093-.998.256-2.022.76-2.92.713-1.281,2.133-2.221,3.691-2.454s3.226.258,4.35,1.273c0,0-7.054-30.607,37.515-30.607s35.453,30.607,35.453,30.607Z"/><path class="e" d="M193.29,106.734c-.121,1.896-.357,3.444-.686,5.321-.439,2.506-.302,4.746-3.786,6.005-.231.083-11.252,5.238-11.923,5.467"/><path class="e" d="M224.954,106.063c.113,2.01.357,4.004.706,5.993.439,2.506.302,4.746,3.786,6.005.231.083,10.113,4.785,10.466,4.93"/><path class="g" d="M134.404,183.396c.561-11.257,1.514-23.136,6.195-33.55,4.272-9.504,11.709-16.616,21.393-20.479,6.684-2.667,13.805-4.105,20.91-5.094,1.071-.149,1.656-1.516,1.397-2.46-.317-1.153-1.386-1.546-2.46-1.397-12.269,1.708-25.164,4.846-34.597,13.364-8.17,7.378-12.444,17.741-14.523,28.357-1.371,7.002-1.961,14.142-2.316,21.26-.128,2.573,3.872,2.566,4,0h0Z"/><path class="g" d="M233.905,124.273c11.5,1.601,23.959,4.323,32.831,12.335,7.697,6.951,11.538,16.603,13.494,26.592,1.303,6.654,1.836,13.433,2.173,20.196.128,2.562,4.128,2.577,4,0-.599-12.026-1.749-24.462-6.741-35.569-4.6-10.234-12.771-17.774-23.092-22.036-6.884-2.843-14.25-4.351-21.601-5.375-1.068-.149-2.148.26-2.46,1.397-.257.935.32,2.31,1.397,2.46h0Z"/><path class="g" d="M241.579,78.718c-.076,1.977-.629,3.89-1.247,5.758-.135.408-.27.813-.426,1.213.214-.548-.049.098-.098.201-.101.21-.201.42-.305.627-1.143,2.276-2.537,4.435-4.036,6.49-3.559,4.88-8.391,10.053-14.491,11.477-2.506.585-1.445,4.443,1.063,3.857,5.499-1.284,10.104-5.206,13.738-9.361,2.949-3.372,5.73-7.186,7.583-11.287,1.257-2.783,2.101-5.926,2.218-8.975.1-2.574-3.901-2.57-4,0h0Z"/><path class="g" d="M171.463,78.293c1.287,7.388,4.114,14.443,9.012,20.19,4.975,5.839,11.549,10.115,19.278,10.937,1.076.114,2-1.001,2-2,0-1.176-.921-1.885-2-2-6.783-.721-12.477-4.985-16.727-10.093-4.282-5.147-6.57-11.573-7.706-18.097-.185-1.065-1.491-1.663-2.46-1.397-1.125.309-1.583,1.392-1.397,2.46h0Z"/><path class="g" d="M201.671,92.394c2.217,1.171,4.604,1.666,7.111,1.65,2.577-.017,5.15-.536,7.211-2.141.829-.646.729-2.159,0-2.828-.88-.807-1.944-.689-2.828,0,.616-.48.175-.139.017-.038-.141.09-.286.174-.434.252-.077.04-.156.076-.233.116-.168.086-.312.039.115-.042-.198.037-.406.156-.599.218-.547.176-1.109.294-1.676.383.303-.047.051-.009-.113.008-.164.016-.329.03-.494.041-.397.026-.794.036-1.191.033-.356-.002-.712-.014-1.067-.038-.163-.011-.326-.024-.489-.041-.054-.005-.649-.104-.189-.019-.528-.097-1.05-.193-1.566-.348-.219-.066-.433-.144-.65-.218-.496-.169.337.169-.111-.042-.269-.127-.533-.259-.796-.397-.925-.488-2.217-.265-2.736.718-.488.924-.27,2.215.718,2.736h0Z"/><path class="g" d="M207.686,75.746c.306,1.167.6,2.353.776,3.548l-.071-.532c.021.164.03.325.013.49l.071-.532c-.012.076-.028.147-.054.22l.202-.478c-.023.051-.046.095-.078.142l.313-.405c-.036.044-.071.078-.116.114l.405-.313c-.09.058-.184.104-.281.149l.478-.202c-.155.065-.308.112-.474.138l.532-.071c-.149.018-.295.017-.445,0l.532.071c-.168-.023-.332-.064-.5-.087-.266-.083-.532-.095-.798-.036-.266.012-.514.091-.744.237-.415.243-.811.718-.919,1.195-.117.512-.091,1.087.202,1.541.26.403.695.852,1.195.919.398.054.783.154,1.188.172.629.028,1.211-.167,1.771-.424.697-.32,1.242-.957,1.427-1.706.157-.636.091-1.18-.017-1.818-.193-1.143-.457-2.276-.751-3.397-.127-.483-.49-.944-.919-1.195s-1.061-.357-1.541-.202c-1.042.337-1.681,1.376-1.397,2.46h0Z"/><path class="g" d="M189.098,65.649c-.593,1.926-.206,6.355,3.442,6.732,4.822-.029,5.078-5.384,3.455-7.902-1.329-2.062-5.236-2.919-6.897,1.17Z"/><path class="g" d="M227.709,65.649c.593,1.926.207,6.355-3.441,6.732-4.822-.029-5.078-5.384-3.455-7.902,1.329-2.062,5.236-2.919,6.897,1.17Z"/><path class="g" d="M229.115,120.046c-2.179,8.409-4.886,16.696-7.549,24.961-3.207,9.956-6.509,19.889-10.088,29.719-.748,2.054-1.509,4.102-2.307,6.137-.328.837-.663,1.671-1.009,2.5-.136.325.111-.253-.072.169-.068.156-.135.313-.203.468-.14.318-.283.635-.43.95l1.727-.991h-1.269l1.727.991c-.252-.538-.491-1.082-.725-1.628-.151-.352.106.257-.046-.11-.075-.182-.151-.364-.225-.546-.148-.362-.295-.725-.439-1.088-.706-1.772-1.38-3.557-2.042-5.346-1.67-4.518-3.258-9.067-4.817-13.624-3.441-10.063-6.744-20.176-9.862-30.344-1.243-4.053-2.479-8.113-3.544-12.217-.646-2.49-4.506-1.434-3.857,1.063,2.209,8.509,4.957,16.895,7.659,25.257,3.223,9.975,6.538,19.929,10.141,29.775,1.332,3.64,2.659,7.313,4.304,10.827.291.621,1.072.991,1.727.991h1.269c.654,0,1.437-.369,1.727-.991,3.454-7.391,5.949-15.303,8.582-23.01,3.457-10.116,6.772-20.283,9.903-30.504,1.254-4.095,2.502-8.199,3.577-12.346.646-2.494-3.211-3.557-3.857-1.063h0Z"/><path class="g" d="M197.045,182.035c-7.33-12.706-14.571-25.475-21.258-38.533-1.174-2.292-4.626-.27-3.454,2.019,6.687,13.059,13.928,25.827,21.258,38.533,1.286,2.229,4.744.217,3.454-2.019h0Z"/><path class="g" d="M239.68,154.675c1.777-3.248,3.53-6.509,5.233-9.796.407-.785.812-1.572,1.216-2.359.467-.909,1.073-1.85,1.335-2.843.633-2.408-1.563-4.137-3.061-5.65-1.814-1.832-4.642.996-2.828,2.828.618.625,1.193,1.365,1.86,1.933.482.411-.028.194.14-.041-.219.307-.363.71-.535,1.046-.734,1.432-1.47,2.863-2.214,4.29-1.5,2.875-3.041,5.729-4.597,8.574-1.236,2.259,2.217,4.28,3.454,2.019h0Z"/><path class="g" d="M223.146,184.054c2.579-4.471,5.132-8.957,7.612-13.483.519-.947.233-2.181-.718-2.736-.915-.535-2.216-.233-2.736.718-2.48,4.527-5.033,9.013-7.612,13.483-.54.936-.218,2.189.718,2.736s2.195.221,2.736-.718h0Z"/><path class="j" d="M248.881,152.306s-9.822,0-19.417,0v7.581s9.822,0,19.417,0c0-3.743,0-7.581,0-7.581Z"/><path class="g" d="M247.687,150.306c-4.78,0-9.561,0-14.341,0-1.377,0-3.14-.296-4.363.478-.988.624-1.476,1.655-1.519,2.799-.048,1.287,0,2.585,0,3.873,0,1.761.207,3.617,2.197,4.266.824.269,1.783.166,2.64.166,1.018,0,2.036,0,3.054,0,2.836,0,5.673,0,8.509,0,1.34,0,2.725.097,4.061-.024,1.695-.155,2.88-1.494,2.957-3.174.058-1.256,0-2.528,0-3.785,0-.465.021-.936,0-1.401-.086-1.869-1.403-3.017-3.194-3.198-1.076-.109-2,.997-2,2,0,1.172.921,1.891,2,2-.821-.083-.806-1.369-.806-.287v1.606c0,.555,0,1.109,0,1.664,0,.312-.134,1.005,0,1.292.124.264.1-.324.235-.458l.567-.235c-.257,0-.513,0-.77,0s-.512,0-.768,0c-1.257,0-2.514,0-3.77,0-2.242,0-4.485,0-6.727,0-1.532,0-3.063,0-4.595,0-.081,0-.336-.044-.394,0,.303-.225.944.646.806.802.023-.026-.006-.18,0-.213.081-.418,0-.938,0-1.362,0-1.083.113-2.233,0-3.31-.004-.04.027-.25,0-.278-.116-.12,3.446-3.136-.235.545-.561.562-.75.129-.182.235.591.111,1.31,0,1.918,0,.693,0,1.385,0,2.078,0,4.215,0,8.43,0,12.644,0,2.574,0,2.578-4,0-4Z"/><path class="f" d="M181.862,122.244c2.148-1.415,4.245-3.338,6.202-5.899-.259-.612-.462-1.226-.56-1.793-.304-1.756-.277-3.452.378-5.104-1.727-6.924-8.374-10.569-12.211-11.241-6.55-1.178-12.952-3.214-19.059-4.798-.342-.076-.697.253-.735.608-.367,3.611-.908,7.066.473,9.524.907,1.616.91,1.868,3.894,3.984-3.105,1.213-6.335,2.01-9.562,2.825-1.597.404-2.42,2.24-1.575,3.654,3.318,5.553,10.54,10.07,16.492,11.238,4.744.919,10.679.677,16.262-2.999Z"/><path class="g" d="M176.425,104.422c-4.995-1.566-9.841-1.386-14.764.419-3.146,1.154-6.239,2.234-9.491,3.069-1.399.359-2.916.57-3.998,1.62-.955.928-1.483,2.262-1.379,3.591.107,1.362.898,2.468,1.695,3.526.893,1.186,1.873,2.291,2.964,3.299,2.058,1.9,4.401,3.529,6.897,4.797,4.319,2.193,9.148,3.316,13.997,2.853,6.271-.598,11.761-3.655,15.917-8.348,1.701-1.921-1.118-4.76-2.828-2.828-3.1,3.501-6.942,6.052-11.574,6.952-3.619.703-7.45.298-10.903-.95-4.24-1.533-8.378-4.336-11.128-7.938-.265-.347-1.193-1.312-1.062-1.81.191-.725,2.127-.819,2.688-.963,2.858-.737,5.643-1.599,8.391-2.678,2.437-.957,4.997-1.74,7.635-1.776,2.029-.028,3.953.419,5.878,1.023,2.462.772,3.515-3.089,1.063-3.857h0Z"/><path class="g" d="M160.4,105.184c-1.39-1.032-2.325-2.061-2.753-3.833-.249-1.03-.211-2.121-.157-3.172.063-1.217.023-2.728.398-3.885l-.514.883-.006-.027-1.009.273c.704-.036,1.683.434,2.357.618.89.242,1.779.489,2.668.735,1.807.5,3.613,1.002,5.427,1.476,1.835.48,3.677.933,5.531,1.331,1.352.29,2.743.465,4.071.858,4.509,1.336,8.341,4.975,9.543,9.549.654,2.487,4.513,1.433,3.857-1.063-1.648-6.266-7.25-11.397-13.61-12.647-4.794-.943-9.495-2.181-14.203-3.484-1.107-.306-2.214-.612-3.323-.909-1.145-.307-2.325-.775-3.442-.125-1.036.602-1.283,1.604-1.404,2.708-.129,1.165-.26,2.332-.329,3.502-.134,2.271.05,4.538,1.122,6.581.925,1.763,2.171,2.909,3.758,4.088.868.645,2.233.142,2.736-.718.596-1.019.152-2.09-.718-2.736h0Z"/><path class="f" d="M227.905,122.058c-5.857,3.387-13.128,4.403-19.045,4.403-7.8,0-13.802-1.771-17.122-3.952-2.979-1.957-4.126-6.874-3.266-14.323l.108-.933c1.837.45,3.674.9,3.674.9,4.183,1.025,11.409,1.966,17.426,1.63,5.765-.321,9.379-1.397,15.639-2.361,1.118-.172,2.493.042,3.333.8,1.924,1.739,2.717,4.27,2.678,7.045-.125,1.459.287,4.302-1.692,5.688-.561.393-1.139.76-1.732,1.102Z"/><path class="g" d="M226.896,120.331c-6.541,3.71-14.534,4.57-21.927,3.977-3.247-.261-6.568-.882-9.59-2.134-2.142-.888-3.599-1.764-4.387-3.912-1.273-3.467-.825-7.43-.412-11.008l-2.532,1.929c6.896,1.69,13.873,2.925,21.011,2.632,3.721-.153,7.389-.772,11.043-1.456,1.871-.35,3.834-.889,5.736-.982,1.564-.076,2.435,1.166,2.959,2.514.614,1.579.543,3.242.489,4.901-.02.628-.034,1.331-.308,1.911-.375.795-1.367,1.207-2.082,1.628-2.216,1.306-.206,4.765,2.019,3.454,1.838-1.083,3.422-2.213,4.034-4.358.423-1.485.421-3.211.375-4.748-.12-3.97-2.13-8.801-6.591-9.266-2.115-.22-4.445.484-6.52.868-1.944.36-3.884.741-5.84,1.034-4.318.648-8.693.656-13.036.266-4.168-.374-8.173-1.263-12.226-2.257-1.376-.337-2.382.631-2.532,1.929-.722,6.252-1.043,14.304,5.368,17.7,6.854,3.631,15.491,4.066,23.046,3.136,4.868-.599,9.633-1.871,13.921-4.304,2.239-1.27.226-4.727-2.019-3.454Z"/><path class="i" d="M252.018,27.287c.078-1.768-.077-3.545-.432-5.217-1.068-5.035-3.503-9.415-7.17-13.027-3.243-3.195-6.148-5.022-10.542-6.212-4.394-1.19-10.514-1.333-14.352,1.115l-1.49.89c-3.215-.676-6.522-.966-9.857-.785-19.582-1.076-38.264,13.654-42.044,32.217-1.027,5.009-.9,13.567.038,17.562,0,0,.74,3.207,1.331,5.437.022-.011.046-.015.07-.019,1.559-.233,3.226.258,4.35,1.273l7.206-1.415c20.368-3.285,32.147-13.467,44.486-23.798,5.19,2.963,10.848,9.387,13.068,13.111,1.389,2.329,4.067,7.287,5.472,10.884l2.736,1.217c1.124-1.015,2.792-1.506,4.35-1.273.455.068.898.196,1.315.375,2.189-7.18.79-17.83-.348-23.356-.091-.446-.207-.886-.315-1.328,1.338-2.251,2.007-4.94,2.127-7.653Z"/><path class="g" d="M220.534,5.678c2.678-1.645,5.965-1.85,9.027-1.596s6.188,1.173,8.854,2.734c5.799,3.397,9.953,9.433,11.282,15.981.755,3.719.396,7.81-1.512,11.134-1.284,2.236,2.171,4.253,3.454,2.019,4.133-7.199,2.555-16.53-1.738-23.288-4.207-6.621-10.863-11.311-18.678-12.389-4.255-.587-8.959-.351-12.708,1.952-2.19,1.345-.183,4.806,2.019,3.454h0Z"/><path class="g" d="M169.43,58.729c-1.068-4.072-1.904-7.95-2.004-12.176-.115-4.819.265-9.555,1.825-14.14,3.101-9.114,9.985-16.747,18.323-21.425,4.198-2.355,8.823-3.976,13.594-4.657,2.497-.356,4.964-.26,7.471-.303,3.085-.053,6.096.118,9.119.777,10.666,2.324,20.294,9.158,25.962,18.496,3.075,5.065,4.622,10.617,5.398,16.451.753,5.663,1.134,11.797-.515,17.338-.736,2.472,3.123,3.529,3.857,1.063,1.586-5.329,1.447-11.137.869-16.613-.611-5.781-1.723-11.429-4.241-16.71-5.008-10.503-14.492-18.643-25.414-22.5-6.153-2.173-12.64-2.577-19.113-2.301-5.373.229-10.607,1.557-15.508,3.746-9.508,4.248-17.671,12.033-22.032,21.525-2.487,5.413-3.54,11.059-3.609,16.997-.034,2.936.102,5.893.58,8.793.372,2.257,1.001,4.494,1.581,6.703.653,2.488,4.512,1.433,3.857-1.063h0Z"/><path class="g" d="M223.818,37.784c7.747,5.205,13.018,13.501,16.405,22.051.398,1.004,1.338,1.705,2.46,1.397.955-.263,1.797-1.45,1.397-2.46-3.798-9.587-9.553-18.602-18.244-24.442-2.143-1.44-4.147,2.024-2.019,3.454h0Z"/><path class="g" d="M221.416,34.549c-9.419,7.891-19.08,15.567-30.841,19.64-3.898,1.35-7.911,2.321-11.98,2.989-1.067.175-1.661,1.498-1.397,2.46.311,1.133,1.39,1.573,2.46,1.397,7.132-1.171,14.037-3.352,20.509-6.579,5.673-2.829,10.877-6.448,15.859-10.346,2.789-2.182,5.504-4.458,8.219-6.732,1.975-1.655-.867-4.472-2.828-2.828h0Z"/><path class="g" d="M246.302,61.936c1.409-1.178,3.796-.94,4.812.632.606.937.619,2.245.647,3.322.034,1.3-.04,2.609-.274,3.889-.845,4.63-3.251,10.138-8.384,11.059-1.064.191-1.664,1.487-1.397,2.46.308,1.121,1.393,1.588,2.46,1.397,7.431-1.332,10.968-9.747,11.528-16.482.28-3.378.073-7.338-2.859-9.543-2.863-2.154-6.678-1.806-9.361.437-.829.693-.716,2.112,0,2.828.821.821,1.997.695,2.828,0h0Z"/><path class="g" d="M173.334,59.107c-2.684-2.245-6.496-2.589-9.361-.437-2.932,2.202-3.139,6.168-2.859,9.543.559,6.734,4.097,15.149,11.528,16.482,1.062.19,2.156-.288,2.46-1.397.266-.968-.328-2.269-1.397-2.46-5.134-.92-7.539-6.429-8.384-11.059-.221-1.212-.297-2.447-.277-3.678.018-1.096.018-2.401.562-3.389.938-1.704,3.457-1.984,4.901-.777.828.692,2.017.812,2.828,0,.712-.712.832-2.132,0-2.828h0Z"/><path class="h" d="M158.931,200.181v-54.83c0-4.26-3.45-7.71-7.71-7.71h-84.56c-4.26,0-7.71,3.45-7.71,7.7-.01,13.29-.03,39.38-.01,54.84h99.99Z"/><path class="g" d="M160.931,200.181v-38.73c0-5.289.031-10.579,0-15.869-.03-5.035-3.629-9.298-8.691-9.875-1.079-.123-2.187-.067-3.271-.067h-81.061c-2.325,0-4.604.248-6.601,1.611-2.649,1.808-4.255,4.707-4.352,7.917-.077,2.569-.008,5.151-.009,7.721-.009,12.947-.017,25.894-.011,38.842.001,2.816.003,5.633.007,8.449.003,2.574,4.003,2.578,4,0-.016-12.512-.009-25.025-.002-37.537.003-5.553.007-11.105.011-16.658.003-3.608,2.298-6.328,6.021-6.345,3.932-.018,7.864,0,11.796,0h71.811c2.734,0,5.303,1.269,6.117,4.087.409,1.418.235,3.078.235,4.539v51.914c0,2.574,4,2.578,4,0h0Z"/><path class="h" d="M124.278,190.282c0-1.307-1.06-2.367-2.367-2.367h-25.952c-1.307,0-2.367,1.057-2.367,2.364-.002,2.418-.004,6.217-.005,9.898h30.692v-9.895Z"/><path class="g" d="M126.281,200.181c0-3.191.046-6.385,0-9.575-.038-2.586-1.737-4.578-4.391-4.695-.776-.034-1.56,0-2.336,0h-22.477c-1.744,0-3.389.19-4.563,1.709-1.2,1.553-.923,3.571-.923,5.415v7.145c0,2.574,4,2.578,4,0v-8.143c0-.44-.215-1.578.05-1.945.251-.348,1.132-.183,1.49-.183h24.19c.559,0,.861-.061.959.565.262,1.657,0,3.576,0,5.249v4.456c0,2.574,4,2.578,4,0h0Z"/><path class="g" d="M1.932,202.177h310.584c7.975,0,15.986.221,23.96,0,.146-.004.293,0,.44,0,2.574,0,2.578-4,0-4H1.932c-2.574,0-2.578,4,0,4h0Z"/></g></svg>