<svg xmlns="http://www.w3.org/2000/svg" viewBox="0 0 500 500"><g id="freepik--Character--inject-163"><g><path d="M305.33,464.77c-3.81-2.28-7.61-5.33-7.61-5.33l-4.06-5.07v-2.28l-2.03-2.54v-41.36c0-21.31-2.03-81.96-2.03-81.96l-2.79-64.96-32.03,1.01-32.03-1.01-2.79,64.96s-2.03,60.64-2.03,81.96v41.36l-2.03,2.54v2.28l-4.06,5.07s-3.81,3.04-7.61,5.33c-3.81,2.28-6.34,3.55-4.06,4.57,2.28,1.01,9.64,1.27,13.96,.76,4.31-.51,6.6-1.27,7.87-1.78s4.57-2.28,4.57-2.28c0,0,4.57,.25,5.33,0,.76-.25,1.52-2.03,1.52-7.36s-1.27-9.13-1.27-9.13c0,0,2.79-6.09,3.55-8.63,.76-2.54-.51-6.09,0-11.42,.51-5.33,19.03-125.09,19.03-125.09h.12s18.52,119.77,19.03,125.09c.51,5.33-.76,8.88,0,11.42,.76,2.54,3.55,8.63,3.55,8.63,0,0-1.27,3.81-1.27,9.13s.76,7.1,1.52,7.36c.76,.25,5.33,0,5.33,0,0,0,3.3,1.78,4.57,2.28,1.27,.51,3.55,1.27,7.87,1.78s11.67,.25,13.96-.76c2.28-1.01-.25-2.28-4.06-4.57Z" style="fill:#263238; stroke:#263238; stroke-miterlimit:10;"></path><g><path d="M272.45,170.32s1.95-1.71,3.77-1.71,4.94,.99,4.94,.99c0,0,2.64-1.65,4.78-1.81,2.14-.16,11.86,1.32,11.86,1.32l5.27-1.48,13.01-11.2s17.46,10.05,17.29,12.85c-.16,2.8-.16,.99-6.92,7.91-6.75,6.92-25.03,15.32-28.82,17.79-3.79,2.47-4.94,4.12-4.94,4.12l-6.42,41.5s.9,16.71,1.07,18.36c.16,1.65-.16,2.96-1.15,4.61-.99,1.65-3.79,2.96-4.45,3.13s-51.46-.08-55.25-.57c-3.79-.49-5.11-1.48-5.27-4.12s1.48-8.73,1.48-8.73v-13.18l-23.39-6.42s.99-8.07,2.96-13.51c1.98-5.44,4.12-13.34,4.12-14.66s0-20.09,6.26-26.52c6.26-6.42,20.09-5.6,20.09-5.6l7.25-1.65s4.94-2.96,12.19-4.28c7.25-1.32,11.86,.99,11.86,.99l8.42,1.88Z" style="fill:#FFFFFF; stroke:#263238; stroke-miterlimit:10;"></path><g><path d="M270.61,247.24c1.36-.74,2.63-1.5,3.79-2.26" style="fill:none; stroke:#263238; stroke-miterlimit:10;"></path><path d="M237,260.36s17.28-5.04,30.16-11.34" style="fill:none; stroke:#263238; stroke-miterlimit:10;"></path><path d="M247.48,261.41s-11.53,2.1-17.47,2.45" style="fill:none; stroke:#263238; stroke-miterlimit:10;"></path></g><path d="M270.94,180.3s-3.46,13.67-7.41,20.59" style="fill:none; stroke:#263238; stroke-miterlimit:10;"></path><path d="M271.44,184.09s-.99,10.38-2.47,14.82" style="fill:none; stroke:#263238; stroke-miterlimit:10;"></path><line x1="292.85" y1="197.92" x2="296.47" y2="176.68" style="fill:none; stroke:#263238; stroke-miterlimit:10;"></line><line x1="294.49" y1="173.22" x2="292.68" y2="189.52" style="fill:none; stroke:#263238; stroke-miterlimit:10;"></line><path d="M306.02,173.22s7.41,4.12,14.49,3.62" style="fill:none; stroke:#263238; stroke-miterlimit:10;"></path><path d="M305.2,175.19s5.93,2.64,8.4,2.96" style="fill:none; stroke:#263238; stroke-miterlimit:10;"></path><path d="M216.22,197.22c-1.15-3.21-2.1-7.05-2.1-7.53" style="fill:none; stroke:#263238; stroke-miterlimit:10;"></path><path d="M222.07,233.25c-.34-6.04-.87-15.6-.87-17.38,0-2.64-1.98-12.52-3.62-15.48-.14-.25-.28-.54-.43-.85" style="fill:none; stroke:#263238; stroke-miterlimit:10;"></path><path d="M222.36,238.27s-.05-.89-.13-2.33" style="fill:none; stroke:#263238; stroke-miterlimit:10;"></path><path d="M210.83,197.26s2.8,4.61,7.25,6.92" style="fill:none; stroke:#263238; stroke-miterlimit:10;"></path><path d="M208.85,200.23s2.14,1.98,3.79,2.47" style="fill:none; stroke:#263238; stroke-miterlimit:10;"></path><path d="M209.18,206.16s5.76,4.12,10.54,1.15" style="fill:none; stroke:#263238; stroke-miterlimit:10;"></path></g><path d="M295.98,163.83s-2.47,2.64-1.15,3.79c1.32,1.15,5.76,7.58,5.76,7.58,0,0,4.94-1.98,9.06-4.45,4.12-2.47,4.45-3.62,4.45-3.62l-.99-3.46,3.79,1.65s2.47-2.96,2.8-4.94c.33-1.98,.33-4.78,.33-4.78,0,0-7.58-3.29-9.06-3.62-1.48-.33-5.6,2.31-5.6,2.31l-9.39,9.55Z" style="fill:#FFFFFF; stroke:#263238; stroke-miterlimit:10;"></path><polygon points="247.06 183.98 253.84 193.98 247.56 257.38 256.61 265.94 264.35 256.39 257.11 193.48 263.2 185.24 254.8 178.32 247.06 183.98" style="fill:#263238; stroke:#263238; stroke-miterlimit:10;"></polygon><path d="M243.62,160.12l-.53,11.25s7.91,12.66,11.25,12.83,4.75-.7,4.75-.7l6.86-14.06-.18-8.61s-6.86,4.92-12.66,3.34c-5.8-1.58-9.49-4.04-9.49-4.04Z" style="fill:#fff; stroke:#263238; stroke-miterlimit:10;"></path><polygon points="255.15 165.87 243.09 171.37 244.44 161.73 255.15 165.87" style="fill:#263238; stroke:#263238; stroke-miterlimit:10;"></polygon><path d="M241.69,166.45l11.6,16s-8.61,6.86-8.61,7.38-4.92-10.02-5.98-12.66c-1.05-2.64-1.23-4.92-1.23-4.92l4.22-5.8Z" style="fill:#FFFFFF; stroke:#263238; stroke-miterlimit:10;"></path><path d="M266.29,167.15l-7.73,14.94,5.98,7.56s6.33-9.84,7.03-13.36,.88-5.27,.88-5.98-6.15-3.16-6.15-3.16Z" style="fill:#FFFFFF; stroke:#263238; stroke-miterlimit:10;"></path><path d="M202.59,223.12s-7.08,5.93-8.89,10.71c-1.81,4.78-1.98,11.53,.16,13.67,2.14,2.14,7.91,5.76,8.4,5.93s3.29-3.95,3.29-3.95l-.16,4.45s5.76,.33,7.41-.82c1.65-1.15,6.92-8.23,8.23-11.53,1.32-3.29-1.81-8.73-4.94-12.19-3.13-3.46-8.73-7.08-13.51-6.26Z" style="fill:#FFFFFF; stroke:#263238; stroke-miterlimit:10;"></path><g><path d="M211.82,229.71s-28.66-25.86-30.3-27.67c-1.65-1.81-5.76-5.76-7.25-6.59-1.48-.82-4.78-.82-5.76-.99-.99-.16-4.12-.49-6.09-1.15-1.98-.66-4.12,.16-3.29,1.32,.82,1.15,1.98,1.48,3.79,1.81,1.81,.33,3.95,1.15,3.95,1.15,0,0-10.71,4.45-11.36,4.61s-6.59,.66-5.6,1.98c.99,1.32,6.42,3.79,13.51,3.46,7.08-.33,9.22-.82,9.22-.82,0,0,22.73,34.75,24.7,37.06,1.98,2.31,6.92,3.95,11.36,2.8,4.45-1.15,7.91-6.59,6.75-11.36s-3.62-5.6-3.62-5.6Z" style="fill:#fff; stroke:#263238; stroke-miterlimit:10;"></path><path d="M146.03,201.11s-.88-4.33,.48-4.17c1.36,.16,1.77,4.98,1.77,4.98l-2.25-.8Z" style="fill:#fff; stroke:#263238; stroke-miterlimit:10;"></path><path d="M145.3,200.55s2.41,4.33,3.93,5.06c1.52,.72,3.45,.64,3.45,.64,0,0-3.37-2.73-4.41-4.33s-2.17-3.29-2.97-1.36Z" style="fill:#fff; stroke:#263238; stroke-miterlimit:10;"></path><path d="M148.27,202.64s2,2.41,4.94,3.65c2.94,1.24,4.95,.77,4.95,.77,0,0-5.41-4.95-6.34-5.57-.93-.62-6.75-3.11-3.54,1.15Z" style="fill:#fff; stroke:#263238; stroke-miterlimit:10;"></path><path d="M172.55,203.19s-3.71-1.24-4.95-1.08-8.82,2.17-8.82,2.17c0,0-8.97-6.19-8.66-4.64,.31,1.55,4.95,5.41,6.34,6.5,1.39,1.08,4.02,1.7,4.02,1.7,0,0,8.34,.28,12.14-1.02" style="fill:#fff; stroke:#263238; stroke-miterlimit:10;"></path></g><g><path d="M268.19,139.14s2.17-2.03,2.75,.72c.58,2.75-2.89,9.12-2.89,9.12l.14-9.84Z" style="fill:none; stroke:#263238; stroke-miterlimit:10;"></path><g><path d="M247.64,121.92s-9.55,3.18-10.57,6.51c-1.01,3.33,3.47,29.09,4.78,32.13,1.3,3.04,8.11,8.39,12.88,8.83,4.78,.43,11.87-5.36,13.03-9.7,1.16-4.34,.14-26.49-.58-30.97-.72-4.49-3.62-6.08-6.22-7.09-2.61-1.01-6.37-.72-6.37-.72,0,0,5.07-2.17,2.03-2.32s-6.37,1.59-6.37,1.59c0,0,.29-2.17-1.3-1.16s-1.3,2.89-1.3,2.89Z" style="fill:#fff; stroke:#263238; stroke-miterlimit:10;"></path><path d="M250.82,126.41c3.72,0,12.89,3.86,16.64,4.84-.1-1.08-.19-1.95-.29-2.52-.72-4.49-3.62-6.08-6.22-7.09-2.61-1.01-6.37-.72-6.37-.72,0,0,5.07-2.17,2.03-2.32-3.04-.14-6.37,1.59-6.37,1.59,0,0,.29-2.17-1.3-1.16-1.59,1.01-1.3,2.89-1.3,2.89,0,0-9.55,3.18-10.57,6.51-.43,1.42,.14,6.91,1.03,12.99l.13,.04s.14-3.18,.87-3.76c.72-.58,2.89-1.59,3.04-2.75,.14-1.16-.58-5.36-.14-5.79s4.63-2.75,8.83-2.75Z" style="fill:#263238; stroke:#263238; stroke-miterlimit:10;"></path></g><g><path d="M245.61,143.2s4.92,3.04,7.67-1.3" style="fill:none; stroke:#263238; stroke-miterlimit:10;"></path><path d="M243.15,140.3s2.61-1.88,4.78-2.75c2.17-.87,5.36-1.59,5.36-1.59l2.03-2.32" style="fill:none; stroke:#263238; stroke-miterlimit:10;"></path><path d="M260.23,138.85s-1.88,1.59-1.88,2.32,1.3,6.51,1.16,7.96c-.14,1.45-4.2,2.75-4.2,2.75" style="fill:none; stroke:#263238; stroke-miterlimit:10;"></path><path d="M249.52,153.91s3.62-.72,5.5,1.74" style="fill:none; stroke:#263238; stroke-miterlimit:10;"></path><path d="M259.8,142.04s3.76,2.89,6.08,0" style="fill:none; stroke:#263238; stroke-miterlimit:10;"></path><path d="M261.68,133.93s.72,1.74,1.45,2.17c.72,.43,5.07,3.04,5.07,3.04" style="fill:none; stroke:#263238; stroke-miterlimit:10;"></path></g><path d="M238.1,141.42s-1.9-3-3.49,.04c-1.59,3.04,5.07,9.26,5.07,9.26l-1.57-9.3Z" style="fill:#fff; stroke:#263238; stroke-miterlimit:10;"></path></g><g><path d="M256.9,130.6l-1.88-4.2s-2.89-1.45-3.47-2.17c-.58-.72,.43-.87,1.45-.87s2.61,.58,2.61,.58c0,0-.29-1.45,1.16-1.45s3.62,.72,3.62,.72l3.04,1.01s2.89,.14,3.33,2.32,2.89,8.54,2.89,8.54c0,0,1.74-3.33,2.75-4.2,1.01-.87,2.03,.29,1.16,1.88s-1.59,3.18-1.59,4.2-.14,4.92-.14,4.92c0,0,38.36,12.16,39.51,13.17,1.16,1.01,1.45,2.32-.58,5.5s-10.57,6.66-12.3,6.66-31.41-21.13-31.41-21.13c0,0-5.21-3.76-6.8-7.24s-3.33-8.25-3.33-8.25Z" style="fill:#fff; stroke:#263238; stroke-miterlimit:10;"></path><path d="M255.6,123.95s3.04,1.74,3.47,2.46c.43,.72,1.45,3.18,1.45,3.18" style="fill:none; stroke:#263238; stroke-miterlimit:10;"></path><path d="M258.49,122.79s3.47,2.32,3.91,2.89c.43,.58,.87,3.47,.87,3.47" style="fill:none; stroke:#263238; stroke-miterlimit:10;"></path><polyline points="262.4 124.23 265.01 125.97 266.17 129.3" style="fill:none; stroke:#263238; stroke-miterlimit:10;"></polyline></g></g></g></svg>
