<svg xmlns="http://www.w3.org/2000/svg" viewBox="0 0 500 500"><g id="freepik--Lock--inject-340"><path d="M355.83,256.8A102.38,102.38,0,0,0,165.72,239" style="fill:none;stroke:#263238;stroke-linecap:round;stroke-linejoin:round"></path><path d="M359.65,282.55a103.45,103.45,0,0,0-1.31-14.41" style="fill:none;stroke:#263238;stroke-linecap:round;stroke-linejoin:round"></path><path d="M170.37,338.64A102.36,102.36,0,0,0,359,296.08" style="fill:none;stroke:#263238;stroke-linecap:round;stroke-linejoin:round"></path><path d="M163.88,326.43c1,2.21,2.06,4.39,3.2,6.52" style="fill:none;stroke:#263238;stroke-linecap:round;stroke-linejoin:round"></path><path d="M162,247.38a102.74,102.74,0,0,0-1.09,71.67" style="fill:none;stroke:#263238;stroke-linecap:round;stroke-linejoin:round"></path><path d="M328,305.38a73.66,73.66,0,0,0,2.23-10.32l-4.87-.51a2.5,2.5,0,1,1,.52-5l4.87.51c.13-1.79.22-3.6.22-5.42a73.4,73.4,0,0,0-2.84-20.23l-5,1.62a2.63,2.63,0,0,1-.77.12,2.5,2.5,0,0,1-.77-4.88l5-1.63a73.58,73.58,0,0,0-13-22.45l-4.13,3.72a2.5,2.5,0,0,1-1.67.64,2.47,2.47,0,0,1-1.86-.82,2.5,2.5,0,0,1,.18-3.53l4.13-3.72a73.8,73.8,0,0,0-21.09-15.26l-2.35,5.29a2.51,2.51,0,0,1-2.29,1.48,2.42,2.42,0,0,1-1-.22,2.5,2.5,0,0,1-1.27-3.3l2.34-5.25A73.53,73.53,0,0,0,259.1,211v5.81a2.5,2.5,0,1,1-5,0v-5.77a73.34,73.34,0,0,0-25.44,5.71L231,222a2.5,2.5,0,0,1-1.27,3.3,2.42,2.42,0,0,1-1,.22,2.51,2.51,0,0,1-2.29-1.48l-2.3-5.17a73.88,73.88,0,0,0-20.77,15.64l4.08,3.67a2.5,2.5,0,0,1-1.67,4.36,2.47,2.47,0,0,1-1.67-.65l-4-3.61A73.85,73.85,0,0,0,187.58,261l4.92,1.59a2.5,2.5,0,0,1-.77,4.88,2.64,2.64,0,0,1-.78-.12l-4.82-1.57a73.71,73.71,0,0,0-2.46,18.91c0,2.27.12,4.51.32,6.73l4.77-.5a2.5,2.5,0,0,1,.52,5l-4.68.5A73,73,0,0,0,193,320.53l3.87-2.23a2.5,2.5,0,0,1,2.5,4.33l-3.78,2.18a74,74,0,0,0,17.35,18.63l2.47-3.4a2.5,2.5,0,0,1,4,2.94L217,346.32a73.42,73.42,0,0,0,23.32,10l.85-4a2.5,2.5,0,0,1,4.89,1l-.84,3.94a73.47,73.47,0,0,0,25.36-.21l-.85-4a2.5,2.5,0,1,1,4.89-1l.85,4a73.44,73.44,0,0,0,23.18-10.42l-2.51-3.45a2.5,2.5,0,1,1,4-2.94l2.49,3.43a74.19,74.19,0,0,0,17.08-18.94l-3.93-2.27a2.5,2.5,0,1,1,2.5-4.33l4,2.28a73.9,73.9,0,0,0,4.21-9.38" style="fill:none;stroke:#263238;stroke-linecap:round;stroke-linejoin:round"></path><path d="M214.57,260.73a49,49,0,1,0,4.52-6.7" style="fill:none;stroke:#263238;stroke-linecap:round;stroke-linejoin:round"></path><path d="M204.21,116.91a56.34,56.34,0,0,1,109.46,18.76v27.2" style="fill:none;stroke:#263238;stroke-linecap:round;stroke-linejoin:round"></path><path d="M331.67,203.1V135.67a74.34,74.34,0,1,0-148.67,0v78.67a102.6,102.6,0,0,1,18-15.11V135.67a56.25,56.25,0,0,1,1.3-12" style="fill:none;stroke:#263238;stroke-linecap:round;stroke-linejoin:round"></path><path d="M313.67,172.8v26.43a102.6,102.6,0,0,1,18,15.11v-7.06" style="fill:none;stroke:#263238;stroke-linecap:round;stroke-linejoin:round"></path></g><g id="freepik--Documents--inject-340"><polygon points="464.65 299 475.94 247.24 448.65 247.24 464.65 299" style="fill:#263238;stroke:#263238;stroke-linecap:round;stroke-linejoin:round"></polygon><rect x="400.1" y="203.1" width="66.35" height="72.47" style="fill:#fff;stroke:#263238;stroke-linecap:round;stroke-linejoin:round"></rect><rect x="395" y="198.76" width="66.35" height="72.47" style="fill:#fff;stroke:#263238;stroke-linecap:round;stroke-linejoin:round"></rect><rect x="399.71" y="207.13" width="16.94" height="18.46" style="fill:#fff;stroke:#263238;stroke-linecap:round;stroke-linejoin:round"></rect><line x1="436.71" y1="207.71" x2="454.29" y2="207.71" style="fill:none;stroke:#263238;stroke-linecap:round;stroke-linejoin:round"></line><line x1="422.76" y1="207.71" x2="432.61" y2="207.71" style="fill:none;stroke:#263238;stroke-linecap:round;stroke-linejoin:round"></line><line x1="447.86" y1="214.29" x2="454.29" y2="214.29" style="fill:none;stroke:#263238;stroke-linecap:round;stroke-linejoin:round"></line><line x1="422.76" y1="214.29" x2="444.34" y2="214.29" style="fill:none;stroke:#263238;stroke-linecap:round;stroke-linejoin:round"></line><line x1="436.13" y1="220.88" x2="454.29" y2="220.88" style="fill:none;stroke:#263238;stroke-linecap:round;stroke-linejoin:round"></line><line x1="422.76" y1="220.88" x2="430.85" y2="220.88" style="fill:none;stroke:#263238;stroke-linecap:round;stroke-linejoin:round"></line><line x1="440.82" y1="227.47" x2="454.29" y2="227.47" style="fill:none;stroke:#263238;stroke-linecap:round;stroke-linejoin:round"></line><line x1="422.76" y1="227.47" x2="434.37" y2="227.47" style="fill:none;stroke:#263238;stroke-linecap:round;stroke-linejoin:round"></line><line x1="447.86" y1="234.06" x2="454.29" y2="234.06" style="fill:none;stroke:#263238;stroke-linecap:round;stroke-linejoin:round"></line><line x1="430.26" y1="234.06" x2="441.4" y2="234.06" style="fill:none;stroke:#263238;stroke-linecap:round;stroke-linejoin:round"></line><line x1="422.76" y1="234.06" x2="427.4" y2="234.06" style="fill:none;stroke:#263238;stroke-linecap:round;stroke-linejoin:round"></line><circle cx="408.29" cy="214.01" r="4.29" style="fill:#263238;stroke:#263238;stroke-linecap:round;stroke-linejoin:round"></circle><path d="M414.43,221.69a4.36,4.36,0,0,0-3.78-2.2h-4.4a4.37,4.37,0,0,0-3.55,1.84l-3,4.26h16.94Z" style="fill:#263238;stroke:#263238;stroke-linecap:round;stroke-linejoin:round"></path><polygon points="385.59 235.94 396.41 299 464.65 299 458.06 241.59 419.47 241.59 414.29 235.47 385.59 235.94" style="fill:#90CAF9;stroke:#263238;stroke-linecap:round;stroke-linejoin:round"></polygon><path d="M429.24,262.29a6.23,6.23,0,0,0-6.1-5.64,5.13,5.13,0,0,0-5.19,5.64A6.19,6.19,0,0,0,421,267.1l-.29,15.43h8.47l-2.71-15.18A5.13,5.13,0,0,0,429.24,262.29Z" style="fill:#263238;stroke:#263238;stroke-linecap:round;stroke-linejoin:round"></path></g><g id="freepik--Money--inject-340"><rect x="46.37" y="109.88" width="77.73" height="46.76" style="fill:#fff;stroke:#263238;stroke-linecap:round;stroke-linejoin:round"></rect><rect x="52.44" y="114.74" width="65.59" height="37.04" style="fill:#90CAF9;stroke:#263238;stroke-linecap:round;stroke-linejoin:round"></rect><circle cx="85.24" cy="133.26" r="12.75" style="fill:#fff;stroke:#263238;stroke-linecap:round;stroke-linejoin:round"></circle><rect x="48.46" y="106.36" width="77.73" height="46.76" transform="translate(14.01 -8.4) rotate(5.99)" style="fill:#fff;stroke:#263238;stroke-linecap:round;stroke-linejoin:round"></rect><rect x="54.54" y="111.22" width="65.59" height="37.04" transform="translate(14.01 -8.4) rotate(5.99)" style="fill:#90CAF9;stroke:#263238;stroke-linecap:round;stroke-linejoin:round"></rect><path d="M100,131.07a12.75,12.75,0,1,0-14,11.35A12.75,12.75,0,0,0,100,131.07Z" style="fill:#fff;stroke:#263238;stroke-linecap:round;stroke-linejoin:round"></path><rect x="53.5" y="100.25" width="77.73" height="46.76" transform="translate(41.63 -22.12) rotate(17.57)" style="fill:#fff;stroke:#263238;stroke-linecap:round;stroke-linejoin:round"></rect><rect x="59.58" y="105.11" width="65.59" height="37.04" transform="translate(41.63 -22.12) rotate(17.57)" style="fill:#90CAF9;stroke:#263238;stroke-linecap:round;stroke-linejoin:round"></rect><path d="M104.53,127.48a12.75,12.75,0,1,0-16,8.31A12.77,12.77,0,0,0,104.53,127.48Z" style="fill:#fff;stroke:#263238;stroke-linecap:round;stroke-linejoin:round"></path><circle cx="106.35" cy="164.83" r="17.98" transform="translate(-33.9 27.68) rotate(-12.81)" style="fill:#fff;stroke:#263238;stroke-linecap:round;stroke-linejoin:round"></circle><line x1="94.48" y1="153.54" x2="92.51" y2="153.54" style="fill:none;stroke:#263238;stroke-linecap:round;stroke-linejoin:round"></line><line x1="92.36" y1="156.27" x2="90.54" y2="156.27" style="fill:none;stroke:#263238;stroke-linecap:round;stroke-linejoin:round"></line><line x1="91.15" y1="159.76" x2="89.48" y2="159.76" style="fill:none;stroke:#263238;stroke-linecap:round;stroke-linejoin:round"></line><line x1="90.69" y1="166.89" x2="88.72" y2="166.89" style="fill:none;stroke:#263238;stroke-linecap:round;stroke-linejoin:round"></line><circle cx="108.32" cy="164.83" r="17.98" transform="translate(-82.92 116.57) rotate(-42.52)" style="fill:#fff;stroke:#263238;stroke-linecap:round;stroke-linejoin:round"></circle><circle cx="108.32" cy="164.83" r="13.04" transform="translate(-24.4 18.93) rotate(-8.98)" style="fill:#fff;stroke:#263238;stroke-linecap:round;stroke-linejoin:round;stroke-width:2px"></circle><path d="M107.44,157v-1.12h1.93V157c1.67.34,2.53,1.62,2.53,3.66v.47h-2.23v-.62c0-1.07-.43-1.48-1.18-1.48s-1.18.41-1.18,1.48c0,3.09,4.61,3.24,4.61,7.52,0,2-.88,3.34-2.55,3.69v1.09h-1.93v-1.09c-1.69-.35-2.55-1.65-2.55-3.69v-1h2.23v1.18c0,1.07.47,1.46,1.22,1.46s1.22-.39,1.22-1.46c0-3.08-4.61-3.23-4.61-7.52C105,158.6,105.79,157.31,107.44,157Z" style="fill:#263238"></path><circle cx="112.01" cy="150.15" r="17.98" transform="translate(-32.61 31.09) rotate(-13.81)" style="fill:#fff;stroke:#263238;stroke-linecap:round;stroke-linejoin:round"></circle><line x1="100.14" y1="138.87" x2="98.17" y2="138.87" style="fill:none;stroke:#263238;stroke-linecap:round;stroke-linejoin:round"></line><line x1="98.02" y1="141.6" x2="96.2" y2="141.6" style="fill:none;stroke:#263238;stroke-linecap:round;stroke-linejoin:round"></line><line x1="96.8" y1="145.08" x2="95.14" y2="145.08" style="fill:none;stroke:#263238;stroke-linecap:round;stroke-linejoin:round"></line><line x1="96.35" y1="152.21" x2="94.38" y2="152.21" style="fill:none;stroke:#263238;stroke-linecap:round;stroke-linejoin:round"></line><circle cx="113.98" cy="150.15" r="17.98" transform="translate(-73.76 133.06) rotate(-47.6)" style="fill:#fff;stroke:#263238;stroke-linecap:round;stroke-linejoin:round"></circle><circle cx="113.98" cy="150.15" r="13.04" transform="translate(-68.21 198.59) rotate(-67.69)" style="fill:#fff;stroke:#263238;stroke-linecap:round;stroke-linejoin:round;stroke-width:2px"></circle><path d="M113.1,142.27v-1.12H115v1.12c1.68.34,2.53,1.62,2.53,3.66v.47h-2.23v-.62c0-1.07-.42-1.48-1.17-1.48s-1.18.41-1.18,1.48c0,3.09,4.6,3.24,4.6,7.52,0,2-.87,3.34-2.55,3.69v1.09H113.1V157c-1.7-.35-2.55-1.65-2.55-3.69v-1h2.22v1.18c0,1.07.48,1.46,1.23,1.46s1.22-.39,1.22-1.46c0-3.08-4.61-3.23-4.61-7.52C110.61,143.92,111.45,142.63,113.1,142.27Z" style="fill:#263238"></path></g></svg>