<svg xmlns="http://www.w3.org/2000/svg" viewBox="0 0 750 500"><g id="freepik--Gears--inject-38"><path d="M168.63,136.45h-8l-1-6.94a25.21,25.21,0,0,1-9.09-3.8l-5.59,4.19-5.66-5.66,4.21-5.61a25.18,25.18,0,0,1-3.74-9.11l-6.92-1v-8l6.94-1a25.09,25.09,0,0,1,3.8-9.08l-4.19-5.59L145,79.18l5.61,4.21a25.16,25.16,0,0,1,9.12-3.74l1-6.92h8l1,7a25.19,25.19,0,0,1,9.09,3.79l5.59-4.19L190.1,85l-4.21,5.61a24.87,24.87,0,0,1,3.74,9.11l6.92,1v8l-6.94,1a25.13,25.13,0,0,1-3.8,9.09l4.19,5.59L184.34,130l-5.61-4.2a25.33,25.33,0,0,1-9.12,3.74Zm-7.15-1h6.28l1-6.77.35-.06a24.23,24.23,0,0,0,9.38-3.85l.29-.2,5.49,4.11,4.44-4.44-4.1-5.47.2-.29a24.1,24.1,0,0,0,3.91-9.36l.07-.35,6.79-1v-6.28l-6.77-1-.06-.36a24.3,24.3,0,0,0-3.85-9.38l-.2-.29L188.78,85l-4.44-4.44-5.47,4.1-.29-.2a24.1,24.1,0,0,0-9.36-3.91l-.35-.07-1-6.79h-6.28l-1,6.77-.35.07a24.08,24.08,0,0,0-9.38,3.85l-.29.2-5.49-4.12-4.44,4.44,4.1,5.47-.2.3a24.06,24.06,0,0,0-3.91,9.35l-.07.35-6.79,1v6.28l6.77,1,.06.35a24.23,24.23,0,0,0,3.85,9.38l.2.3-4.11,5.49,4.44,4.43,5.47-4.1.29.21a24.08,24.08,0,0,0,9.36,3.9l.35.07Zm3.21-13a17.82,17.82,0,1,1,17.82-17.82A17.84,17.84,0,0,1,164.69,122.41Zm0-34.64a16.82,16.82,0,1,0,16.82,16.82A16.84,16.84,0,0,0,164.69,87.77Z" style="fill:#263238"></path><path d="M222.31,124.51h-7l-.85-6a21.49,21.49,0,0,1-7.7-3.21L202,118.94,197.06,114l3.6-4.8a21.55,21.55,0,0,1-3.17-7.73l-5.93-.85v-7l5.95-.85a21.66,21.66,0,0,1,3.22-7.71l-3.59-4.79,4.93-4.93,4.81,3.6a21.66,21.66,0,0,1,7.73-3.17l.84-5.92h7l.85,6a21.18,21.18,0,0,1,7.7,3.22l4.79-3.6,4.94,4.94L237.1,85.2a21.43,21.43,0,0,1,3.17,7.72l5.93.85v7l-5.95.85A21.66,21.66,0,0,1,237,109.3l3.59,4.79L235.69,119l-4.81-3.6a21.61,21.61,0,0,1-7.72,3.17Zm-6.11-1h5.24l.83-5.77.35-.07a20.59,20.59,0,0,0,8-3.28l.29-.2,4.69,3.51,3.7-3.71-3.5-4.67L236,109a20.55,20.55,0,0,0,3.33-8l.06-.35,5.8-.83V94.63l-5.78-.82-.06-.36a20.76,20.76,0,0,0-3.28-8l-.21-.29,3.52-4.69-3.71-3.71L231,80.28l-.3-.21a20.55,20.55,0,0,0-8-3.33l-.35-.06-.83-5.8h-5.24l-.83,5.78-.35.06a20.49,20.49,0,0,0-8,3.28l-.3.2-4.68-3.51-3.71,3.71,3.5,4.67-.2.29a20.61,20.61,0,0,0-3.33,8l-.07.36-5.8.82v5.25l5.78.82.07.36a20.46,20.46,0,0,0,3.28,8l.2.29-3.51,4.69,3.7,3.71,4.67-3.51.3.21a20.55,20.55,0,0,0,8,3.33l.35.07Zm2.68-11a15.31,15.31,0,1,1,15.31-15.3A15.32,15.32,0,0,1,218.88,112.5Zm0-29.61A14.31,14.31,0,1,0,233.19,97.2,14.33,14.33,0,0,0,218.88,82.89Z" style="fill:#263238"></path><path d="M533.18,389.46h-8l-1-6.95a25,25,0,0,1-9.09-3.8l-5.59,4.2-5.67-5.67,4.21-5.61a25.11,25.11,0,0,1-3.74-9.11l-6.92-1v-8l6.95-1a25,25,0,0,1,3.8-9.09l-4.2-5.59,5.67-5.66,5.61,4.2a25.18,25.18,0,0,1,9.11-3.74l1-6.91h8l1,6.94a25.13,25.13,0,0,1,9.09,3.8l5.59-4.19,5.66,5.66-4.2,5.61a25.18,25.18,0,0,1,3.74,9.11l6.91,1v8l-6.94,1a25,25,0,0,1-3.8,9.09l4.2,5.59L548.89,383l-5.61-4.21a25.11,25.11,0,0,1-9.11,3.74Zm-7.14-1h6.27l1-6.77.35-.07a24,24,0,0,0,9.38-3.85l.3-.2,5.49,4.12,4.44-4.44-4.11-5.47.21-.3a24.27,24.27,0,0,0,3.91-9.35l.06-.35,6.79-1v-6.27l-6.76-1-.07-.35a24.08,24.08,0,0,0-3.85-9.38l-.2-.3,4.11-5.49-4.43-4.43-5.47,4.1-.3-.21a24.27,24.27,0,0,0-9.35-3.91l-.36-.06-1-6.79h-6.27l-1,6.76-.36.07a24,24,0,0,0-9.37,3.85l-.3.2-5.49-4.11-4.44,4.43,4.11,5.47-.21.3a24.21,24.21,0,0,0-3.91,9.35l-.06.36-6.8,1v6.27l6.77,1,.07.36a24,24,0,0,0,3.85,9.37l.2.3-4.12,5.49,4.44,4.44,5.47-4.11.3.21a24.27,24.27,0,0,0,9.35,3.91l.35.06Zm3.2-13a17.82,17.82,0,1,1,17.82-17.81A17.83,17.83,0,0,1,529.24,375.41Zm0-34.63a16.82,16.82,0,1,0,16.82,16.82A16.83,16.83,0,0,0,529.24,340.78Z" style="fill:#263238"></path><path d="M586.86,377.52h-7l-.85-5.95a21.66,21.66,0,0,1-7.71-3.22l-4.79,3.59L561.61,367l3.6-4.81a21.66,21.66,0,0,1-3.17-7.73l-5.92-.84v-7l6-.85a21.3,21.3,0,0,1,3.22-7.71l-3.59-4.78,4.93-4.94,4.81,3.61a21.43,21.43,0,0,1,7.72-3.17l.85-5.93h7l.85,5.95a21.66,21.66,0,0,1,7.71,3.22l4.79-3.59,4.93,4.93-3.6,4.81a21.68,21.68,0,0,1,3.17,7.72l5.92.85v7l-6,.85a21.49,21.49,0,0,1-3.21,7.7l3.59,4.79L600.24,372l-4.8-3.6a21.55,21.55,0,0,1-7.73,3.17Zm-6.1-1H586l.82-5.78.36-.07a20.46,20.46,0,0,0,8-3.28l.3-.2,4.68,3.51,3.71-3.7-3.51-4.67.21-.3a20.55,20.55,0,0,0,3.33-8l.07-.35,5.79-.83v-5.24l-5.77-.83-.07-.35a20.59,20.59,0,0,0-3.28-8l-.2-.29,3.51-4.69-3.71-3.7-4.66,3.5-.3-.21a20.86,20.86,0,0,0-8-3.33l-.35-.06-.83-5.8h-5.24l-.83,5.78-.36.06a20.76,20.76,0,0,0-8,3.28l-.29.21-4.69-3.52L563,333.4l3.5,4.67-.21.3a20.55,20.55,0,0,0-3.33,8l-.06.35-5.8.83v5.24l5.78.83.06.35a20.49,20.49,0,0,0,3.28,8l.2.3-3.51,4.68,3.71,3.71,4.67-3.5.29.2a20.68,20.68,0,0,0,8,3.33l.36.07Zm2.68-11a15.31,15.31,0,1,1,15.31-15.31A15.32,15.32,0,0,1,583.44,365.51Zm0-29.62a14.31,14.31,0,1,0,14.31,14.31A14.33,14.33,0,0,0,583.44,335.89Z" style="fill:#263238"></path><path d="M658.33,108.44h-7l-.85-6a21.61,21.61,0,0,1-7.7-3.22L638,102.86l-4.94-4.93,3.61-4.81a21.48,21.48,0,0,1-3.17-7.73l-5.93-.84v-7l5.95-.85A21.73,21.73,0,0,1,636.75,69l-3.59-4.78,4.93-4.94,4.81,3.61a21.5,21.5,0,0,1,7.72-3.17l.85-5.93h7l.85,6A21.69,21.69,0,0,1,667,63l4.79-3.59,4.93,4.93-3.6,4.81a21.5,21.5,0,0,1,3.17,7.72l5.93.85v7l-6,.85a21.69,21.69,0,0,1-3.22,7.7L676.64,98l-4.93,4.93-4.81-3.6a21.66,21.66,0,0,1-7.73,3.17Zm-6.11-1h5.24l.83-5.78.35-.07a20.34,20.34,0,0,0,8-3.28l.3-.2,4.68,3.51,3.71-3.7-3.5-4.67.2-.3a20.55,20.55,0,0,0,3.33-8l.07-.35,5.8-.83V78.56l-5.78-.83-.07-.35a20.44,20.44,0,0,0-3.28-8l-.2-.29,3.51-4.69-3.7-3.7L667,64.2l-.3-.21a20.55,20.55,0,0,0-8-3.33l-.35-.06-.83-5.8h-5.24l-.83,5.78-.35.06a20.64,20.64,0,0,0-8,3.28l-.3.21-4.69-3.52-3.7,3.71L638,69l-.21.3a20.55,20.55,0,0,0-3.33,8l-.06.35-5.8.83v5.24l5.78.83.06.35a20.7,20.7,0,0,0,3.28,8l.21.3-3.52,4.68,3.71,3.71,4.67-3.5.3.2a20.55,20.55,0,0,0,8,3.33l.35.07Zm2.68-11a15.31,15.31,0,1,1,15.31-15.31A15.33,15.33,0,0,1,654.9,96.43Zm0-29.62a14.31,14.31,0,1,0,14.31,14.31A14.33,14.33,0,0,0,654.9,66.81Z" style="fill:#263238"></path></g><g id="freepik--Tab--inject-38"><path d="M429,78.61H636.2a8.52,8.52,0,0,1,8.52,8.52v215a0,0,0,0,1,0,0H420.46a0,0,0,0,1,0,0v-215A8.52,8.52,0,0,1,429,78.61Z" style="fill:#263238"></path><path d="M644.72,302.62H420.46a.5.5,0,0,1-.5-.5v-215a9,9,0,0,1,9-9H636.2a9,9,0,0,1,9,9v215A.5.5,0,0,1,644.72,302.62Zm-223.76-1H644.22V87.13a8,8,0,0,0-8-8H429a8,8,0,0,0-8,8Z" style="fill:#263238"></path><path d="M434.09,73.51H641.31A8.52,8.52,0,0,1,649.83,82V297a0,0,0,0,1,0,0H425.57a0,0,0,0,1,0,0V82A8.52,8.52,0,0,1,434.09,73.51Z" style="fill:#fff"></path><path d="M649.83,297.51H425.57a.5.5,0,0,1-.5-.5V82a9,9,0,0,1,9-9H641.31a9,9,0,0,1,9,9V297A.5.5,0,0,1,649.83,297.51Zm-223.76-1H649.33V82a8,8,0,0,0-8-8H434.09a8,8,0,0,0-8,8Z" style="fill:#263238"></path><path d="M434.09,73.51H641.31A8.52,8.52,0,0,1,649.83,82V94.87a0,0,0,0,1,0,0H425.57a0,0,0,0,1,0,0V82A8.52,8.52,0,0,1,434.09,73.51Z" style="fill:#FFFFFF"></path><path d="M649.83,95.37H425.57a.5.5,0,0,1-.5-.5V82a9,9,0,0,1,9-9H641.31a9,9,0,0,1,9,9V94.87A.5.5,0,0,1,649.83,95.37Zm-223.76-1H649.33V82a8,8,0,0,0-8-8H434.09a8,8,0,0,0-8,8Z" style="fill:#263238"></path><circle cx="610.28" cy="84.87" r="3.48" style="fill:#fff"></circle><path d="M610.28,88.85a4,4,0,1,1,4-4A4,4,0,0,1,610.28,88.85Zm0-7a3,3,0,1,0,3,3A3,3,0,0,0,610.28,81.89Z" style="fill:#263238"></path><path d="M624.2,84.87a3.48,3.48,0,1,0-3.48,3.48A3.48,3.48,0,0,0,624.2,84.87Z" style="fill:#fff"></path><path d="M620.72,88.85a4,4,0,1,1,4-4A4,4,0,0,1,620.72,88.85Zm0-7a3,3,0,1,0,3,3A3,3,0,0,0,620.72,81.89Z" style="fill:#263238"></path><circle cx="631.17" cy="84.87" r="3.48" style="fill:#263238"></circle><path d="M631.17,88.85a4,4,0,1,1,4-4A4,4,0,0,1,631.17,88.85Zm0-7a3,3,0,1,0,3,3A3,3,0,0,0,631.17,81.89Z" style="fill:#263238"></path><path d="M465.07,109.14H448.58a1.5,1.5,0,0,1,0-3h16.49a1.5,1.5,0,1,1,0,3Z" style="fill:#263238"></path><path d="M510.53,118.83H448.58a1.5,1.5,0,0,1,0-3h61.95a1.5,1.5,0,0,1,0,3Z" style="fill:#c4c4c4"></path><path d="M606.35,118.83h-62a1.5,1.5,0,0,1,0-3h62a1.5,1.5,0,0,1,0,3Z" style="fill:#c4c4c4"></path><path d="M539.05,118.83H514.54a1.5,1.5,0,0,1,0-3h24.51a1.5,1.5,0,0,1,0,3Z" style="fill:#263238"></path><path d="M484.23,128.51H448.58a1.5,1.5,0,0,1,0-3h35.65a1.5,1.5,0,1,1,0,3Z" style="fill:#263238"></path><path d="M524.34,128.51H488.69a1.5,1.5,0,0,1,0-3h35.65a1.5,1.5,0,1,1,0,3Z" style="fill:#263238"></path><path d="M564.46,128.51H528.8a1.5,1.5,0,0,1,0-3h35.66a1.5,1.5,0,1,1,0,3Z" style="fill:#263238"></path><path d="M584.07,128.51H568.91a1.5,1.5,0,0,1,0-3h15.16a1.5,1.5,0,1,1,0,3Z" style="fill:#263238"></path><path d="M486,109.14H469.52a1.5,1.5,0,0,1,0-3H486a1.5,1.5,0,0,1,0,3Z" style="fill:#263238"></path><path d="M584.07,109.14h-16.5a1.5,1.5,0,0,1,0-3h16.5a1.5,1.5,0,0,1,0,3Z" style="fill:#263238"></path><path d="M562.23,109.14H545.74a1.5,1.5,0,0,1,0-3h16.49a1.5,1.5,0,0,1,0,3Z" style="fill:#c4c4c4"></path><path d="M538.61,109.14H490.47a1.5,1.5,0,0,1,0-3h48.14a1.5,1.5,0,0,1,0,3Z" style="fill:#263238"></path><path d="M465.07,168.28H448.58a1.5,1.5,0,0,1,0-3h16.49a1.5,1.5,0,0,1,0,3Z" style="fill:#263238"></path><path d="M510.53,178H448.58a1.5,1.5,0,0,1,0-3h61.95a1.5,1.5,0,0,1,0,3Z" style="fill:#c4c4c4"></path><path d="M606.35,178h-62a1.5,1.5,0,0,1,0-3h62a1.5,1.5,0,0,1,0,3Z" style="fill:#263238"></path><path d="M539.05,178H514.54a1.5,1.5,0,0,1,0-3h24.51a1.5,1.5,0,0,1,0,3Z" style="fill:#263238"></path><path d="M484.23,187.65H448.58a1.5,1.5,0,0,1,0-3h35.65a1.5,1.5,0,0,1,0,3Z" style="fill:#263238"></path><path d="M524.34,187.65H488.69a1.5,1.5,0,0,1,0-3h35.65a1.5,1.5,0,0,1,0,3Z" style="fill:#263238"></path><path d="M564.46,187.65H528.8a1.5,1.5,0,0,1,0-3h35.66a1.5,1.5,0,0,1,0,3Z" style="fill:#c4c4c4"></path><path d="M584.07,187.65H568.91a1.5,1.5,0,0,1,0-3h15.16a1.5,1.5,0,0,1,0,3Z" style="fill:#263238"></path><path d="M486,168.28H469.52a1.5,1.5,0,0,1,0-3H486a1.5,1.5,0,0,1,0,3Z" style="fill:#263238"></path><path d="M584.07,168.28h-16.5a1.5,1.5,0,0,1,0-3h16.5a1.5,1.5,0,0,1,0,3Z" style="fill:#263238"></path><path d="M562.23,168.28H545.74a1.5,1.5,0,0,1,0-3h16.49a1.5,1.5,0,0,1,0,3Z" style="fill:#c4c4c4"></path><path d="M538.61,168.28H490.47a1.5,1.5,0,0,1,0-3h48.14a1.5,1.5,0,0,1,0,3Z" style="fill:#263238"></path><path d="M465.07,255.46H448.58a1.5,1.5,0,0,1,0-3h16.49a1.5,1.5,0,0,1,0,3Z" style="fill:#263238"></path><path d="M510.53,265.15H448.58a1.5,1.5,0,0,1,0-3h61.95a1.5,1.5,0,0,1,0,3Z" style="fill:#c4c4c4"></path><path d="M606.35,265.15h-62a1.5,1.5,0,0,1,0-3h62a1.5,1.5,0,0,1,0,3Z" style="fill:#263238"></path><path d="M539.05,265.15H514.54a1.5,1.5,0,0,1,0-3h24.51a1.5,1.5,0,0,1,0,3Z" style="fill:#263238"></path><path d="M484.23,274.83H448.58a1.5,1.5,0,0,1,0-3h35.65a1.5,1.5,0,0,1,0,3Z" style="fill:#263238"></path><path d="M524.34,274.83H488.69a1.5,1.5,0,0,1,0-3h35.65a1.5,1.5,0,0,1,0,3Z" style="fill:#263238"></path><path d="M564.46,274.83H528.8a1.5,1.5,0,0,1,0-3h35.66a1.5,1.5,0,0,1,0,3Z" style="fill:#c4c4c4"></path><path d="M584.07,274.83H568.91a1.5,1.5,0,0,1,0-3h15.16a1.5,1.5,0,0,1,0,3Z" style="fill:#263238"></path><path d="M486,255.46H469.52a1.5,1.5,0,0,1,0-3H486a1.5,1.5,0,0,1,0,3Z" style="fill:#263238"></path><path d="M584.07,255.46h-16.5a1.5,1.5,0,0,1,0-3h16.5a1.5,1.5,0,0,1,0,3Z" style="fill:#263238"></path><path d="M562.23,255.46H545.74a1.5,1.5,0,0,1,0-3h16.49a1.5,1.5,0,0,1,0,3Z" style="fill:#c4c4c4"></path><path d="M538.61,255.46H490.47a1.5,1.5,0,0,1,0-3h48.14a1.5,1.5,0,0,1,0,3Z" style="fill:#263238"></path><path d="M557.77,138.71H541.28a1.5,1.5,0,0,1,0-3h16.49a1.5,1.5,0,0,1,0,3Z" style="fill:#263238"></path><path d="M535.93,138.71H519.44a1.5,1.5,0,0,1,0-3h16.49a1.5,1.5,0,0,1,0,3Z" style="fill:#263238"></path><path d="M512.31,138.71H464.18a1.5,1.5,0,0,1,0-3h48.13a1.5,1.5,0,0,1,0,3Z" style="fill:#263238"></path><path d="M557.77,156H541.28a1.5,1.5,0,0,1,0-3h16.49a1.5,1.5,0,0,1,0,3Z" style="fill:#263238"></path><path d="M535.93,156H519.44a1.5,1.5,0,0,1,0-3h16.49a1.5,1.5,0,0,1,0,3Z" style="fill:#263238"></path><path d="M512.31,156H464.18a1.5,1.5,0,0,1,0-3h48.13a1.5,1.5,0,0,1,0,3Z" style="fill:#c4c4c4"></path><path d="M480.67,147.38H464.18a1.5,1.5,0,1,1,0-3h16.49a1.5,1.5,0,0,1,0,3Z" style="fill:#263238"></path><path d="M502.51,147.38H486a1.5,1.5,0,0,1,0-3h16.5a1.5,1.5,0,0,1,0,3Z" style="fill:#263238"></path><path d="M557.77,147.38H509.64a1.5,1.5,0,0,1,0-3h48.13a1.5,1.5,0,0,1,0,3Z" style="fill:#c4c4c4"></path><path d="M557.77,199.38H541.28a1.5,1.5,0,0,1,0-3h16.49a1.5,1.5,0,0,1,0,3Z" style="fill:#263238"></path><path d="M535.93,199.38H519.44a1.5,1.5,0,0,1,0-3h16.49a1.5,1.5,0,0,1,0,3Z" style="fill:#263238"></path><path d="M512.31,199.38H464.18a1.5,1.5,0,1,1,0-3h48.13a1.5,1.5,0,0,1,0,3Z" style="fill:#263238"></path><path d="M557.77,216.71H541.28a1.5,1.5,0,0,1,0-3h16.49a1.5,1.5,0,0,1,0,3Z" style="fill:#263238"></path><path d="M535.93,216.71H519.44a1.5,1.5,0,0,1,0-3h16.49a1.5,1.5,0,0,1,0,3Z" style="fill:#263238"></path><path d="M512.31,216.71H464.18a1.5,1.5,0,0,1,0-3h48.13a1.5,1.5,0,0,1,0,3Z" style="fill:#c4c4c4"></path><path d="M480.67,208.05H464.18a1.5,1.5,0,0,1,0-3h16.49a1.5,1.5,0,0,1,0,3Z" style="fill:#263238"></path><path d="M502.51,208.05H486a1.5,1.5,0,0,1,0-3h16.5a1.5,1.5,0,0,1,0,3Z" style="fill:#263238"></path><path d="M557.77,208.05H509.64a1.5,1.5,0,0,1,0-3h48.13a1.5,1.5,0,0,1,0,3Z" style="fill:#c4c4c4"></path><path d="M480.67,226.91H464.18a1.5,1.5,0,0,1,0-3h16.49a1.5,1.5,0,0,1,0,3Z" style="fill:#263238"></path><path d="M502.51,226.91H486a1.5,1.5,0,0,1,0-3h16.5a1.5,1.5,0,0,1,0,3Z" style="fill:#263238"></path><path d="M557.77,226.91H509.64a1.5,1.5,0,0,1,0-3h48.13a1.5,1.5,0,0,1,0,3Z" style="fill:#c4c4c4"></path><path d="M480.67,244.24H464.18a1.5,1.5,0,0,1,0-3h16.49a1.5,1.5,0,1,1,0,3Z" style="fill:#263238"></path><path d="M502.51,244.24H486a1.5,1.5,0,0,1,0-3h16.5a1.5,1.5,0,0,1,0,3Z" style="fill:#263238"></path><path d="M557.77,244.24H509.64a1.5,1.5,0,0,1,0-3h48.13a1.5,1.5,0,0,1,0,3Z" style="fill:#c4c4c4"></path><path d="M557.77,235.58H541.28a1.5,1.5,0,0,1,0-3h16.49a1.5,1.5,0,0,1,0,3Z" style="fill:#263238"></path><path d="M535.93,235.58H519.44a1.5,1.5,0,0,1,0-3h16.49a1.5,1.5,0,0,1,0,3Z" style="fill:#263238"></path><path d="M512.31,235.58H464.18a1.5,1.5,0,0,1,0-3h48.13a1.5,1.5,0,0,1,0,3Z" style="fill:#c4c4c4"></path><rect x="437.19" y="104.28" width="5.27" height="5.95" style="fill:#263238"></rect><rect x="437.19" y="114.05" width="5.27" height="5.95" style="fill:#263238"></rect><rect x="437.19" y="123.82" width="5.27" height="5.95" style="fill:#263238"></rect><rect x="437.19" y="133.6" width="5.27" height="5.95" style="fill:#263238"></rect><rect x="437.19" y="143.37" width="5.27" height="5.95" style="fill:#263238"></rect><rect x="437.19" y="153.14" width="5.27" height="5.95" style="fill:#263238"></rect><rect x="437.19" y="162.91" width="5.27" height="5.95" style="fill:#263238"></rect><rect x="437.19" y="172.69" width="5.27" height="5.95" style="fill:#263238"></rect><rect x="437.19" y="182.46" width="5.27" height="5.95" style="fill:#263238"></rect><rect x="437.19" y="192.23" width="5.27" height="5.95" style="fill:#263238"></rect><rect x="437.19" y="202" width="5.27" height="5.95" style="fill:#263238"></rect><rect x="437.19" y="211.78" width="5.27" height="5.95" style="fill:#263238"></rect><rect x="437.19" y="221.55" width="5.27" height="5.95" style="fill:#263238"></rect><rect x="437.19" y="231.32" width="5.27" height="5.95" style="fill:#263238"></rect><rect x="437.19" y="241.09" width="5.27" height="5.95" style="fill:#263238"></rect><rect x="437.19" y="250.87" width="5.27" height="5.95" style="fill:#263238"></rect><rect x="437.19" y="260.64" width="5.27" height="5.95" style="fill:#263238"></rect><rect x="437.19" y="270.41" width="5.27" height="5.95" style="fill:#263238"></rect></g><g id="freepik--Documents--inject-38"><rect x="167.6" y="168.01" width="142.46" height="114.54" transform="translate(13.55 464.11) rotate(-90)" style="fill:#fff"></rect><path d="M296.1,297H181.56a.51.51,0,0,1-.5-.5V154.05a.5.5,0,0,1,.5-.5H296.1a.5.5,0,0,1,.5.5V296.51A.5.5,0,0,1,296.1,297Zm-114-1H295.6V154.55H182.06Z" style="fill:#263238"></path><path d="M280.5,273.81H199a.5.5,0,0,1,0-1H280.5a.5.5,0,0,1,0,1Z" style="fill:#263238"></path><path d="M280.5,257.8H199a.5.5,0,0,1,0-1H280.5a.5.5,0,0,1,0,1Z" style="fill:#263238"></path><path d="M280.5,241.79H199a.51.51,0,0,1-.5-.5.5.5,0,0,1,.5-.5H280.5a.5.5,0,0,1,.5.5A.5.5,0,0,1,280.5,241.79Z" style="fill:#263238"></path><path d="M280.5,225.78H199a.51.51,0,0,1-.5-.5.5.5,0,0,1,.5-.5H280.5a.5.5,0,0,1,.5.5A.5.5,0,0,1,280.5,225.78Z" style="fill:#263238"></path><path d="M280.5,209.77H199a.51.51,0,0,1-.5-.5.5.5,0,0,1,.5-.5H280.5a.5.5,0,0,1,.5.5A.5.5,0,0,1,280.5,209.77Z" style="fill:#263238"></path><path d="M280.5,193.75H199a.5.5,0,0,1-.5-.5.51.51,0,0,1,.5-.5H280.5a.5.5,0,0,1,.5.5A.5.5,0,0,1,280.5,193.75Z" style="fill:#263238"></path><path d="M280.5,177.74H199a.5.5,0,0,1-.5-.5.51.51,0,0,1,.5-.5H280.5a.5.5,0,0,1,.5.5A.5.5,0,0,1,280.5,177.74Z" style="fill:#263238"></path><rect x="256.12" y="153.6" width="39.63" height="91.59" style="fill:#263238"></rect><path d="M295.75,245.69H256.12a.51.51,0,0,1-.5-.5V153.6a.5.5,0,0,1,.5-.5h39.63a.5.5,0,0,1,.5.5v91.59A.5.5,0,0,1,295.75,245.69Zm-39.13-1h38.63V154.1H256.62Z" style="fill:#263238"></path><rect x="246.72" y="112.01" width="142.46" height="114.54" transform="translate(148.66 487.23) rotate(-90)" style="fill:#fff"></rect><path d="M375.22,241H260.68a.5.5,0,0,1-.5-.5V98.05a.5.5,0,0,1,.5-.5H375.22a.51.51,0,0,1,.5.5V240.51A.5.5,0,0,1,375.22,241Zm-114-1H374.72V98.55H261.18Z" style="fill:#263238"></path><path d="M359.62,217.82H278.11a.5.5,0,0,1-.5-.5.5.5,0,0,1,.5-.5h81.51a.5.5,0,0,1,.5.5A.51.51,0,0,1,359.62,217.82Z" style="fill:#263238"></path><path d="M359.62,201.81H278.11a.5.5,0,0,1-.5-.5.5.5,0,0,1,.5-.5h81.51a.5.5,0,0,1,.5.5A.51.51,0,0,1,359.62,201.81Z" style="fill:#263238"></path><path d="M359.62,185.8H278.11a.5.5,0,0,1-.5-.5.5.5,0,0,1,.5-.5h81.51a.5.5,0,0,1,.5.5A.51.51,0,0,1,359.62,185.8Z" style="fill:#263238"></path><path d="M359.62,169.78H278.11a.5.5,0,0,1-.5-.5.5.5,0,0,1,.5-.5h81.51a.51.51,0,0,1,.5.5A.5.5,0,0,1,359.62,169.78Z" style="fill:#263238"></path><path d="M359.62,153.77H278.11a.5.5,0,0,1-.5-.5.5.5,0,0,1,.5-.5h81.51a.51.51,0,0,1,.5.5A.5.5,0,0,1,359.62,153.77Z" style="fill:#263238"></path><path d="M359.62,137.76H278.11a.5.5,0,0,1-.5-.5.5.5,0,0,1,.5-.5h81.51a.51.51,0,0,1,.5.5A.5.5,0,0,1,359.62,137.76Z" style="fill:#263238"></path><path d="M359.62,121.75H278.11a.5.5,0,0,1,0-1h81.51a.5.5,0,0,1,0,1Z" style="fill:#263238"></path></g><g id="freepik--Folder--inject-38"><polygon points="334.32 336.57 181.19 336.57 196.49 442.83 347.65 442.83 334.32 336.57" style="fill:#263238"></polygon><path d="M347.65,443.33H196.49a.49.49,0,0,1-.49-.43L180.69,336.64a.49.49,0,0,1,.12-.4.49.49,0,0,1,.38-.17H334.32a.51.51,0,0,1,.5.44l13.32,106.26a.47.47,0,0,1-.12.39A.48.48,0,0,1,347.65,443.33Zm-150.73-1H347.08l-13.2-105.26H181.76Z" style="fill:#263238"></path><rect x="216.06" y="277.33" width="10.13" height="18.49" style="fill:#263238"></rect><path d="M226.18,296.32H216.06a.5.5,0,0,1-.5-.5V277.33a.5.5,0,0,1,.5-.5h10.12a.5.5,0,0,1,.5.5v18.49A.5.5,0,0,1,226.18,296.32Zm-9.62-1h9.12V277.83h-9.12Z" style="fill:#263238"></path><rect x="207.16" y="284.57" width="142.46" height="114.54" transform="translate(-63.45 620.23) rotate(-90)" style="fill:#fff"></rect><path d="M335.66,413.57H221.12a.5.5,0,0,1-.5-.5V270.61a.5.5,0,0,1,.5-.5H335.66a.5.5,0,0,1,.5.5V413.07A.5.5,0,0,1,335.66,413.57Zm-114-1H335.16V271.11H221.62Z" style="fill:#263238"></path><path d="M320.06,390.38H238.55a.5.5,0,0,1-.5-.5.5.5,0,0,1,.5-.5h81.51a.5.5,0,0,1,.5.5A.51.51,0,0,1,320.06,390.38Z" style="fill:#263238"></path><path d="M320.06,374.36H238.55a.5.5,0,0,1-.5-.5.5.5,0,0,1,.5-.5h81.51a.51.51,0,0,1,.5.5A.5.5,0,0,1,320.06,374.36Z" style="fill:#263238"></path><path d="M320.06,358.35H238.55a.5.5,0,0,1-.5-.5.5.5,0,0,1,.5-.5h81.51a.51.51,0,0,1,.5.5A.5.5,0,0,1,320.06,358.35Z" style="fill:#263238"></path><path d="M320.06,342.34H238.55a.5.5,0,0,1,0-1h81.51a.5.5,0,0,1,0,1Z" style="fill:#263238"></path><path d="M320.06,326.33H238.55a.5.5,0,0,1,0-1h81.51a.5.5,0,0,1,0,1Z" style="fill:#263238"></path><path d="M320.06,310.32H238.55a.5.5,0,0,1-.5-.5.5.5,0,0,1,.5-.5h81.51a.5.5,0,0,1,.5.5A.51.51,0,0,1,320.06,310.32Z" style="fill:#263238"></path><path d="M320.06,294.31H238.55a.5.5,0,0,1-.5-.5.5.5,0,0,1,.5-.5h81.51a.5.5,0,0,1,.5.5A.51.51,0,0,1,320.06,294.31Z" style="fill:#263238"></path><path d="M347.67,341.86v-3.63a4.82,4.82,0,0,0-4.82-4.83H281.41a4.83,4.83,0,0,0-4.83,4.83h0a3.64,3.64,0,0,1-3.63,3.63H206l-9.48,101H347.6l9.48-101Z" style="fill:#FFFFFF"></path><path d="M347.6,443.33H196.49a.52.52,0,0,1-.37-.16.56.56,0,0,1-.13-.39l9.48-101a.5.5,0,0,1,.5-.45h67a3.13,3.13,0,0,0,3.13-3.13,5.33,5.33,0,0,1,5.33-5.33h61.44a5.33,5.33,0,0,1,5.32,5.33v3.13h8.91a.52.52,0,0,1,.37.16.5.5,0,0,1,.12.39l-9.48,101A.5.5,0,0,1,347.6,443.33Zm-150.56-1h150.1l9.39-100h-8.86a.51.51,0,0,1-.5-.5v-3.63a4.33,4.33,0,0,0-4.32-4.33H281.41a4.33,4.33,0,0,0-4.33,4.33,4.14,4.14,0,0,1-4.13,4.13H206.43Z" style="fill:#263238"></path></g><g id="freepik--character-2--inject-38"><path d="M621.32,434.91s-3.58,1.74-8.65,4.64-8.14,3.8-7.6,5.24,4.34,1.81,10.86,2a46,46,0,0,0,11.76-1.45c.73,0,6,.18,8-.55s.55-6.15.55-6.15S624.36,433.71,621.32,434.91Z" style="fill:#fff"></path><path d="M616.94,447.3h-1c-7.16-.2-10.67-.6-11.32-2.32-.54-1.45,1.08-2.29,4-3.82,1.1-.57,2.35-1.22,3.78-2,5-2.87,8.65-4.63,8.68-4.65l0,0c3.14-1.24,14,3.23,15.25,3.74a.5.5,0,0,1,.29.33c.26,1,1.45,5.92-.85,6.75-1.67.61-5.22.63-7.75.58h-.39a9,9,0,0,0-1,.22A40.46,40.46,0,0,1,616.94,447.3Zm4.58-11.93c-.28.13-3.79,1.86-8.6,4.61-1.45.83-2.71,1.48-3.82,2.06-2.2,1.14-3.79,2-3.56,2.58.48,1.28,5.62,1.53,10.4,1.67a38.3,38.3,0,0,0,10.48-1.21,6.83,6.83,0,0,1,1.27-.24h.41c1.41,0,5.7.1,7.38-.51,1.13-.41.71-3.62.29-5.32C632.37,437.61,623.84,434.49,621.52,435.37Z" style="fill:#263238"></path><path d="M661,442.15s-3.7,7.74-5,9.48.43,2.61,3.48,3.7,7.84-1.52,11.54-3.27,4.36-9.8,4.36-9.8Z" style="fill:#fff"></path><path d="M661.14,456.09a5.35,5.35,0,0,1-1.8-.29c-2.46-.88-3.86-1.56-4.18-2.64a2,2,0,0,1,.47-1.83c1.26-1.69,4.92-9.32,5-9.39a.49.49,0,0,1,.45-.29h0l14.37.11a.48.48,0,0,1,.37.17.51.51,0,0,1,.13.37c0,.34-.72,8.37-4.64,10.22l-1.23.58C667.09,454.52,663.83,456.09,661.14,456.09Zm.21-13.44a99,99,0,0,1-4.92,9.28c-.43.57-.34.85-.32.94.23.74,2,1.41,3.57,2,2.52.9,6.63-1.07,9.92-2.66l1.24-.59c2.87-1.35,3.79-7.06,4-8.85Z" style="fill:#263238"></path><path d="M680.7,299s4.57,10,4.32,20-10.24,50.47-9.74,55.46,5,9,4.5,21S676,434.66,676,434.66s.75,4.49.25,6.24a13.8,13.8,0,0,1-1.25,3h-5.25c-3,0-8.74-1-8.74-1.75a61.3,61.3,0,0,1,1.75-6l.25-5.75s-4.75-49.21-5.75-57.45-4.74-47.47-4.74-47.47-8.5,49.46-8.75,51.21,1.25,12-1.5,19.49-4.49,25.73-4.49,29.72-1,14.49-1,14.49-5,0-7.75-1.25-4.74-3.24-5.49-3.49l-2.25-.75a29,29,0,0,1,.75-3.75,35.51,35.51,0,0,1,2.5-5.25l.75-33.47s-.5-18.48,0-21.48a36.49,36.49,0,0,0,.25-7c0-1,0-38.22,1.25-46.22a181.41,181.41,0,0,0,1.59-18.32l48.87-5.66Z" style="fill:#263238"></path><path d="M675,444.4h-5.25c-1.31,0-9.24-.65-9.24-2.25a52.45,52.45,0,0,1,1.75-6.09l.25-5.67c0-.42-4.76-49.23-5.74-57.37-.81-6.65-3.43-33.76-4.39-43.76-2,11.51-7.91,46.07-8.11,47.51a20.3,20.3,0,0,0,.05,2.59c.18,3.93.53,11.26-1.58,17-2.66,7.26-4.46,25.22-4.46,29.56,0,4-1,14.1-1,14.53a.5.5,0,0,1-.5.45c-.21,0-5.14,0-7.95-1.29a22.21,22.21,0,0,1-4.21-2.64,8.33,8.33,0,0,0-1.24-.84l-2.25-.75a.49.49,0,0,1-.33-.53,29.41,29.41,0,0,1,.76-3.83,34.14,34.14,0,0,1,2.48-5.24l.75-33.35c0-.73-.5-18.54,0-21.55a30.28,30.28,0,0,0,.27-6.11c0-.33,0-.61,0-.81,0-1.56,0-38.35,1.25-46.29a182.63,182.63,0,0,0,1.59-18.27.5.5,0,0,1,.45-.48l48.86-5.66a.51.51,0,0,1,.48.23l3.42,5.26,0,.06c0,.11,4.61,10.2,4.36,20.19-.13,5.25-2.85,18.45-5.47,31.21-2.32,11.25-4.51,21.88-4.27,24.2a18.53,18.53,0,0,0,1.56,5.09,34.06,34.06,0,0,1,2.94,16c-.49,11.57-3.56,37.64-3.75,39.19.1.61.72,4.66.23,6.39a14.51,14.51,0,0,1-1.3,3.12A.51.51,0,0,1,675,444.4ZM661.55,442c.8.53,5.43,1.38,8.23,1.38h5a13.19,13.19,0,0,0,1.07-2.63c.38-1.35-.06-4.81-.26-6a.66.66,0,0,1,0-.14c0-.27,3.25-27.35,3.75-39.18a33,33,0,0,0-2.87-15.54,19.3,19.3,0,0,1-1.63-5.38c-.25-2.46,1.86-12.67,4.29-24.49,2.49-12.13,5.32-25.87,5.45-31,.24-9.49-4-19.08-4.26-19.72l-3.23-5-48.13,5.57c-.09,2.05-.49,10.95-1.59,18-1.23,7.86-1.24,44.58-1.24,46.14,0,.19,0,.46,0,.78a32.65,32.65,0,0,1-.28,6.3c-.48,2.92,0,21.2,0,21.39l-.75,33.5a.48.48,0,0,1-.07.23,36,36,0,0,0-2.45,5.14,28.29,28.29,0,0,0-.68,3.26l1.86.62a7,7,0,0,1,1.52,1,22,22,0,0,0,4,2.53c2.15,1,5.81,1.16,7.08,1.2.2-2.07,1-10.53,1-14,0-4.38,1.83-22.54,4.53-29.9,2-5.56,1.69-12.75,1.51-16.62a19,19,0,0,1,0-2.77c.25-1.73,8.4-49.21,8.74-51.23a.49.49,0,0,1,.52-.41.5.5,0,0,1,.48.45c0,.39,3.75,39.31,4.74,47.46s5.7,57,5.75,57.46l-.25,5.82a.31.31,0,0,1,0,.13C662.48,438.67,661.67,441.31,661.55,442Z" style="fill:#263238"></path><path d="M678.34,291.36,680.7,299s-16,10.64-31.31,11.43-20.25-2.92-21.43-3.91.45-7.12.45-7.12,17.11,1.76,26-.4S678.34,291.36,678.34,291.36Z" style="fill:#FFFFFF"></path><path d="M645.3,311.06c-10.94,0-15.72-2.52-17.66-4.13-1.32-1.1-.11-6.13.29-7.64a.48.48,0,0,1,.53-.37c.17,0,17.12,1.73,25.78-.38s23.78-7.6,23.93-7.65a.51.51,0,0,1,.4,0,.5.5,0,0,1,.25.3l2.36,7.67a.49.49,0,0,1-.2.56c-.16.11-16.27,10.72-31.56,11.51C648,311,646.58,311.06,645.3,311.06ZM628.79,300c-.68,2.72-1,5.76-.51,6.2,2.06,1.71,7.52,4.48,21.09,3.79,13.85-.71,28.44-9.68,30.74-11.14L678,292c-2.69,1-15.67,5.58-23.54,7.51C646.32,301.5,631.55,300.22,628.79,300Z" style="fill:#263238"></path><polygon points="627.99 276.34 620.22 284.71 618.13 286.95 628.29 289.79 629.34 276.64 627.99 276.34" style="fill:#FFFFFF"></polygon><path d="M628.29,290.29a.3.3,0,0,1-.13,0L618,287.43a.49.49,0,0,1-.34-.34.5.5,0,0,1,.11-.48L627.63,276a.49.49,0,0,1,.47-.15l1.35.3a.5.5,0,0,1,.39.53l-1.05,13.15a.49.49,0,0,1-.21.37A.52.52,0,0,1,628.29,290.29Zm-9.23-3.6,8.78,2.46,1-12.12-.64-.14Z" style="fill:#263238"></path><path d="M658.16,219s16.65,4.47,17.73,6.26-4.17,41.14-4.92,44.15,1.5,12.44,3,14.52,5.85,4.33,5.85,7.91-24.32,12.44-33,12.44-18.33-1.45-19.27-2.39-.15-4.2-.15-5,.19-22.05.19-22.05-4.9-5.85-6-12.82.41-15.84.41-15.84-1.44-12.72-.18-17.55,10.74-8.24,10.74-8.24S641.86,216.44,658.16,219Z" style="fill:#FFFFFF"></path><path d="M646.84,304.73c-8.14,0-18.41-1.33-19.62-2.54-.9-.89-.59-3.05-.39-4.47a8.1,8.1,0,0,0,.09-.84c0-.72.17-19.67.19-21.88-.78-1-5-6.4-6-12.91-1.09-6.73.24-15,.39-15.94-.12-1.13-1.39-12.93-.16-17.66,1.31-5,10.66-8.44,11.06-8.58s9.6-4,25.85-1.46h.06c2.81.76,16.9,4.63,18,6.5,1.25,2.07-4.27,42.15-4.86,44.52-.72,2.9,1.58,12.23,2.94,14.1a14,14,0,0,0,1.93,1.94c1.79,1.6,4,3.58,4,6.27C680.33,296.18,654.75,304.73,646.84,304.73Zm.81-86.11c-9.51,0-14.83,2.19-14.9,2.22s-9.29,3.38-10.46,7.9c-1.22,4.69.18,17.24.19,17.37a.33.33,0,0,1,0,.14c0,.09-1.51,8.87-.41,15.68S628,274.45,628,274.51a.47.47,0,0,1,.12.32c0,.22-.19,21.31-.19,22.05a8.09,8.09,0,0,1-.1,1c-.14,1-.44,3.1.1,3.64.78.74,10,2.24,18.92,2.24,9.28,0,32.49-9.11,32.49-11.94,0-2.24-2-4-3.67-5.52a14.6,14.6,0,0,1-2.08-2.1c-1.52-2.08-3.91-11.69-3.1-14.93.92-3.69,5.79-41.79,5-43.79-.6-1-9.31-3.84-17.4-6A67.81,67.81,0,0,0,647.65,218.62Z" style="fill:#263238"></path><path d="M644.37,272.79a.59.59,0,0,1-.23-.05,28.9,28.9,0,0,1-6.14-4.28.5.5,0,0,1,0-.71.5.5,0,0,1,.7,0,27.77,27.77,0,0,0,5.93,4.13.49.49,0,0,1,.22.67A.48.48,0,0,1,644.37,272.79Z" style="fill:#263238"></path><path d="M648.76,274.23h0a9.5,9.5,0,0,1-2.29-.52.5.5,0,0,1-.32-.64.5.5,0,0,1,.63-.31,8.44,8.44,0,0,0,2,.47.5.5,0,0,1,.48.52A.51.51,0,0,1,648.76,274.23Z" style="fill:#263238"></path><path d="M629.37,219s-1.82,5.22-.49,7.65,6.44,2.79,6.44,2.79-.49-1.46.61-4.13,2.91-6.92,2.91-6.92Z" style="fill:#263238"></path><path d="M635.32,229.92h0c-.22,0-5.39-.41-6.84-3s.37-7.83.45-8.06a.48.48,0,0,1,.44-.33l9.47-.61a.54.54,0,0,1,.44.21.5.5,0,0,1,0,.49s-1.82,4.24-2.91,6.91a6.18,6.18,0,0,0-.59,3.79.54.54,0,0,1-.09.46A.49.49,0,0,1,635.32,229.92Zm-5.58-10.46c-.51,1.6-1.36,5.22-.42,6.93s3.78,2.25,5.41,2.47a8.49,8.49,0,0,1,.73-3.76c.82-2,2-4.84,2.6-6.18Z" style="fill:#263238"></path><path d="M617.35,202s.24,4.13,1,5.1,2.79,0,3.16,2.67.48,7.16,1.45,7.53,3.65-.12,3.65-.12,4.49,4.13,5.83,4.73,1.7.73,2.67,0l3.52-2.67s-1.94,5.59-1.22,7.29,3.4,4.49,6.44,1.7,4.86-9.11,4.86-9.11l-8-22.71-22-5.22S616.26,200.28,617.35,202Z" style="fill:#fff"></path><path d="M641.17,229.89a3.2,3.2,0,0,1-.73-.08,5.48,5.48,0,0,1-3.52-3.11c-.55-1.28.18-4.27.72-6.12l-2.26,1.71c-1.2.9-1.81.68-3.18.06s-4.85-3.81-5.78-4.66a9.72,9.72,0,0,1-3.66.06c-1-.37-1.22-2.4-1.53-5.69-.08-.8-.16-1.58-.25-2.24-.18-1.38-.82-1.52-1.61-1.7a2.32,2.32,0,0,1-1.45-.74c-.74-1-1-4.34-1.06-5.26-1-2,.94-9.56,1.34-11.08a.51.51,0,0,1,.6-.36l22,5.23a.46.46,0,0,1,.35.32l8,22.7a.55.55,0,0,1,0,.31c-.08.26-1.9,6.48-5,9.34A4.4,4.4,0,0,1,641.17,229.89Zm-2.57-11.17a.46.46,0,0,1,.29.1.49.49,0,0,1,.18.56c-.73,2.09-1.7,5.82-1.23,6.93a4.55,4.55,0,0,0,2.81,2.53,3.17,3.17,0,0,0,2.83-1c2.64-2.43,4.37-7.76,4.67-8.73l-7.87-22.3-21.23-5c-.95,3.69-1.92,8.94-1.28,9.94a.49.49,0,0,1,.08.24c.09,1.54.41,4.21.87,4.83.14.19.42.26.87.36a2.63,2.63,0,0,1,2.38,2.54c.1.68.17,1.47.25,2.29.16,1.58.44,4.53.9,4.85a9.94,9.94,0,0,0,3.37-.16.53.53,0,0,1,.43.13c1.23,1.13,4.66,4.18,5.69,4.65,1.28.58,1.42.61,2.17.05l3.52-2.67A.45.45,0,0,1,638.6,218.72Z" style="fill:#263238"></path><path d="M639.57,200.16s3.89,17.12,4.86,23.55-.73,9-.73,9,9.71-.61,13.11-6.56,6.32-9.23,4.38-14.93-7.29-23.8-12.39-30-16.39-7.65-20.64-6.92-9.11,6.32-11.3,10.44-3.64,12.39-5.1,13.24-2.79,2.91-.6,3.52a27.45,27.45,0,0,0,6.19.49,31.2,31.2,0,0,1,.85-5.71c.61-1.82,1.09-2.91,1.09-2.91s.73,2.06,8.87,4.49,11.17,1.21,11.17,1.21Z" style="fill:#263238"></path><path d="M643.7,233.2a.51.51,0,0,1-.42-.78s1.58-2.52.65-8.63c-.95-6.35-4.81-23.35-4.85-23.52h0l-.13-.58c-1.23.25-4.56.55-10.94-1.35-5.43-1.62-7.67-3.11-8.58-4-.19.5-.46,1.21-.76,2.1a30.74,30.74,0,0,0-.82,5.58.51.51,0,0,1-.49.47A28,28,0,0,1,611,202c-1.13-.31-1.44-1-1.5-1.45-.15-1.11.89-2.34,2-3,.61-.35,1.5-3.27,2.21-5.62a46.33,46.33,0,0,1,2.7-7.42c2.11-4,7.11-9.92,11.65-10.7s16,.93,21.11,7.1c4.42,5.35,9,19.39,11.42,26.93.42,1.28.78,2.38,1.06,3.22,1.72,5.06-.23,8.32-2.93,12.83-.48.79-1,1.62-1.48,2.51-3.5,6.11-13.11,6.78-13.52,6.81Zm-3.64-33.15c.06.27,3.9,17.23,4.86,23.59.69,4.54.07,7.22-.4,8.47,2.41-.31,9.21-1.58,11.86-6.22.51-.89,1-1.73,1.49-2.52,2.66-4.44,4.42-7.37,2.84-12-.28-.84-.64-1.94-1.06-3.23-2.43-7.48-6.94-21.4-11.24-26.61-4.83-5.87-15.7-7.51-20.17-6.75-4.2.72-8.93,6.39-10.94,10.19a46.19,46.19,0,0,0-2.63,7.24c-1.09,3.6-1.75,5.67-2.66,6.19s-1.57,1.44-1.5,2c0,.28.3.49.78.62a25,25,0,0,0,5.59.48,28.73,28.73,0,0,1,.84-5.38c.61-1.82,1.09-2.91,1.11-3a.49.49,0,0,1,.48-.29.48.48,0,0,1,.45.33h0s1,1.92,8.54,4.18c7.8,2.33,10.82,1.24,10.85,1.23a.5.5,0,0,1,.67.36Z" style="fill:#263238"></path><path d="M636.43,202.32c-11,0-17.47-8.57-17.54-8.67a.5.5,0,1,1,.8-.59c.08.1,7.64,10.17,20.4,7.94a.5.5,0,0,1,.58.41.48.48,0,0,1-.41.57A21.52,21.52,0,0,1,636.43,202.32Z" style="fill:#263238"></path><path d="M622.57,206a.56.56,0,0,1-.27-.08.5.5,0,0,1-.15-.69,4.5,4.5,0,0,1,5.46-1.9.5.5,0,0,1,.28.65.49.49,0,0,1-.65.28c-2.6-1-4.18,1.4-4.25,1.51A.48.48,0,0,1,622.57,206Z" style="fill:#263238"></path><path d="M630.83,216.32a.51.51,0,0,1-.4-.2.5.5,0,0,1,.1-.7,2.84,2.84,0,0,0,1-2.45.5.5,0,0,1,.43-.56.51.51,0,0,1,.56.43,3.81,3.81,0,0,1-1.41,3.38A.49.49,0,0,1,630.83,216.32Z" style="fill:#263238"></path><path d="M625.54,208.6c.3.82.92,1.35,1.39,1.18s.62-1,.32-1.8-.92-1.34-1.39-1.17S625.24,207.78,625.54,208.6Z" style="fill:#263238"></path><polygon points="638.6 219.22 641.63 216.06 639.57 224.93 638.6 219.22" style="fill:#263238"></polygon><path d="M639.57,225.43h0a.5.5,0,0,1-.48-.42l-1-5.71a.5.5,0,0,1,.13-.43l3-3.15a.5.5,0,0,1,.6-.1.51.51,0,0,1,.25.56L640.06,225A.5.5,0,0,1,639.57,225.43Zm-.44-6,.52,3,1.09-4.68Z" style="fill:#263238"></path><polygon points="625.24 302.7 654.48 289.1 610.33 283.25 587.67 292.76 625.24 302.7" style="fill:#d1d1d1"></polygon><path d="M625.24,303.2l-.13,0-37.56-9.94a.5.5,0,0,1-.07-.95l22.66-9.5a.57.57,0,0,1,.26,0l44.14,5.85a.49.49,0,0,1,.43.42.48.48,0,0,1-.28.52l-29.24,13.6A.5.5,0,0,1,625.24,303.2Zm-36-10.55,36,9.52,27.51-12.8-42.31-5.6Z" style="fill:#263238"></path><polygon points="624.14 300.12 645.63 290.13 613.18 285.83 596.52 292.81 624.14 300.12" style="fill:#828282"></polygon><path d="M624.14,300.62H624l-27.62-7.31a.5.5,0,0,1-.06-.95l16.65-7a.46.46,0,0,1,.26,0l32.46,4.3a.51.51,0,0,1,.43.42.5.5,0,0,1-.29.53l-21.49,10A.52.52,0,0,1,624.14,300.62Zm-26.07-7.91,26,6.88,19.78-9.19-30.62-4.06Z" style="fill:#263238"></path><polygon points="625.24 302.7 611.5 270.68 571.59 264.4 587.67 292.76 625.24 302.7" style="fill:#b2b2b2"></polygon><path d="M625.24,303.2l-.13,0-37.56-9.94a.49.49,0,0,1-.31-.24l-16.08-28.36a.49.49,0,0,1,0-.53.5.5,0,0,1,.49-.21l39.91,6.29a.51.51,0,0,1,.38.3l13.74,32a.47.47,0,0,1-.08.52A.51.51,0,0,1,625.24,303.2ZM588,292.33,624.38,302l-13.23-30.82-38.61-6.08Z" style="fill:#263238"></path><path d="M608.43,294.8l3.36,4.53s-1.17,1.32-2.19.88S606.39,293.93,608.43,294.8Z" style="fill:#fff"></path><path d="M610,300.8a1.66,1.66,0,0,1-.64-.13c-1-.45-2.75-4.57-2.19-5.88a1,1,0,0,1,1.42-.45.53.53,0,0,1,.2.16L612.2,299a.5.5,0,0,1,0,.63A3.45,3.45,0,0,1,610,300.8Zm-2-5.59h0a6.15,6.15,0,0,0,.2,1.36,7.62,7.62,0,0,0,1.54,3.18c.41.18,1-.17,1.33-.47l-3-4.06Z" style="fill:#263238"></path><path d="M608.29,298.75a3.27,3.27,0,0,1-2.34-.15c-.88-.58-2.49-5.55-1.76-5.7s2.78,3.22,2.78,3.22Z" style="fill:#fff"></path><path d="M607.16,299.41a2.69,2.69,0,0,1-1.49-.39c-1-.65-2.36-4.84-2.13-6a.72.72,0,0,1,.55-.63c.27-.05,1.08-.21,3.31,3.45l1.33,2.67a.48.48,0,0,1,0,.42.48.48,0,0,1-.31.28A4.8,4.8,0,0,1,607.16,299.41Zm-2.65-5.79c.12,1.21,1.2,4.23,1.71,4.57a2.11,2.11,0,0,0,1.32.19l-1-2A15.77,15.77,0,0,0,604.51,293.62Z" style="fill:#263238"></path><path d="M606,298.6s-3.66-1-4.24-1.61-1.76-6.13-.59-5.4,2.78,4.82,2.78,4.82Z" style="fill:#fff"></path><path d="M606,299.1a.34.34,0,0,1-.14,0c-.89-.24-3.83-1.1-4.46-1.73s-1.72-5.12-1-6.06a.73.73,0,0,1,1-.13c1.21.76,2.65,4.26,2.94,5l2,2.12a.5.5,0,0,1,.06.6A.49.49,0,0,1,606,299.1Zm-4.84-6.87a12.27,12.27,0,0,0,1,4.42,9.71,9.71,0,0,0,2.24.93l-.77-.83a.46.46,0,0,1-.11-.16A17.62,17.62,0,0,0,601.11,292.23Z" style="fill:#263238"></path><path d="M601.71,297s-1.9.3-2.49-.73a4.34,4.34,0,0,1-.14-3.8c.58-1,1.46,1.17,1.46,1.17Z" style="fill:#fff"></path><path d="M601.1,297.54a2.55,2.55,0,0,1-2.31-1,4.84,4.84,0,0,1-.15-4.3.9.9,0,0,1,.85-.52c.72.05,1.26,1.12,1.51,1.76l1.18,3.38a.51.51,0,0,1,0,.42.5.5,0,0,1-.36.24A4.76,4.76,0,0,1,601.1,297.54Zm-1.62-4.76a3.88,3.88,0,0,0,.18,3.24c.22.39.85.5,1.36.51l-.95-2.73A3.92,3.92,0,0,0,599.48,292.78Z" style="fill:#263238"></path><path d="M665.86,222.71s10.21.71,12.17,2.15,15.18,40.73,15.93,45.82-.94,5.66-1.88,5.66-23,7.16-25.64,7.72-3.2.19-4.14-.56-5.47-6.22-4.15-9.43,3.58-3.77,3.58-3.77L676.06,265l-11.28-20.12" style="fill:#FFFFFF"></path><path d="M664.4,284.83a3.38,3.38,0,0,1-2.42-.94c-.94-.75-5.77-6.43-4.29-10,1.4-3.4,3.82-4,3.92-4.06l13.72-5.06-11-19.6a.5.5,0,0,1,.87-.49l11.27,20.11a.51.51,0,0,1,0,.42.48.48,0,0,1-.29.3l-14.33,5.27c-.13,0-2.09.59-3.29,3.49s3,8.07,4,8.85,1.25,1,3.73.47c1.25-.27,7.14-2.11,12.83-3.89,8.58-2.68,12.4-3.85,12.91-3.85a1.22,1.22,0,0,0,1-.42c.43-.5.85-1.72.42-4.67-.87-5.86-14.1-44.12-15.73-45.49-1.52-1.11-9.12-1.86-11.92-2a.5.5,0,0,1-.46-.54.52.52,0,0,1,.53-.46c1.06.07,10.41.77,12.44,2.24,2.3,1.67,15.52,42.06,16.13,46.16.4,2.7.18,4.49-.66,5.46a2.19,2.19,0,0,1-1.72.77c-.59.05-7,2.05-12.61,3.8-6,1.87-11.62,3.63-12.92,3.91A10.09,10.09,0,0,1,664.4,284.83Z" style="fill:#263238"></path><path d="M682.81,267.75a.52.52,0,0,1-.29-.09,12.64,12.64,0,0,0-6.47-2.13.5.5,0,1,1,0-1h0a13.57,13.57,0,0,1,7.05,2.31.51.51,0,0,1,.11.7A.49.49,0,0,1,682.81,267.75Z" style="fill:#263238"></path><path d="M686.92,268.37a.51.51,0,0,1-.37-.17,15.84,15.84,0,0,0-5.94-3.55.5.5,0,1,1,.3-1,16.62,16.62,0,0,1,6.38,3.84.5.5,0,0,1,0,.7A.51.51,0,0,1,686.92,268.37Z" style="fill:#263238"></path><path d="M650.8,276.9s6.41-2.07,7.35-2.83,3-.18,4.15,2.45,0,7,0,7l-7.54,1.88s-1.89.38-3.77-2.82S648.72,277.09,650.8,276.9Z" style="fill:#FFFFFF"></path><path d="M654.58,285.89c-.68,0-2.39-.31-4-3.08-1.51-2.58-2-4.36-1.43-5.43a1.85,1.85,0,0,1,1.57-1c2.45-.79,6.52-2.22,7.15-2.73a2.19,2.19,0,0,1,1.91-.33,4.82,4.82,0,0,1,3,3c1.18,2.76.07,7.11,0,7.29a.5.5,0,0,1-.36.36l-7.54,1.89A2.85,2.85,0,0,1,654.58,285.89Zm4.52-11.62a1,1,0,0,0-.64.19c-1,.79-6.84,2.7-7.51,2.92l-.11,0c-.64.06-.78.34-.83.43-.17.34-.38,1.44,1.41,4.47,1.65,2.81,3.19,2.6,3.25,2.59l7.21-1.8c.22-1,.84-4.29,0-6.37a3.94,3.94,0,0,0-2.33-2.4A1.53,1.53,0,0,0,659.1,274.27Zm-8.3,2.63h0Z" style="fill:#263238"></path><path d="M634.48,281.94s-3.73,1.54-4,2.53-1.43,5.15-1.32,6,0,1.32,1,1.1,2.19-2.52,3.07-4.72,2-5.05,2-5.05Z" style="fill:#fff"></path><path d="M629.78,292.16a1,1,0,0,1-.59-.18,1.39,1.39,0,0,1-.44-1.11l0-.31a22.13,22.13,0,0,1,1-5c.14-.54.26-1,.31-1.23.25-1.12,3.05-2.39,4.25-2.88l.12,0,.77-.11a.51.51,0,0,1,.46.18.49.49,0,0,1,.07.49s-1.09,2.86-2,5.06-2.14,4.73-3.43,5A3.07,3.07,0,0,1,629.78,292.16Zm0-1h0Zm4.65-8.71c-1.76.74-3.34,1.69-3.44,2.08s-.18.71-.32,1.27a28.66,28.66,0,0,0-1,4.59l0,.34a1.84,1.84,0,0,0,0,.37l.29,0c.52-.11,1.56-1.53,2.72-4.41C633.39,285.25,634.07,283.51,634.46,282.5Z" style="fill:#263238"></path><path d="M650.61,278.1s3.62,2.53,3.73,4.06-3.84,4.06-6.37,4.94a22.64,22.64,0,0,1-6.47.88c-.44,0-6.69,4.17-8.23,4.83s-2-.33-2-.33-1.21-.22-1.1-.88a8,8,0,0,1,1-2s.55-2.19,1.2-4.71,4.06-4.28,5.27-4.5S647.53,277,650.61,278.1Z" style="fill:#fff"></path><path d="M632.31,293.53a1.65,1.65,0,0,1-1.33-.61c-.75-.2-1.39-.68-1.27-1.4a7.76,7.76,0,0,1,1-2.1c.11-.42.61-2.4,1.19-4.64.73-2.79,4.39-4.63,5.66-4.86.23,0,.83-.23,1.59-.46,3.16-1,9-2.75,11.61-1.83l.12.07c.64.44,3.82,2.74,4,4.43.14,2-4.29,4.6-6.7,5.44a23.06,23.06,0,0,1-6.64.91c-.21.08-1.94,1.16-3.33,2-1.91,1.19-3.88,2.41-4.7,2.77A2.92,2.92,0,0,1,632.31,293.53Zm16.62-15.16c-2.75,0-7.15,1.34-9.47,2.05-.86.26-1.42.43-1.71.48-1.16.21-4.29,1.92-4.87,4.13-.66,2.52-1.21,4.71-1.21,4.72a.34.34,0,0,1-.07.15,7.51,7.51,0,0,0-.91,1.78,1.47,1.47,0,0,0,.7.31.51.51,0,0,1,.37.28c0,.05.3.51,1.32.08.75-.32,2.78-1.59,4.57-2.7,3-1.89,3.54-2.17,3.85-2.17a21.93,21.93,0,0,0,6.31-.85c2.78-1,6.1-3.41,6-4.43s-2-2.65-3.46-3.64A4.72,4.72,0,0,0,648.93,278.37Z" style="fill:#263238"></path><path d="M631.66,292.83l-.72-.7,5.16-5.27a19.6,19.6,0,0,1,3.68-1.76.5.5,0,0,1,.65.28.51.51,0,0,1-.28.65,22.11,22.11,0,0,0-3.34,1.53C636.37,288,631.66,292.83,631.66,292.83Z" style="fill:#263238"></path><path d="M631.19,290.12a.48.48,0,0,1-.34-.13.5.5,0,0,1,0-.71L637,282.7a.49.49,0,0,1,.7,0,.48.48,0,0,1,0,.7L631.55,290A.46.46,0,0,1,631.19,290.12Z" style="fill:#263238"></path></g></svg>