<svg width="100" height="100" viewBox="0 0 100 100" fill="none" xmlns="http://www.w3.org/2000/svg">
<path d="M84.3881 99.825L83.9053 100C84.0757 99.9639 84.2386 99.9048 84.3881 99.825Z" fill="#263238"/>
<path d="M95.242 76.2016C99.0645 76.692 100 74.2491 100 74.2491C100 74.2491 95.242 76.2016 91.0272 68.6891C88.6331 64.4075 89.8201 56.5447 91.2787 50.5732C94.226 46.3441 98.5012 40.4952 99.0645 33.5605C100.07 21.6525 93.6426 15.6197 86.2289 17.3884C86.2289 17.3884 85.6858 7.32793 75.2544 3.72051C64.823 0.113095 63.1833 3.07258 53.1241 0.883607C43.0649 -1.30536 33.227 0.603427 29.6258 6.26848C26.0246 11.9335 24.7974 22.2217 18.6512 26.2056C12.5051 30.1895 1.75177 39.7772 5.15178 50.5031C8.55179 61.2291 6.62042 64.8978 2.13402 69.9675C-2.35239 75.0371 0.383719 85.0188 8.9441 88.1534C8.9441 88.1534 5.31273 86.4635 7.87783 83.6354C7.87783 83.6354 9.88967 90.3599 16.5992 89.134C23.3086 87.9082 31.8288 87.4967 36.1744 91.6382C40.5199 95.7798 56.4034 96.8918 59.9845 93.7396C63.5656 90.5875 66.3419 93.512 72.8301 96.3664C79.3183 99.2208 86.5207 96.7166 86.5207 96.7166C86.5207 96.7166 85.9171 99.1595 84.368 99.8863C85.6858 99.4047 89.3373 97.8899 90.4035 95.6134C91.4698 93.3369 92.0734 91.1391 90.7958 85.8243C95.2923 84.292 93.2201 81.7003 93.2201 81.7003C97.4651 83.7755 99.4769 77.6463 99.4769 77.6463C95.5237 77.5938 95.242 76.2016 95.242 76.2016Z" fill="#263238"/>
<path d="M24.8578 42.7365C24.8578 42.7365 22.1015 39.0503 19.6471 39.7945C17.1926 40.5388 17.1926 50.503 17.3838 53.1298C17.5749 55.7565 23.5802 61.5266 26.095 59.9418" fill="white"/>
<path d="M24.8578 42.7365C24.8578 42.7365 22.1015 39.0503 19.6471 39.7945C17.1926 40.5388 17.1926 50.503 17.3838 53.1298C17.5749 55.7565 23.5802 61.5266 26.095 59.9418" stroke="#263238" stroke-linecap="round" stroke-linejoin="round"/>
<path d="M85.394 50.5031C85.394 50.5031 89.2467 47.6662 91.3591 48.9971C93.4716 50.328 90.152 59.8894 89.1059 62.3323C88.0597 64.7752 80.3845 68.8204 78.5035 66.6665" fill="white"/>
<path d="M85.394 50.5031C85.394 50.5031 89.2467 47.6662 91.3591 48.9971C93.4716 50.328 90.152 59.8894 89.1059 62.3323C88.0597 64.7752 80.3845 68.8204 78.5035 66.6665" stroke="#263238" stroke-linecap="round" stroke-linejoin="round"/>
<path d="M47.9939 88.7402C37.8643 87.4356 27.8051 72.4806 26.5879 68.269C25.24 63.5846 22.2725 40.4778 28.0566 27.8168C34.5649 13.5885 48.175 7.58202 61.4431 9.28066C74.7112 10.9793 85.7562 20.1467 87.2751 35.4082C88.623 48.9798 78.1212 70.3616 75.2745 74.5119C72.7195 78.2419 58.6869 90.1061 47.9939 88.7402Z" fill="white" stroke="#263238" stroke-linecap="round" stroke-linejoin="round"/>
<path d="M70.959 51.6676C70.6874 53.3049 69.6212 54.522 68.5851 54.3819C67.549 54.2418 66.9454 52.8234 67.217 51.186C67.4886 49.5487 68.5549 48.3403 69.591 48.4717C70.6271 48.603 71.2407 50.0302 70.959 51.6676Z" fill="#263238"/>
<path d="M37.8844 47.4298C37.6128 49.0584 38.2264 50.4944 39.2625 50.6257C40.2986 50.757 41.3549 49.54 41.6265 47.9026C41.8981 46.2653 41.2945 44.8381 40.2584 44.7067C39.2223 44.5754 38.1661 45.7924 37.8844 47.4298Z" fill="#263238"/>
<path d="M60.5378 69.5384C60.5378 69.5384 55.2869 78.5044 48.5874 77.0334C41.888 75.5624 41.9383 67.4019 41.9383 67.1655L42.8839 67.4808C45.5309 68.3438 48.2757 68.9601 51.072 69.3195C53.7793 69.6289 56.5133 69.7227 59.2401 69.5997C60.0549 69.5734 60.5378 69.5384 60.5378 69.5384Z" fill="#757575"/>
<path d="M51.7963 50.8796C52.0579 56.5097 46.5052 57.4641 47.5714 59.4166C48.3285 60.6452 49.6059 61.5687 51.1324 61.9908" fill="white"/>
<path d="M51.7963 50.8796C52.0579 56.5097 46.5052 57.4641 47.5714 59.4166C48.3285 60.6452 49.6059 61.5687 51.1324 61.9908" stroke="#263238" stroke-linecap="round" stroke-linejoin="round"/>
<path d="M41.9383 67.1394C41.9383 67.1394 41.8779 75.5538 48.5874 77.0248C55.2969 78.4958 60.5378 69.521 60.5378 69.521" stroke="#263238" stroke-linecap="round" stroke-linejoin="round"/>
<path d="M31.8992 39.996C31.8992 39.996 37.9347 33.3591 47.2999 35.4605" stroke="#263238" stroke-linecap="round" stroke-linejoin="round"/>
<path d="M78.2621 45.9501C78.2621 45.9501 74.6709 38.0698 65.0242 37.7458" stroke="#263238" stroke-linecap="round" stroke-linejoin="round"/>
<path d="M71.3816 21.4599C71.3816 21.4599 65.0141 28.7273 51.1928 30.8287C33.8809 33.4554 24.3246 46.4842 24.5661 51.9216C21.1628 44.2955 20.139 36.0212 21.5986 27.9392C25.0388 7.94082 46.475 2.22323 62.0567 3.61542C77.6384 5.0076 85.1929 18.6055 85.1929 18.6055C85.1929 18.6055 96.8917 26.5383 95.2521 36.5375C93.6225 46.1077 90.9568 46.3791 89.5384 48.5418C87.587 51.5363 90.1521 52.7884 83.3118 57.7179C83.3118 57.7179 86.0177 44.3565 82.658 34.3923C79.2982 24.4281 71.3816 21.4599 71.3816 21.4599Z" fill="#263238"/>
<path d="M59.904 69.6085L58.546 70.9481C53.1932 71.5424 47.7568 70.7856 42.8839 68.7679L42.4111 67.3145C45.2119 68.2384 48.114 68.9103 51.072 69.3195C54.0018 69.628 56.9559 69.7246 59.904 69.6085Z" fill="white"/>
<path d="M40.4395 66.614C40.4395 66.614 51.3437 71.0357 61.8857 69.3634" stroke="#263238" stroke-linecap="round" stroke-linejoin="round"/>
</svg>
