<svg width="38" height="45" viewBox="0 0 38 45" fill="none" xmlns="http://www.w3.org/2000/svg">
<path d="M1.87927 23.5101C1.42074 24.1891 1.12945 24.9669 1.02926 25.7801C0.995674 26.791 1.3098 27.7829 1.91925 28.5901C2.52787 29.3936 3.23319 30.1191 4.01925 30.7501C4.31411 31.0367 4.65141 31.2762 5.01925 31.4601C5.21649 31.5654 5.43924 31.6136 5.66238 31.5991C5.88552 31.5846 6.10018 31.5081 6.28213 31.3781C6.46409 31.2481 6.6061 31.0699 6.69217 30.8635C6.77824 30.6572 6.80495 30.4308 6.76925 30.2101C6.73169 29.7497 6.62376 29.2978 6.44925 28.8701C5.82925 27.0301 6.02927 25.0401 5.49927 23.2601C4.91927 21.2101 2.75927 22.0901 1.87927 23.5101Z" fill="white" stroke="#263238" stroke-linecap="round" stroke-linejoin="round"/>
<path d="M31.2393 23.5101C31.702 24.1869 31.9936 24.9658 32.0893 25.7801C32.1278 26.7917 31.8131 27.7852 31.1993 28.5901C30.5906 29.3936 29.8853 30.1191 29.0992 30.7501C28.8059 31.0385 28.4683 31.2782 28.0992 31.4601C27.9082 31.5489 27.6987 31.5907 27.4882 31.582C27.2777 31.5733 27.0723 31.5144 26.8893 31.4101C26.7065 31.2708 26.5613 31.0882 26.467 30.8786C26.3727 30.669 26.3322 30.4393 26.3492 30.2101C26.3916 29.7505 26.4994 29.2993 26.6693 28.8701C27.2893 27.0301 27.0993 25.0401 27.6693 23.2601C28.2393 21.2101 30.3693 22.0901 31.2393 23.5101Z" fill="white" stroke="#263238" stroke-linecap="round" stroke-linejoin="round"/>
<path d="M29.0092 21.3401C29.0092 30.8901 23.3893 44.05 16.4593 44.05C9.52926 44.05 3.90927 30.8501 3.90927 21.3401C3.90927 11.8301 9.52926 4.05005 16.4593 4.05005C23.3893 4.05005 29.0092 11.7901 29.0092 21.3401Z" fill="white" stroke="#263238" stroke-linecap="round" stroke-linejoin="round"/>
<path d="M11.8593 22.9501C12.2493 22.9501 12.5593 23.7601 12.5593 24.7501C12.5593 25.7401 12.2493 26.5501 11.8593 26.5501C11.4693 26.5501 11.1593 25.7401 11.1593 24.7501C11.1593 23.7601 11.4693 22.9501 11.8593 22.9501Z" fill="#263238"/>
<path d="M20.6293 22.9501C21.0093 22.9501 21.3293 23.7601 21.3293 24.7501C21.3293 25.7401 21.0093 26.5501 20.6293 26.5501C20.2493 26.5501 19.9193 25.7401 19.9193 24.7501C19.9193 23.7601 20.2393 22.9501 20.6293 22.9501Z" fill="#263238"/>
<path d="M17.7292 22.05L17.2693 22.97C17.2693 22.97 17.5793 27.8301 17.7193 28.8801C17.8593 29.9301 17.0793 31.1001 15.9293 30.4901L14.7892 29.86" stroke="#263238" stroke-linecap="round" stroke-linejoin="round"/>
<path d="M12.9593 34.55C12.9593 35.55 19.9593 35.55 19.9593 34.55" stroke="#263238" stroke-linecap="round" stroke-linejoin="round"/>
<path d="M4.49927 27.78L5.96927 28.0601C5.46512 26.5107 5.12984 24.9114 4.96927 23.29C4.83927 21.92 6.80926 19.86 6.80926 18.9C6.80926 13.66 9.65926 13.81 10.2393 14.58C10.3193 13.63 14.7992 9.01004 18.1392 15.41C18.9893 17.04 28.0893 18.48 28.0593 19.96C28.0062 22.5492 27.7521 25.1303 27.2993 27.68C28.0393 27.83 28.6893 27.05 28.7793 26.3C28.8693 25.55 29.0593 22.64 29.6893 22.22C29.8333 22.5026 30.0653 22.7305 30.3504 22.8694C30.6355 23.0084 30.958 23.0507 31.2693 22.99C30.844 22.0845 30.6124 21.1002 30.5893 20.1C30.5893 19.1 31.1493 19.7601 32.1093 19.4801C32.6093 19.3301 36.8692 16.48 37.3892 14.93C35.4692 15.17 33.6493 13.85 32.5493 12.25C31.5742 10.5701 30.6929 8.83743 29.9093 7.06005C28.7647 4.92187 27.06 3.13529 24.9779 1.89164C22.8957 0.647995 20.5145 -0.00588513 18.0893 3.99114e-05C13.2593 0.18004 8.62926 3.89005 7.89926 8.67005C7.42909 8.47606 6.91405 8.41727 6.41226 8.50031C5.91047 8.58336 5.44187 8.80492 5.05926 9.14004C4.29994 9.81283 3.67551 10.6239 3.21927 11.53C2.20841 13.0578 1.47074 14.7497 1.03924 16.53C0.709243 18.34 2.52925 20.8701 3.91925 22.0601C4.09925 21.6601 3.99927 27.78 4.49927 27.78Z" fill="#263238"/>
<path d="M8.14926 21.7601C8.63926 21.3501 8.97926 20.7601 9.48926 20.4101C9.84491 20.1882 10.2431 20.0433 10.6582 19.9847C11.0733 19.9262 11.4961 19.9553 11.8993 20.0701C12.6962 20.2946 13.4572 20.6313 14.1593 21.0701" stroke="#263238" stroke-linecap="round" stroke-linejoin="round"/>
<path d="M18.9893 21.11C19.6914 20.6712 20.4523 20.3345 21.2493 20.11C21.652 19.9914 22.0754 19.9603 22.4911 20.0189C22.9068 20.0776 23.3051 20.2246 23.6593 20.45C24.1793 20.82 24.5093 21.39 24.9993 21.8" stroke="#263238" stroke-linecap="round" stroke-linejoin="round"/>
</svg>
