<svg width="47" height="67" viewBox="0 0 47 67" fill="none" xmlns="http://www.w3.org/2000/svg">
<path d="M6.31002 34.2379C6.31002 34.2379 4.39001 29.6679 2.18001 31.4379C-0.0299876 33.2079 1.73002 39.4379 3.95002 41.3179C6.17002 43.1979 7.63002 42.7979 7.63002 42.7979C7.63002 42.7979 9.40002 51.4979 10.44 53.2679C11.48 55.0379 20.44 65.3678 23.57 65.9578C26.7 66.5478 34.04 66.2479 35.51 64.6279C36.98 63.0079 40.38 53.2678 41.12 50.3178C41.6978 47.9989 42.0329 45.6261 42.12 43.2379C42.12 42.0579 44.78 41.7579 45.81 36.3079C46.84 30.8579 45.81 28.6279 43.45 28.4879L41.09 28.3379C41.09 28.3379 40.5 20.3379 39.47 18.7479C38.44 17.1579 32.24 14.3279 31.8 14.0279C31.36 13.7279 9.52002 15.0279 9.52002 15.0279L5.52002 22.5579L6.31002 34.2379Z" fill="white"/>
<path d="M27.31 66.7178C26.0081 66.7375 24.7068 66.6471 23.42 66.4478C20.04 65.7978 10.89 55.1278 9.96001 53.5178C9.03001 51.9078 7.57002 45.1578 7.19002 43.3378C5.83554 43.2265 4.56562 42.6341 3.61002 41.6678C1.95002 40.2278 0.610019 36.7578 0.610019 34.0778C0.571803 33.5108 0.659578 32.9424 0.867054 32.4133C1.07453 31.8843 1.39655 31.4077 1.81002 31.0178C2.05938 30.7992 2.3574 30.6434 2.67922 30.5634C3.00103 30.4834 3.33732 30.4815 3.66002 30.5578C4.48081 30.8318 5.18536 31.3743 5.66002 32.0978L5.06002 22.5878C5.04974 22.4937 5.07082 22.3987 5.12001 22.3178L9.12001 14.7978C9.15857 14.7207 9.21678 14.6552 9.28876 14.6078C9.36075 14.5604 9.44397 14.5328 9.53002 14.5278C31.53 13.1978 31.94 13.4678 32.11 13.5278C32.28 13.5878 32.52 13.7478 32.97 13.9678C36.12 15.5378 39.14 17.1678 39.97 18.3978C40.97 19.9078 41.49 25.9778 41.64 27.7878L43.56 27.9078C44.0081 27.9141 44.449 28.0206 44.8505 28.2196C45.252 28.4186 45.6037 28.705 45.88 29.0578C46.88 30.3578 47.06 32.7378 46.38 36.3178C46.0925 38.6355 45.0028 40.7794 43.3 42.3778C42.92 42.7578 42.7 42.9778 42.7 43.1578C42.6163 45.5859 42.2811 47.9988 41.7 50.3578C41 53.1378 37.56 63.1378 35.97 64.8778C34.7 66.2478 30.69 66.7178 27.31 66.7178ZM7.58002 42.2978C7.67173 42.2947 7.76227 42.3191 7.84001 42.3678C7.89952 42.4034 7.95079 42.4512 7.99044 42.5081C8.03008 42.565 8.05721 42.6297 8.07001 42.6978C8.56001 45.0878 10.01 51.6178 10.82 53.0178C11.98 55.0178 20.82 64.9278 23.61 65.4578C26.72 66.0578 33.83 65.6778 35.09 64.2878C36.35 62.8978 39.85 53.1378 40.59 50.1978C41.1663 47.9057 41.5015 45.5596 41.59 43.1978C41.59 42.5878 42.01 42.1978 42.5 41.7078C44.0571 40.2501 45.0459 38.2867 45.29 36.1678C45.9 32.9378 45.8 30.7578 44.98 29.7078C44.7906 29.4681 44.5489 29.275 44.2732 29.1432C43.9976 29.0115 43.6955 28.9446 43.39 28.9478L41.03 28.7978C40.9093 28.7909 40.7952 28.7405 40.7087 28.656C40.6223 28.5714 40.5695 28.4584 40.56 28.3378C40.4 26.1478 39.81 20.2178 39.02 18.9778C38.23 17.7378 34.02 15.6978 32.46 14.9078L31.58 14.4578C30.38 14.3278 18.08 14.9978 9.80002 15.4578L6.07001 22.6678L6.80002 34.1778C6.80565 34.2963 6.76978 34.4131 6.6986 34.508C6.62741 34.6029 6.52536 34.67 6.41002 34.6978C6.2948 34.7251 6.17358 34.7098 6.06879 34.6546C5.964 34.5995 5.88274 34.5082 5.84001 34.3978C5.54001 33.6978 4.53001 31.7978 3.46001 31.5278C3.2841 31.4845 3.10008 31.4865 2.92517 31.5337C2.75027 31.581 2.5902 31.6718 2.46001 31.7978C2.16792 32.1014 1.94306 32.4631 1.80005 32.8594C1.65705 33.2557 1.59912 33.6776 1.63002 34.0978C1.58002 36.4378 2.83001 39.6878 4.24001 40.9078C6.18001 42.5878 7.46002 42.2878 7.47002 42.2778L7.58002 42.2978Z" fill="#263238"/>
<path d="M13.38 16.6678C13.38 16.6678 7.18002 22.2678 6.89002 23.5978C6.60002 24.9278 7.62001 32.5978 7.62001 33.5978C7.62001 34.5978 6.15001 34.7778 6.15001 33.1578C6.11901 31.9232 6.01885 30.6912 5.85001 29.4678C5.76998 28.0415 5.31463 26.6616 4.53002 25.4678C4.08002 25.0178 0.400013 14.8478 1.87001 11.7478C3.34001 8.64781 25.18 3.48781 25.18 3.48781C25.18 3.48781 32.55 -2.86219 37.13 2.74781C41.71 8.35781 38.46 12.9278 37.27 14.5478C36.7186 15.4252 35.9596 16.1533 35.06 16.6678C35.06 16.6678 31.82 16.8078 28.72 16.8078C25.62 16.8078 13.38 16.6678 13.38 16.6678Z" fill="#263238"/>
<path d="M6.95001 34.9279C6.32001 34.9279 5.65001 34.3879 5.65001 33.2079C5.65502 32.4921 5.60823 31.7769 5.51001 31.0679C5.51001 30.6679 5.41002 30.2179 5.36002 29.5579C5.27317 28.2549 4.86428 26.9939 4.17002 25.8879C3.63002 25.3379 -0.169985 14.8879 1.42002 11.5979C2.93002 8.42789 22.21 3.74789 24.95 3.09789C25.6 2.55789 29.27 -0.312106 33.04 0.0278944C33.915 0.109542 34.7637 0.371084 35.5329 0.796121C36.3021 1.22116 36.9752 1.80053 37.51 2.4979C42.37 8.4979 38.84 13.3179 37.68 14.9079C37.0862 15.8381 36.2722 16.6075 35.31 17.1479H35.13C35.13 17.1479 31.84 17.2879 28.77 17.2879C25.92 17.2879 15.21 17.1679 13.62 17.1479C10.67 19.8179 7.62002 22.9679 7.42002 23.6879C7.42327 26.0629 7.58698 28.435 7.91002 30.7879C8.07002 32.2079 8.17002 33.2379 8.17002 33.6079C8.18543 33.7766 8.16524 33.9467 8.11073 34.1072C8.05623 34.2676 7.96863 34.4148 7.85362 34.5393C7.73861 34.6637 7.59876 34.7626 7.4431 34.8295C7.28744 34.8965 7.11945 34.93 6.95001 34.9279ZM32.43 1.00789C28.95 1.00789 25.54 3.89789 25.5 3.93789C25.4387 3.98695 25.3668 4.02118 25.29 4.0379C16.94 6.0379 3.29001 9.9279 2.29001 12.0379C0.97001 14.8179 4.29002 24.3879 4.88002 25.2179C5.73544 26.4858 6.23291 27.9609 6.32001 29.4879C6.38001 30.1279 6.43002 30.5679 6.47002 30.9579C6.57859 31.7062 6.62873 32.4618 6.62001 33.2179C6.62001 34.1179 7.09001 34.1079 7.09001 33.6579C7.09001 33.2079 6.98001 32.2279 6.84001 30.9379C6.46001 27.4079 6.17001 24.4079 6.37001 23.5179C6.68001 22.1079 11.96 17.2779 13.01 16.3279C13.0552 16.2847 13.1085 16.251 13.1669 16.2286C13.2253 16.2063 13.2875 16.1959 13.35 16.1979C13.48 16.1979 25.63 16.3379 28.69 16.3379C31.43 16.3379 34.32 16.2279 34.9 16.1979C35.6716 15.7229 36.333 15.0888 36.84 14.3379C38.66 11.8279 40.63 7.9479 36.71 3.1379C36.2571 2.54558 35.6866 2.05328 35.0344 1.6919C34.3822 1.33051 33.6624 1.10786 32.92 1.0379C32.7573 1.01903 32.5938 1.00901 32.43 1.00789Z" fill="#263238"/>
<path d="M35.06 16.6678C35.06 16.6678 37.57 21.3878 38.6 23.4478C39.3378 25.2284 39.738 27.1308 39.78 29.0578C39.93 30.2378 39.93 35.8378 40.37 35.8378C40.81 35.8378 41.26 35.2478 41.26 34.6578C41.26 34.0678 41.7 30.5278 41.7 30.5278L43.47 28.4678C43.47 28.4678 46.13 23.7478 44.8 19.6178C43.47 15.4878 39.31 15.0578 37.31 14.6678C35.31 14.2778 35.06 16.6678 35.06 16.6678Z" fill="#263238"/>
<path d="M40.37 36.3578C39.68 36.3578 39.57 35.7878 39.37 31.2978C39.37 30.3778 39.3 29.4978 39.26 29.1378C39.22 28.7778 39.2 28.6378 39.18 28.3278C39.1184 26.7297 38.7624 25.1567 38.13 23.6878C37.13 21.6878 34.62 16.9678 34.59 16.9178C34.5501 16.837 34.5295 16.7479 34.53 16.6578C34.5761 15.8251 34.933 15.04 35.53 14.4578C35.7843 14.2754 36.0756 14.1513 36.3832 14.0943C36.6908 14.0372 37.0073 14.0487 37.31 14.1278L37.89 14.2478C40.14 14.6878 43.89 15.4278 45.2 19.4778C46.58 23.7678 43.95 28.4778 43.84 28.7278L42.11 30.7278C41.93 32.1478 41.69 34.2578 41.69 34.6478C41.7188 35.0453 41.6001 35.4395 41.3566 35.7549C41.1131 36.0704 40.7618 36.285 40.37 36.3578ZM35.58 16.5878C35.99 17.3778 38.12 21.3978 39.05 23.2478C39.7516 24.8249 40.142 26.5227 40.2 28.2478C40.2 28.5478 40.25 28.8078 40.28 29.0178C40.33 29.4278 40.36 30.2778 40.4 31.2778C40.44 32.2778 40.51 34.2778 40.63 35.1178C40.7116 34.9889 40.7565 34.8403 40.76 34.6878C40.76 34.0878 41.16 30.8678 41.2 30.4978C41.2172 30.4023 41.2585 30.3128 41.32 30.2378L43.09 28.1678C43.09 28.1678 45.56 23.6478 44.32 19.7978C43.2 16.3078 39.93 15.6678 37.76 15.2378L37.17 15.1178C37.0032 15.0626 36.8258 15.0475 36.6521 15.0735C36.4784 15.0996 36.3133 15.1661 36.17 15.2678C35.8262 15.626 35.6176 16.0927 35.58 16.5878Z" fill="#263238"/>
<path d="M26.2 45.068L22.15 44.468L22.3 43.478L26.22 44.058L29.89 43.678L27.79 32.858L28.77 32.668L31.08 44.558L26.2 45.068Z" fill="#263238"/>
<path d="M12.76 32.1579L12.23 31.3079C14.7611 29.7634 17.6988 29.0177 20.66 29.1679L20.55 30.1679C16.65 29.7479 12.8 32.1279 12.76 32.1579Z" fill="#263238"/>
<path d="M35.87 30.7378C33.63 28.2278 29.53 29.8178 29.49 29.8378L29.12 28.9078C29.32 28.8278 33.91 27.0378 36.61 30.0678L35.87 30.7378Z" fill="#263238"/>
<path d="M20.02 35.4879C20.02 36.6779 19.39 37.6279 18.61 37.6279C17.83 37.6279 17.21 36.6779 17.21 35.4879C17.21 34.2979 17.84 33.3479 18.61 33.3479C19.38 33.3479 20.02 34.3079 20.02 35.4879Z" fill="#263238"/>
<path d="M32.92 36.968C33.6932 36.968 34.32 36.0099 34.32 34.828C34.32 33.6461 33.6932 32.688 32.92 32.688C32.1468 32.688 31.52 33.6461 31.52 34.828C31.52 36.0099 32.1468 36.968 32.92 36.968Z" fill="#263238"/>
<path d="M27.51 52.4579C24.6083 52.483 21.7447 51.7962 19.17 50.4579L19.68 49.5879C23.8103 51.6665 28.5955 52.026 32.99 50.5879L33.3 51.5879C31.4281 52.1821 29.4739 52.4757 27.51 52.4579Z" fill="#263238"/>
</svg>
